<?xml version="1.0" encoding="UTF-8"?>
<svg width="100px" height="108px" viewBox="0 0 100 108" version="1.1" xmlns="http://www.w3.org/2000/svg" xmlns:xlink="http://www.w3.org/1999/xlink">
    <!-- Generator: Sketch 53 (72520) - https://sketchapp.com -->
    <title>Path</title>
    <desc>Created with Sketch.</desc>
    <g id="Welcome" stroke="none" stroke-width="1" fill="none" fill-rule="evenodd">
        <g id="Desktop-HD" transform="translate(-411.000000, -1403.000000)" fill="#FF8A00" fill-rule="nonzero">
            <g id="logo" transform="translate(411.000000, 1390.000000)">
                <path d="M43.1349862,78.8402204 L18.8099174,96.677686 C15.892562,98.6225895 13.6198347,99.9201102 10.7024793,99.9201102 C4.86501377,99.9201102 3.91483601e-15,94.7300275 3.91483601e-15,88.9008264 C3.91483601e-15,84.0275482 3.89256198,80.4600551 7.4600551,78.8402204 L36,66.5151515 L7.4600551,53.8650138 C3.58126722,52.2451791 0,48.677686 0,43.8126722 C0,37.9752066 5.19008264,33.1101928 11.0192837,33.1101928 C13.9393939,33.1101928 15.8842975,34.0826446 18.8016529,36.3526171 L43.1267218,54.1900826 L39.892562,25.3250689 C38.9201102,18.5096419 43.4600551,13 49.9476584,13 C56.4352617,13 60.9669421,18.1900826 60.0027548,25 L56.7493113,54.1900826 L81.0743802,36.3526171 C84.0027548,34.0826446 86.2727273,33.1101928 89.1928375,33.1101928 C95.0818333,33.1625426 99.8429671,37.9236763 99.8953168,43.8126722 C99.8953168,49.0027548 96.3278237,52.2451791 92.4352617,53.8677686 L63.892562,66.5151515 L92.4352617,78.8402204 C96.3278237,80.4600551 99.8953168,84.0275482 99.8953168,89.2176309 C99.8953168,95.0550964 94.7052342,99.9201102 88.8760331,99.9201102 C86.2809917,99.9201102 84.0110193,98.6225895 81.0909091,96.677686 L56.7493113,78.8402204 L59.9917355,107.705234 C60.9641873,114.515152 56.4242424,120.030303 49.9366391,120.030303 C43.4490358,120.030303 38.9173554,114.84022 39.8815427,108.030303 L43.1349862,78.8402204 Z" id="Path"></path>
            </g>
        </g>
    </g>
</svg>