<svg width="400" height="400" viewBox="0 0 400 400" fill="none" xmlns="http://www.w3.org/2000/svg">
<rect width="400" height="400" fill="white"/>
<path d="M50 50H350V350H50V50Z" fill="#F06529"/>
<path d="M117.578 171.055H104.078V185H97.0469V150.875H119.266V156.57H104.078V165.383H117.578V171.055Z" fill="white"/>
<path d="M136.539 165.992C135.617 165.867 134.805 165.805 134.102 165.805C131.539 165.805 129.859 166.672 129.062 168.406V185H122.289V159.641H128.688L128.875 162.664C130.234 160.336 132.117 159.172 134.523 159.172C135.273 159.172 135.977 159.273 136.633 159.477L136.539 165.992Z" fill="white"/>
<path d="M137.922 172.086C137.922 169.57 138.406 167.328 139.375 165.359C140.344 163.391 141.734 161.867 143.547 160.789C145.375 159.711 147.492 159.172 149.898 159.172C153.32 159.172 156.109 160.219 158.266 162.312C160.438 164.406 161.648 167.25 161.898 170.844L161.945 172.578C161.945 176.469 160.859 179.594 158.688 181.953C156.516 184.297 153.602 185.469 149.945 185.469C146.289 185.469 143.367 184.297 141.18 181.953C139.008 179.609 137.922 176.422 137.922 172.391V172.086ZM144.695 172.578C144.695 174.984 145.148 176.828 146.055 178.109C146.961 179.375 148.258 180.008 149.945 180.008C151.586 180.008 152.867 179.383 153.789 178.133C154.711 176.867 155.172 174.852 155.172 172.086C155.172 169.727 154.711 167.898 153.789 166.602C152.867 165.305 151.57 164.656 149.898 164.656C148.242 164.656 146.961 165.305 146.055 166.602C145.148 167.883 144.695 169.875 144.695 172.578Z" fill="white"/>
<path d="M172.352 159.641L172.562 162.57C174.375 160.305 176.805 159.172 179.852 159.172C182.539 159.172 184.539 159.961 185.852 161.539C187.164 163.117 187.836 165.477 187.867 168.617V185H181.094V168.781C181.094 167.344 180.781 166.305 180.156 165.664C179.531 165.008 178.492 164.68 177.039 164.68C175.133 164.68 173.703 165.492 172.75 167.117V185H165.977V159.641H172.352Z" fill="white"/>
<path d="M201.133 153.406V159.641H205.469V164.609H201.133V177.266C201.133 178.203 201.312 178.875 201.672 179.281C202.031 179.688 202.719 179.891 203.734 179.891C204.484 179.891 205.148 179.836 205.727 179.727V184.859C204.398 185.266 203.031 185.469 201.625 185.469C196.875 185.469 194.453 183.07 194.359 178.273V164.609H190.656V159.641H194.359V153.406H201.133Z" fill="white"/>
<path d="M220.914 185.469C217.195 185.469 214.164 184.328 211.82 182.047C209.492 179.766 208.328 176.727 208.328 172.93V172.273C208.328 169.727 208.82 167.453 209.805 165.453C210.789 163.438 212.18 161.891 213.977 160.812C215.789 159.719 217.852 159.172 220.164 159.172C223.633 159.172 226.359 160.266 228.344 162.453C230.344 164.641 231.344 167.742 231.344 171.758V174.523H215.195C215.414 176.18 216.07 177.508 217.164 178.508C218.273 179.508 219.672 180.008 221.359 180.008C223.969 180.008 226.008 179.062 227.477 177.172L230.805 180.898C229.789 182.336 228.414 183.461 226.68 184.273C224.945 185.07 223.023 185.469 220.914 185.469ZM220.141 164.656C218.797 164.656 217.703 165.109 216.859 166.016C216.031 166.922 215.5 168.219 215.266 169.906H224.688V169.367C224.656 167.867 224.25 166.711 223.469 165.898C222.688 165.07 221.578 164.656 220.141 164.656Z" fill="white"/>
<path d="M241.445 159.641L241.656 162.57C243.469 160.305 245.898 159.172 248.945 159.172C251.633 159.172 253.633 159.961 254.945 161.539C256.258 163.117 256.93 165.477 256.961 168.617V185H250.188V168.781C250.188 167.344 249.875 166.305 249.25 165.664C248.625 165.008 247.586 164.68 246.133 164.68C244.227 164.68 242.797 165.492 241.844 167.117V185H235.07V159.641H241.445Z" fill="white"/>
<path d="M261.062 172.133C261.062 168.18 261.945 165.031 263.711 162.688C265.492 160.344 267.922 159.172 271 159.172C273.469 159.172 275.508 160.094 277.117 161.938V149H283.914V185H277.797L277.469 182.305C275.781 184.414 273.609 185.469 270.953 185.469C267.969 185.469 265.57 184.297 263.758 181.953C261.961 179.594 261.062 176.32 261.062 172.133ZM267.836 172.625C267.836 175 268.25 176.82 269.078 178.086C269.906 179.352 271.109 179.984 272.688 179.984C274.781 179.984 276.258 179.102 277.117 177.336V167.328C276.273 165.562 274.812 164.68 272.734 164.68C269.469 164.68 267.836 167.328 267.836 172.625Z" fill="white"/>
<path d="M117.578 227.055H104.078V241H97.0469V206.875H119.266V212.57H104.078V221.383H117.578V227.055Z" fill="white"/>
<path d="M121.328 228.086C121.328 225.57 121.812 223.328 122.781 221.359C123.75 219.391 125.141 217.867 126.953 216.789C128.781 215.711 130.898 215.172 133.305 215.172C136.727 215.172 139.516 216.219 141.672 218.312C143.844 220.406 145.055 223.25 145.305 226.844L145.352 228.578C145.352 232.469 144.266 235.594 142.094 237.953C139.922 240.297 137.008 241.469 133.352 241.469C129.695 241.469 126.773 240.297 124.586 237.953C122.414 235.609 121.328 232.422 121.328 228.391V228.086ZM128.102 228.578C128.102 230.984 128.555 232.828 129.461 234.109C130.367 235.375 131.664 236.008 133.352 236.008C134.992 236.008 136.273 235.383 137.195 234.133C138.117 232.867 138.578 230.852 138.578 228.086C138.578 225.727 138.117 223.898 137.195 222.602C136.273 221.305 134.977 220.656 133.305 220.656C131.648 220.656 130.367 221.305 129.461 222.602C128.555 223.883 128.102 225.875 128.102 228.578Z" fill="white"/>
<path d="M160.07 236.008C161.32 236.008 162.336 235.664 163.117 234.977C163.898 234.289 164.305 233.375 164.336 232.234H170.688C170.672 233.953 170.203 235.531 169.281 236.969C168.359 238.391 167.094 239.5 165.484 240.297C163.891 241.078 162.125 241.469 160.188 241.469C156.562 241.469 153.703 240.32 151.609 238.023C149.516 235.711 148.469 232.523 148.469 228.461V228.016C148.469 224.109 149.508 220.992 151.586 218.664C153.664 216.336 156.516 215.172 160.141 215.172C163.312 215.172 165.852 216.078 167.758 217.891C169.68 219.688 170.656 222.086 170.688 225.086H164.336C164.305 223.773 163.898 222.711 163.117 221.898C162.336 221.07 161.305 220.656 160.023 220.656C158.445 220.656 157.25 221.234 156.438 222.391C155.641 223.531 155.242 225.391 155.242 227.969V228.672C155.242 231.281 155.641 233.156 156.438 234.297C157.234 235.438 158.445 236.008 160.07 236.008Z" fill="white"/>
<path d="M189.742 238.422C188.07 240.453 185.758 241.469 182.805 241.469C180.086 241.469 178.008 240.688 176.57 239.125C175.148 237.562 174.422 235.273 174.391 232.258V215.641H181.164V232.023C181.164 234.664 182.367 235.984 184.773 235.984C187.07 235.984 188.648 235.188 189.508 233.594V215.641H196.305V241H189.93L189.742 238.422Z" fill="white"/>
<path d="M215.148 233.992C215.148 233.164 214.734 232.516 213.906 232.047C213.094 231.562 211.781 231.133 209.969 230.758C203.938 229.492 200.922 226.93 200.922 223.07C200.922 220.82 201.852 218.945 203.711 217.445C205.586 215.93 208.031 215.172 211.047 215.172C214.266 215.172 216.836 215.93 218.758 217.445C220.695 218.961 221.664 220.93 221.664 223.352H214.891C214.891 222.383 214.578 221.586 213.953 220.961C213.328 220.32 212.352 220 211.023 220C209.883 220 209 220.258 208.375 220.773C207.75 221.289 207.438 221.945 207.438 222.742C207.438 223.492 207.789 224.102 208.492 224.57C209.211 225.023 210.414 225.422 212.102 225.766C213.789 226.094 215.211 226.469 216.367 226.891C219.945 228.203 221.734 230.477 221.734 233.711C221.734 236.023 220.742 237.898 218.758 239.336C216.773 240.758 214.211 241.469 211.07 241.469C208.945 241.469 207.055 241.094 205.398 240.344C203.758 239.578 202.469 238.539 201.531 237.227C200.594 235.898 200.125 234.469 200.125 232.938H206.547C206.609 234.141 207.055 235.062 207.883 235.703C208.711 236.344 209.82 236.664 211.211 236.664C212.508 236.664 213.484 236.422 214.141 235.938C214.812 235.438 215.148 234.789 215.148 233.992Z" fill="white"/>
</svg>
