<?xml version="1.0" encoding="UTF-8"?>
<svg width="120px" height="120px" viewBox="0 0 120 120" version="1.1" xmlns="http://www.w3.org/2000/svg" xmlns:xlink="http://www.w3.org/1999/xlink">
    <!-- Generator: Sketch 53 (72520) - https://sketchapp.com -->
    <title>logo</title>
    <desc>Created with Sketch.</desc>
    <g id="Welcome" stroke="none" stroke-width="1" fill="none" fill-rule="evenodd">
        <g id="Desktop-HD" transform="translate(-1016.000000, -1568.000000)" fill-rule="nonzero">
            <g id="logo" transform="translate(1016.000000, 1568.000000)">
                <circle id="Oval" fill="#FF4500" cx="60" cy="60" r="60"></circle>
                <path d="M100.02,60 C99.8938673,56.550002 97.7532037,53.4958161 94.5532097,52.2002719 C91.3532158,50.9047278 87.6907238,51.6094581 85.2,54 C78.3745289,49.3602895 70.3512205,46.7969988 62.1,46.62 L66,27.9 L78.84,30.6 C79.1553158,33.5310596 81.5532136,35.7988418 84.4972909,35.9503129 C87.4413681,36.101784 90.059341,34.0920656 90.6737984,31.2088423 C91.2882558,28.325619 89.7171437,25.4231447 86.9671192,24.3611187 C84.2170946,23.2990928 81.1029466,24.3921767 79.62,26.94 L64.92,24 C64.4343878,23.8934673 63.9263378,23.9857773 63.5092395,24.2563275 C63.0921412,24.5268778 62.8007139,24.9531477 62.7,25.44 L58.26,46.26 C49.9072913,46.3859235 41.7736332,48.9511541 34.86,53.64 C32.3324336,51.2618202 28.6392219,50.6000256 25.4431386,51.9525723 C22.2470553,53.305119 20.1508002,56.4169511 20.0981583,59.8870462 C20.0455164,63.3571412 22.0464147,66.5311278 25.2,67.98 C25.1324442,68.8587035 25.1324442,69.7412965 25.2,70.62 C25.2,84.06 40.86,94.98 60.18,94.98 C79.5,94.98 95.16,84.06 95.16,70.62 C95.2275558,69.7412965 95.2275558,68.8587035 95.16,67.98 C98.1817709,66.4780844 100.072206,63.3740368 100.02,60 Z M40.02,66 C40.02,62.6862915 42.7062915,60 46.02,60 C49.3337085,60 52.02,62.6862915 52.02,66 C52.02,69.3137085 49.3337085,72 46.02,72 C44.4287011,72 42.9025776,71.367859 41.7773593,70.2426407 C40.652141,69.1174224 40.02,67.5912989 40.02,66 L40.02,66 Z M74.88,82.5 C70.623138,85.7079257 65.38569,87.3406524 60.06,87.12 C54.73431,87.3406524 49.496862,85.7079257 45.24,82.5 C44.7113935,81.8559259 44.757561,80.9159125 45.3467367,80.3267367 C45.9359125,79.737561 46.8759259,79.6913935 47.52,80.22 C51.1273782,82.8659949 55.5307061,84.1996951 60,84 C64.4747955,84.2433501 68.898637,82.952181 72.54,80.34 C72.9687187,79.9219992 73.5878719,79.7644693 74.1642305,79.9267502 C74.7405892,80.0890311 75.1865906,80.5464686 75.3342305,81.1267502 C75.4818704,81.7070319 75.3087187,82.3219993 74.88,82.74 L74.88,82.5 Z M73.8,72.24 C70.4862915,72.24 67.8,69.5537085 67.8,66.24 C67.8,62.9262915 70.4862915,60.24 73.8,60.24 C77.1137085,60.24 79.8,62.9262915 79.8,66.24 C79.865866,67.8829316 79.2546073,69.4809062 78.1090832,70.6604558 C76.9635591,71.8400053 75.3841554,72.4977623 73.74,72.48 L73.8,72.24 Z" id="Shape" fill="#FFFFFF"></path>
            </g>
        </g>
    </g>
</svg>