<?xml version="1.0" encoding="UTF-8"?>
<svg width="160px" height="27px" viewBox="0 0 160 27" version="1.1" xmlns="http://www.w3.org/2000/svg" xmlns:xlink="http://www.w3.org/1999/xlink">
    <!-- Generator: Sketch 53 (72520) - https://sketchapp.com -->
    <title>logo</title>
    <desc>Created with Sketch.</desc>
    <g id="Welcome" stroke="none" stroke-width="1" fill="none" fill-rule="evenodd">
        <g id="Desktop-HD" transform="translate(-133.000000, -3017.000000)" fill="#333333" fill-rule="nonzero">
            <g id="logo" transform="translate(133.000000, 3017.000000)">
                <g id="BODY" transform="translate(0.000000, 6.918919)">
                    <g id="LIGHTHOUSE" transform="translate(31.835676, 0.000000)">
                        <g id="Layer_2" transform="translate(2.364541, 8.865730)">
                            <polygon id="Shape" points="0.815567568 4.9132973 1.43308108 6.16389189 6.0972973 3.86162162 5.48064865 2.61102703"></polygon>
                            <path d="M1.8387027,1.6 L5.07848649,3.2 L5.696,1.94854054 L2.45621622,0.348540541 L1.8387027,1.6 Z M0.503351351,6.25989189 L6.97772973,8.14702703 L7.36778378,6.80908108 L0.89427027,4.92108108 L0.503351351,6.25989189 Z" id="Shape"></path>
                        </g>
                        <path d="M6.1907027,0.600216216 C4.69565296,0.600216216 3.48367568,1.8121935 3.48367568,3.30724324 C3.48367568,4.80229299 4.69565296,6.01427027 6.1907027,6.01427027 C7.68575245,6.01427027 8.89772973,4.80229299 8.89772973,3.30724324 C8.89772973,1.8121935 7.68575245,0.600216216 6.1907027,0.600216216 Z M6.1907027,4.15740541 C5.88066471,4.16745454 5.58976334,4.00784312 5.43168003,3.74094574 C5.27359673,3.47404836 5.27342787,3.14223608 5.43123944,2.87517794 C5.58905101,2.6081198 5.87978978,2.44821238 6.18983784,2.45794595 C6.64858073,2.47258316 7.01288749,2.84869933 7.01288749,3.30767568 C7.01288749,3.76665202 6.64858073,4.1427682 6.18983784,4.15740541 L6.1907027,4.15740541 Z" id="Shape"></path>
                        <path d="M7.83481081,5.52908108 C7.67048649,5.01621622 7.08843243,4.60108108 6.53924324,4.60108108 L5.89578378,4.60108108 C5.34486486,4.60108108 4.76540541,5.01881081 4.60194595,5.52908108 L0.552648649,18.1777297 C0.388324324,18.6914595 0.699675676,19.1065946 1.25751351,19.1065946 L2.05578378,19.1065946 C2.34543752,19.096854 2.59901877,18.9093346 2.69318919,18.6352432 L4.76454054,11.5554595 C5.26010811,9.87243243 5.59827027,8.45491892 6.13967568,6.79351351 L6.22962162,6.79351351 C6.74767568,8.45405405 7.08583784,9.87243243 7.58140541,11.5554595 L9.67437838,18.6352432 C9.76788895,18.9083388 10.0198689,19.0956909 10.3083243,19.1065946 L11.2034595,19.1065946 C11.7552432,19.1065946 12.0683243,18.6888649 11.9031351,18.1777297 L7.83481081,5.52908108 Z" id="V_1_"></path>
                    </g>
                    <g id="TEXT_EXPANDED" transform="translate(0.000000, 5.708108)">
                        <g id="Group" transform="translate(0.000000, 0.525838)">
                            <path d="M1.58875676,8.40648649 C2.27459459,9.25405405 3.05037838,9.70551351 3.8252973,9.70551351 C5.03437838,9.70551351 5.64756757,9.18227027 5.64756757,7.55891892 L5.64756757,2.23567568 L1.04648649,2.23567568 L1.04648649,0.0164324324 L8.30010811,0.0164324324 L8.30010811,7.77427027 C8.30010811,10.0834595 7.16281081,11.9965405 3.91610811,11.9965405 C2.61708108,11.9965405 1.08367568,11.4905946 0.0553513514,10.0471351 L1.58875676,8.40648649 Z M16.9634595,8.98335135 L13.4088649,8.98335135 L12.6875676,11.7794595 L9.98054054,11.7794595 L13.6432432,0.0172972973 L16.8181622,0.0172972973 L20.4817297,11.7803243 L17.6665946,11.7803243 L16.9634595,8.98421622 L16.9634595,8.98335135 Z M16.4211892,6.90767568 L16.1504865,5.82659459 C15.8434595,4.65297297 15.5191351,3.264 15.2121081,2.03675676 L15.1403243,2.03675676 C14.8514595,3.28216216 14.5262703,4.65383784 14.2201081,5.82572973 L13.9485405,6.90854054 L16.4220541,6.90854054 L16.4211892,6.90767568 Z M20.9176216,0.0164324324 L23.7318919,0.0164324324 L25.1398919,5.50140541 C25.5014054,6.78227027 25.7349189,7.97318919 26.0774054,9.27221622 L26.1500541,9.27221622 C26.5107027,7.97405405 26.7623784,6.78227027 27.1057297,5.50140541 L28.4947027,0.0172972973 L31.2008649,0.0172972973 L27.6652973,11.7794595 L24.4713514,11.7794595 L20.9167568,0.0172972973 L20.9176216,0.0164324324 Z" id="Shape"></path>
                        </g>
                        <g id="Group" transform="translate(45.775568, 0.000000)">
                            <path d="M1.55675676,9.00497297 C2.44064865,9.72627027 3.54075676,10.2313514 4.56994595,10.2313514 C5.79632432,10.2313514 6.33772973,9.79891892 6.33772973,9.09491892 C6.33772973,8.35545946 5.65189189,8.12021622 4.51545946,7.68778378 L2.99935135,7.03913514 C1.68302703,6.55048649 0.491243243,5.54032432 0.491243243,3.82702703 C0.491243243,1.87848649 2.25902703,0.326918919 4.80345946,0.326918919 C6.22875676,0.326918919 7.65405405,0.868324324 8.7187027,1.87848649 L7.36605405,3.55632432 C6.55308108,2.96043243 5.81535135,2.61794595 4.80432432,2.61794595 C3.77513514,2.61794595 3.17924324,3.01491892 3.17924324,3.68172973 C3.17924324,4.40302703 3.97405405,4.65643243 5.10962162,5.0707027 L6.53664865,5.68562162 C8.08735135,6.26248649 9.06205405,7.21816216 9.06205405,8.8787027 C9.06205405,10.8281081 7.41967568,12.5232432 4.49643243,12.5232432 C2.84889118,12.5194706 1.25887554,11.9170289 0.0224864865,10.8281081 L1.55675676,9.00497297 Z M16.5526486,0.326054054 C18.0497297,0.326054054 19.2406486,1.04735135 20.0354595,1.824 L18.5738378,3.46551351 C18.0151351,2.96043243 17.4010811,2.61794595 16.5535135,2.61794595 C14.892973,2.61794595 13.6665946,4.04324324 13.6665946,6.40605405 C13.6665946,8.82421622 14.892973,10.2313514 16.6607568,10.2313514 C17.5091892,10.2313514 18.1768649,9.81621622 18.7537297,9.18486486 L20.2153514,10.7909189 C19.2415135,11.9264865 17.9779459,12.5223784 16.499027,12.5223784 C13.4676757,12.5223784 10.9422703,10.4475676 10.9422703,6.496 C10.9405405,2.60064865 13.4123243,0.326054054 16.5526486,0.326054054 Z M28.3372973,12.3061622 L26.0817297,8.06659459 L24.6918919,8.06659459 L24.6918919,12.3061622 L22.0393514,12.3061622 L22.0393514,0.54227027 L26.208,0.54227027 C28.6962162,0.54227027 30.7537297,1.40886486 30.7537297,4.20497297 C30.7537297,5.93643243 29.9061622,7.03827027 28.6607568,7.59697297 L31.3132973,12.3052973 L28.3364324,12.3052973 L28.3364324,12.3061622 L28.3372973,12.3061622 Z M24.6918919,5.95632432 L25.9909189,5.95632432 C27.3980541,5.95632432 28.1375135,5.36043243 28.1375135,4.20583784 C28.1375135,3.05210811 27.3971892,2.65513514 25.9909189,2.65513514 L24.6918919,2.65513514 L24.6918919,5.95632432 Z M32.9401081,10.0687568 L35.6817297,10.0687568 L35.6817297,2.77967568 L32.9401081,2.77967568 L32.9401081,0.54227027 L41.0957838,0.54227027 L41.0957838,2.77967568 L38.3524324,2.77967568 L38.3524324,10.0687568 L41.0949189,10.0687568 L41.0949189,12.3061622 L32.9401081,12.3061622 L32.9401081,10.0687568 Z M43.7682162,0.54227027 L48.0614054,0.54227027 C50.6058378,0.54227027 52.6624865,1.48064865 52.6624865,4.33124324 C52.6624865,7.09275676 50.5522162,8.31827027 48.0614054,8.31827027 L46.4207568,8.31827027 L46.4207568,12.3061622 L43.7682162,12.3061622 L43.7682162,0.54227027 Z M47.8996757,6.208 C49.3604324,6.208 50.0454054,5.55848649 50.0454054,4.33124324 C50.0454054,3.10572973 49.3059459,2.65427027 47.8996757,2.65427027 L46.4198919,2.65427027 L46.4198919,6.20886486 L47.8988108,6.20886486 L47.8996757,6.208 Z M57.3379459,2.77967568 L53.8196757,2.77967568 L53.8196757,0.54227027 L63.5260541,0.54227027 L63.5260541,2.77967568 L60.0077838,2.77967568 L60.0077838,12.3052973 L57.3370811,12.3052973 L57.3370811,2.77967568 L57.3379459,2.77967568 Z" id="Shape"></path>
                        </g>
                        <g id="Group" transform="translate(111.544216, 0.525838)">
                            <path d="M1.86983784,8.68324324 C2.82724324,8.68324324 3.48021622,9.40540541 3.48021622,10.3212973 C3.48021622,11.2380541 2.82724324,11.9472432 1.86983784,11.9472432 C0.910702703,11.9472432 0.258594595,11.2380541 0.258594595,10.3212973 C0.258594595,9.40454054 0.910702703,8.68237838 1.86983784,8.68237838 L1.86983784,8.68324324 Z" id="Shape"></path>
                            <polygon id="INFO" points="7.29686486 11.7837838 15.3055135 11.7837838 15.3055135 9.58702703 12.6123243 9.58702703 12.6123243 2.42681081 15.3055135 2.42681081 15.3055135 0.230918919 7.29686486 0.230918919 7.29686486 2.42767568 9.99005405 2.42767568 9.99005405 9.58616216 7.29686486 9.58616216"></polygon>
                            <path d="M18.1405405,11.7837838 L20.64,11.7837838 L20.64,7.69037838 C20.64,6.32648649 20.3909189,4.78443243 20.2672432,3.50875676 L20.3381622,3.50875676 L21.3301622,6.02551351 L23.776,11.7837838 L26.4337297,11.7837838 L26.4337297,0.230918919 L23.9351351,0.230918919 L23.9351351,4.32345946 C23.9351351,5.67091892 24.1833514,7.30118919 24.307027,8.52324324 L24.2361081,8.52324324 L23.2441081,5.98918919 L20.7991351,0.230918919 L18.1405405,0.230918919 L18.1405405,11.7837838 Z M29.8715676,11.7837838 L32.4756757,11.7837838 L32.4756757,7.30118919 L36.7463784,7.30118919 L36.7463784,5.1027027 L32.4756757,5.1027027 L32.4756757,2.42767568 L37.4901622,2.42767568 L37.4901622,0.230918919 L29.8707027,0.230918919 L29.8707027,11.7837838 L29.8715676,11.7837838 Z M43.3945946,11.9956757 C46.1414054,11.9956757 48.0371892,9.728 48.0371892,5.95372973 C48.0371892,2.19762162 46.1414054,0.0181621622 43.3945946,0.0181621622 C40.6477838,0.0181621622 38.752,2.18032432 38.752,5.95372973 C38.752,9.728 40.6477838,11.9965405 43.3945946,11.9965405 L43.3945946,11.9956757 Z M43.3945946,9.74616216 C42.1898378,9.74616216 41.4278919,8.27589189 41.4278919,5.95372973 C41.4278919,3.65059459 42.188973,2.26854054 43.3945946,2.26854054 C44.5993514,2.26854054 45.3612973,3.65059459 45.3612973,5.95372973 C45.3612973,8.27502703 44.6002162,9.74616216 43.3945946,9.74616216 Z" id="Path"></path>
                        </g>
                    </g>
                </g>
                <g id="FLASHES" transform="translate(25.781622, 0.000000)">
                    <polyline id="flash4" points="17.8957838 9.50832432 17.4244324 9.17102703 19.5762162 8.33902703 19.2112432 7.82356757 24.0155676 7.4067027 24.0527568 7.51913514 22.0955676 8.28886486 22.323027 8.70918919 19.731027 9.34486486 20.1288649 9.84475676 16.544 10.3299459 16.4947027 10.2313514 17.8957838 9.50832432"></polyline>
                    <polyline id="flash3" points="17.7184865 4.40043243 18.1137297 4.71783784 14.7416216 7.08756757 14.6629189 7.00627027 15.8650811 5.36735135 15.2380541 5.40454054 16.576 3.86681081 16.2300541 3.44562162 20.3675676 0.317405405 20.4454054 0.398702703 18.8384865 2.6067027 19.3452973 2.60497297 17.7193514 4.40043243"></polyline>
                    <polyline id="flash2" points="6.83502703 4.40043243 6.44064865 4.71783784 9.81189189 7.08756757 9.89059459 7.00627027 8.68843243 5.36735135 9.31545946 5.40454054 7.97751351 3.86594595 8.32345946 3.44475676 4.18594595 0.317405405 4.10810811 0.398702703 5.71502703 2.6067027 5.20821622 2.60497297 6.83416216 4.40043243"></polyline>
                    <polyline id="flash1" points="6.65859459 9.50832432 7.12994595 9.17102703 4.97816216 8.33902703 5.34313514 7.82356757 0.538810811 7.4067027 0.501621622 7.51913514 2.45881081 8.28886486 2.23135135 8.70918919 4.82335135 9.34486486 4.42551351 9.84475676 8.01037838 10.3299459 8.06054054 10.2313514 6.65859459 9.50832432"></polyline>
                </g>
            </g>
        </g>
    </g>
</svg>