<?xml version="1.0" encoding="UTF-8"?>
<svg width="119px" height="120px" viewBox="0 0 119 120" version="1.1" xmlns="http://www.w3.org/2000/svg" xmlns:xlink="http://www.w3.org/1999/xlink">
    <!-- Generator: Sketch 53 (72520) - https://sketchapp.com -->
    <title>logo</title>
    <desc>Created with Sketch.</desc>
    <g id="Welcome" stroke="none" stroke-width="1" fill="none" fill-rule="evenodd">
        <g id="Desktop-HD" transform="translate(-146.000000, -2861.000000)" fill-rule="nonzero">
            <g id="logo" transform="translate(146.000000, 2861.000000)">
                <path d="M113,5.97510373 L113,113.526971 L6.5,113.526971 L6.5,5.97510373 L113,5.97510373 L113,5.97510373 Z M119,0 L112.899,0 L6.0915,0 L0,0 L0,5.82921162 L0,113.712697 L0,120 L6.0915,120 L112.899,120 L119,120 L119,113.712697 L119,5.82921162 L119,0 L119,0 Z" id="Shape" fill="#82D8D8"></path>
                <polygon id="Path" fill="#333333" points="50.5 80.1659751 50.5 31.5042324 50.5 28.3817427 47.0465 28.3817427 41.71 28.3817427 36.5 28.3817427 36.5 30.7817427 36.5 31.5042324 36.5 83.3188382 36.5 86.9586722 36.5 88.4305394 36.5 90.6224066 41.71 90.6224066 47.3135 90.6224066 60.921 90.6224066 64 90.6224066 64 86.9586722 64 83.5872199 64 80.1659751 60.921 80.1659751"></polygon>
                <polygon id="Path" fill="#82D8D8" points="91.3185 46.8049793 84 46.8049793 84 41.6813278 84 39.3360996 83.0395 39.3360996 82.282 39.3360996 77.6395 39.3360996 75.435 39.3360996 72 39.3360996 72 41.6813278 72 46.8049793 67.4245 46.8049793 64 46.8049793 64 51.3341079 64 54.8902905 64 58.7551867 67.4245 58.7551867 72 58.7551867 72 65.0639004 72 66.2240664 75.435 66.2240664 77.6395 66.2240664 82.282 66.2240664 83.0395 66.2240664 84 66.2240664 84 65.0639004 84 58.7551867 91.3185 58.7551867 91.5 58.7551867 91.5 54.8902905 91.5 51.3341079 91.5 46.8049793"></polygon>
            </g>
        </g>
    </g>
</svg>