<?xml version="1.0" encoding="UTF-8"?>
<svg width="104px" height="120px" viewBox="0 0 104 120" version="1.1" xmlns="http://www.w3.org/2000/svg" xmlns:xlink="http://www.w3.org/1999/xlink">
    <!-- Generator: Sketch 53 (72520) - https://sketchapp.com -->
    <title>vueschool_logo_multicolor_negative</title>
    <desc>Created with Sketch.</desc>
    <defs>
        <linearGradient x1="53.061638%" y1="26.376715%" x2="56.3003402%" y2="65.8991162%" id="linearGradient-1">
            <stop stop-color="#131057" offset="0%"></stop>
            <stop stop-color="#4F48AD" offset="100%"></stop>
        </linearGradient>
        <linearGradient x1="25.0968064%" y1="-2.23191728%" x2="34.8892736%" y2="78.731301%" id="linearGradient-2">
            <stop stop-color="#131057" offset="0%"></stop>
            <stop stop-color="#4F48AD" offset="100%"></stop>
        </linearGradient>
        <linearGradient x1="53.2670646%" y1="68.9919838%" x2="47.6988672%" y2="28.8117074%" id="linearGradient-3">
            <stop stop-color="#EE6D93" offset="0%"></stop>
            <stop stop-color="#F7C6B8" offset="100%"></stop>
        </linearGradient>
        <linearGradient x1="49.3598201%" y1="98.4221404%" x2="47.9314699%" y2="-0.0148983824%" id="linearGradient-4">
            <stop stop-color="#3CAC96" offset="0%"></stop>
            <stop stop-color="#5FCEB8" offset="100%"></stop>
        </linearGradient>
        <linearGradient x1="51.2398503%" y1="-18.6581518%" x2="22.690008%" y2="65.0730039%" id="linearGradient-5">
            <stop stop-color="#80C3FF" offset="0%"></stop>
            <stop stop-color="#349BF7" offset="45.5382%"></stop>
            <stop stop-color="#714DD6" offset="100%"></stop>
        </linearGradient>
    </defs>
    <g id="Welcome" stroke="none" stroke-width="1" fill="none" fill-rule="evenodd">
        <g id="Desktop-HD" transform="translate(-775.000000, -2861.000000)" fill-rule="nonzero">
            <g id="vueschool_logo_multicolor_negative" transform="translate(775.000000, 2861.000000)">
                <path d="M31.0168279,74.4476571 C22.9607459,34.6150286 30.5937295,8.47642286 30.5937295,8.47642286 C30.5937295,8.47642286 28.5517377,24.3879429 44.6033115,50.0343429 C44.3988197,81.8281714 50.6575082,98.4130286 50.6575082,98.4130286 L51.9436721,97.4667429 L50.6575082,98.5872 C50.6575082,98.5872 41.1400328,90.8184 31.0168279,74.4476571 Z" id="Path" fill="url(#linearGradient-1)"></path>
                <path d="M68.9586639,68.8081714 C72.8092377,72.6881143 76.4017869,75.3726857 78.9983852,76.6493143 C78.9830656,76.6416 78.9677459,76.6338857 78.9524262,76.626 C78.9524262,76.626 81.8676393,77.6717143 82.3821393,76.9746857 C85.9361311,73.212 86.8047049,66.2004 84.4361803,53.022 C70.888082,45.2861143 69.177959,33.2264571 69.177959,33.2264571 C69.177959,33.2264571 66.7376557,49.9690286 68.9586639,68.8081714 Z" id="Path" fill="url(#linearGradient-2)"></path>
                <path d="M30.5933852,8.47642286 C30.5933852,8.47642286 19.4468607,46.6472571 38.3101967,101.027486 C38.8245246,102.596057 38.3101967,104.339143 36.9383115,105.384857 L17.0460615,119.328514 C15.1597279,120.722914 12.4159746,119.851371 11.5585549,117.5856 C6.24252541,103.118914 -8.33367787,55.1876571 6.41400246,2.72465143 C7.09994508,0.633109714 9.32925,-0.586961143 11.3870607,0.284518286 L30.5933852,8.47642286 Z" id="Path" fill="url(#linearGradient-3)"></path>
                <path d="M68.6632869,85.1665714 L50.6573361,98.4130286 C50.6573361,98.4130286 41.0541393,72.9658286 46.0271803,24.6858857 C46.3702377,21.8972571 49.2854508,20.5028571 51.6861639,21.8972571 L69.1776148,33.2264571 C69.1776148,33.2264571 65.7479016,56.7564 70.7209426,79.4148 C71.2354426,81.6805714 70.3780574,83.9465143 68.6632869,85.1665714 Z" id="Path" fill="url(#linearGradient-4)"></path>
                <path d="M101.931074,55.7105143 L85.2970082,44.73 C84.2681803,44.0328 82.7248525,45.0785143 83.0677377,46.2985714 C87.0119508,63.9024 86.4974508,72.6173143 82.3817951,76.9746857 C81.8672951,77.6718857 78.952082,76.626 78.952082,76.626 C81.6958525,78.0204 82.3817951,77.3232 82.3817951,77.3232 C85.1255656,75.2316 95.4147049,67.7369143 101.931074,63.2052 C104.503402,61.2879429 104.503402,57.4534286 101.931074,55.7105143 Z" id="Path" fill="url(#linearGradient-5)"></path>
            </g>
        </g>
    </g>
</svg>