<?xml version="1.0" encoding="UTF-8"?>
<svg width="100px" height="100px" viewBox="0 0 100 100" version="1.1" xmlns="http://www.w3.org/2000/svg" xmlns:xlink="http://www.w3.org/1999/xlink">
    <!-- Generator: Sketch 53 (72520) - https://sketchapp.com -->
    <title>logo</title>
    <desc>Created with Sketch.</desc>
    <g id="Welcome" stroke="none" stroke-width="1" fill="none" fill-rule="evenodd">
        <g id="Desktop-HD" transform="translate(-143.000000, -4343.000000)" fill="#F23071" fill-rule="nonzero">
            <g id="logo" transform="translate(143.000000, 4343.000000)">
                <path d="M71.4,100 L31.7,100 C30.8,100 30,99.4 29.8,98.6 L0.4,2.6 C-6.66133815e-16,1.3 1,0 2.4,0 L97.7,0 C98.8,0 99.7,0.9 99.7,2 L99.7,18 C99.7,19.1 98.8,20 97.7,20 L31.4,20 C30.1,20 29.1,21.3 29.5,22.6 L34.4,38.6 C34.7,39.4 35.4,40 36.3,40 L54.3,40 C55.2,40 56,40.6 56.2,41.4 L73.3,97.4 C73.7,98.7 72.7,100 71.4,100 Z M77.5,42.6 L82.4,58.6 C82.7,59.4 83.4,60 84.3,60 L97.7,60 C98.8,60 99.7,59.1 99.7,58 L99.7,42 C99.7,40.9 98.8,40 97.7,40 L79.4,40 C78,40 77.1,41.3 77.5,42.6 Z" id="Shape"></path>
            </g>
        </g>
    </g>
</svg>