<?xml version="1.0" encoding="UTF-8"?>
<svg width="100px" height="105px" viewBox="0 0 100 105" version="1.1" xmlns="http://www.w3.org/2000/svg" xmlns:xlink="http://www.w3.org/1999/xlink">
    <!-- Generator: Sketch 53 (72520) - https://sketchapp.com -->
    <title>logo</title>
    <desc>Created with Sketch.</desc>
    <g id="Welcome" stroke="none" stroke-width="1" fill="none" fill-rule="evenodd">
        <g id="Desktop-HD" transform="translate(-642.000000, -4343.000000)" fill="#230CEA" fill-rule="nonzero">
            <g id="logo" transform="translate(642.000000, 4343.000000)">
                <path d="M82.6383333,46.3916667 C81.6002698,46.0397655 80.5538532,45.7130035 79.5,45.4116667 C79.6755928,44.7094963 79.8367379,44.0037918 79.9833333,43.295 C82.365,31.8916667 80.8066667,22.7016667 75.4966667,19.675 C71.1016667,17.175 64.2916667,19.0883333 57.1033333,24.3116667 L57.29,29.395 C64.1566667,23.7516667 70.4733333,21.5666667 73.4133333,23.245 C76.68,25.1066667 77.9533333,32.6116667 75.8983333,42.465 C75.765,43.105 75.6183333,43.745 75.4616667,44.38 C71.4116667,43.4566667 67.0183333,42.7716667 62.4133333,42.345 C60.8679582,40.1664356 59.2406824,38.047141 57.535,35.9916667 L57.6283333,38.585 C59.1036548,40.2470903 59.4325494,42.6342074 58.4616667,44.6333333 C58.6666667,45.135 58.8116667,45.66 58.9066667,46.195 C59.3083333,46.2183333 59.7066667,46.2483333 60.1033333,46.2766667 C61.7591239,48.693101 63.3279057,51.1680182 64.8066667,53.6966667 C66.2931625,56.2288333 67.6961402,58.8091115 69.0133333,61.4333333 C67.7106143,64.0858141 66.3113462,66.6897758 64.8183333,69.24 C63.3394599,71.7788263 61.7786395,74.269024 60.1383333,76.7066667 C59.7607604,76.7341797 59.3829701,76.758625 59.005,76.78 L59.2333333,85.0416667 C60.3183333,83.6416667 61.3916667,82.1766667 62.46,80.655 C67.1816667,80.2383333 71.6333333,79.565 75.6766667,78.6433333 C75.8766667,79.4383333 76.05,80.2166667 76.2083333,80.9766667 C77.1833333,85.8483333 77.3233333,90.26 76.675,93.7016667 C76.0916667,96.7966667 74.925,98.8616667 73.4766667,99.685 C70.81,101.213333 65.5066667,99.6916667 59.5133333,95.3216667 L59.6533333,100.405 C65.8916667,104.298333 71.6566667,105.48 75.5666667,103.243333 C80.8,100.25 82.505,91.1883333 80.2933333,80.165 C80.1174097,79.30147 79.9229202,78.4418264 79.71,77.5866667 C80.3266667,77.4083333 80.935,77.22 81.525,77.0283333 C92.7116667,73.3666667 99.9933333,67.445 99.9933333,61.3866667 C99.9883333,55.5933333 93.1766667,49.9783333 82.6383333,46.3916667 L82.6383333,46.3916667 Z M68.58,51.645 C67.626083,50.0160309 66.6352717,48.4089494 65.6083333,46.825 C68.725,47.2116667 71.7083333,47.73 74.5083333,48.3633333 C73.6085123,51.1819982 72.5666243,53.9533201 71.3866667,56.6666667 C70.4864875,54.9732494 69.5507243,53.2989888 68.58,51.645 L68.58,51.645 Z M65.5966667,76.2166667 C67.6794096,72.9624067 69.6228317,69.6210553 71.4216667,66.2016667 C72.6618739,68.9691055 73.7561532,71.7996561 74.7,74.6816667 C71.8766667,75.3216667 68.8183333,75.835 65.5966667,76.215 L65.5966667,76.2166667 Z M80.385,73.1366667 C79.8533333,73.31 79.305,73.4833333 78.745,73.645 C77.5066667,69.7816667 75.845,65.6716667 73.8016667,61.4283333 C75.7516667,57.2833333 77.35,53.23 78.5516667,49.39 C79.55,49.6783333 80.5183333,49.9783333 81.4516667,50.295 C90.485,53.3683333 95.9933333,57.905 95.9933333,61.405 C95.9933333,65.135 90.0433333,69.9716667 80.385,73.1383333 L80.385,73.1366667 Z M40.4716667,95.5733333 L40.3383333,100.606667 C34.0883333,104.336667 28.2566667,105.446667 24.3716667,103.235 C19.2883333,100.335 17.695,91.89 19.7383333,81.255 C19.9616667,80.1 20.2183333,78.9516667 20.505,77.8083333 C19.6181458,77.5599918 18.7378523,77.2887903 17.865,76.995 C7.09166667,73.35 0,67.3466667 0,61.3616667 C0,55.57 6.6,49.9866667 16.9466667,46.425 C18.1033333,46.025 19.3133333,45.6516667 20.5633333,45.2983333 C20.2954549,44.2383338 20.053715,43.1718996 19.8383333,42.1 C17.695,31.275 19.2016667,22.6266667 24.2966667,19.7116667 C28.7233333,17.1766667 35.605,19.0283333 42.89,24.2033333 L42.7033333,29.2533333 C35.77,23.6833333 29.3966667,21.5583333 26.3866667,23.2783333 C23.315,25.0333333 22.1,32.0316667 23.9333333,41.3033333 C24.1333333,42.2966667 24.355,43.29 24.605,44.2766667 C28.6483333,43.37 33.0466667,42.695 37.645,42.2733333 C39.1674476,40.140639 40.7708398,38.0669037 42.4516667,36.0566667 L42.3583333,38.5616667 C40.9252347,40.2280111 40.6157045,42.5851526 41.57,44.565 C41.365,45.0683333 41.22,45.5933333 41.1266667,46.1366667 C40.7283333,46.1583333 40.3383333,46.1866667 39.9466667,46.2166667 C36.5996044,51.0620394 33.6270896,56.1557096 31.055,61.4533333 C32.3450323,64.1004151 33.7366209,66.696787 35.2266667,69.2366667 C36.7206524,71.7924737 38.3123844,74.289875 39.9983333,76.7233333 C40.3266667,76.74 40.6533333,76.7633333 40.9866667,76.7816667 L40.7633333,84.7433333 C39.7166487,83.4167682 38.6997284,82.0669871 37.7133333,80.695 C32.9766667,80.32 28.5483333,79.6916667 24.5466667,78.8133333 C24.2804209,79.8750146 24.0431109,80.9437433 23.835,82.0183333 C22.0883333,91.11 23.3683333,97.895 26.4516667,99.65 C27.9016667,100.475 30.295,100.446667 33.3033333,99.395 C35.5416667,98.6166667 37.9716667,97.3233333 40.4716667,95.5733333 L40.4716667,95.5733333 Z M31.4433333,71.3166667 C30.4814851,69.6733184 29.5579031,68.0078701 28.6733333,66.3216667 C27.4795144,69.108911 26.422697,71.9528623 25.5066667,74.8433333 C28.2933333,75.4433333 31.3083333,75.9233333 34.51,76.2766667 C33.448008,74.6482552 32.4254878,72.99444 31.4433333,71.3166667 L31.4433333,71.3166667 Z M34.4216667,46.7616667 C31.3266667,47.1433333 28.3533333,47.645 25.5666667,48.2683333 C26.4611073,51.1029153 27.495714,53.8913471 28.6666667,56.6233333 C29.55,54.9366667 30.4666667,53.2733333 31.425,51.6283333 C32.3880468,49.9843124 33.3871778,48.3616969 34.4216667,46.7616667 L34.4216667,46.7616667 Z M21.4533333,73.84 C22.6866667,69.8616667 24.315,65.6866667 26.2733333,61.4733333 C24.34,57.315 22.7333333,53.2116667 21.5116667,49.28 C20.3783333,49.5966667 19.2566667,49.9433333 18.1466667,50.3233333 C9.30166667,53.3733333 3.99666667,57.8583333 3.99666667,61.3733333 C3.99666667,63.025 5.21833333,65.0633333 7.64333333,67.1133333 C10.3433333,69.3933333 14.2733333,71.4833333 19.04,73.095 C19.84,73.36 20.64,73.6083333 21.4533333,73.84 L21.4533333,73.84 Z M47.6966667,70.9383333 C45.1937645,69.9017867 43.5622026,67.4590491 43.5633333,64.75 C43.5615406,61.8632243 45.4112017,59.300708 48.1516667,58.3933333 L48.18,57.5983333 L47.0716667,57.5983333 C46.671371,57.5965023 46.3475785,57.2719655 46.3466667,56.8716667 L46.3466667,56.0716667 C46.3466667,55.6716667 46.6733333,55.3433333 47.0716667,55.3433333 L47.4883333,55.3433333 L47.4883333,49.8266667 C47.4883333,48.9466667 47.905,48.1633333 48.545,47.6566667 L48.635,45.3516667 L48.1466667,45.3516667 C47.7853804,45.3516667 47.4925,45.0587863 47.4925,44.6975 C47.4925,44.3362137 47.7853804,44.0433333 48.1466667,44.0433333 L48.68,44.0433333 L50.235,0 L51.7566667,44.05 L52.33,44.05 C52.690826,44.05 52.9833333,44.3425073 52.9833333,44.7033333 C52.9833333,45.0641593 52.690826,45.3566666 52.33,45.3566667 L51.8016667,45.3566667 L51.885,47.6233333 C52.5765281,48.1446003 52.9827171,48.9606821 52.9816667,49.8266667 L52.9816667,55.35 L53.3983333,55.35 C53.7983333,55.35 54.1233333,55.6766667 54.1233333,56.0766667 L54.1233333,56.8766667 C54.1233333,57.2766667 53.7966667,57.6033333 53.3983333,57.6033333 L52.2516667,57.6033333 L52.2783333,58.3816667 C55.0387638,59.2753195 56.9081742,61.8468527 56.9066667,64.7483333 C56.9102329,67.4738377 55.2600304,69.9290331 52.735,70.955 L52.79,72.4766667 L53.3983333,72.4766667 C53.7983333,72.4766667 54.1233333,72.8033333 54.1233333,73.2033333 L54.1233333,74.0033333 C54.1233333,74.4033333 53.7966667,74.7316667 53.3983333,74.7316667 L52.875,74.7316667 L53.545,100.078333 C52.4534805,99.8750108 51.3452886,99.7745704 50.235,99.7783333 C49.0316667,99.7783333 47.89,99.8866667 46.8716667,100.078333 L47.555,74.7316667 L47.0716667,74.7316667 C46.6707216,74.7298317 46.3466625,74.4042826 46.3466667,74.0033333 L46.3466667,73.2033333 C46.3466667,72.8033333 46.6733333,72.4766667 47.0716667,72.4766667 L47.64,72.4766667 L47.6966667,70.9383333 L47.6966667,70.9383333 Z" id="Shape"></path>
            </g>
        </g>
    </g>
</svg>