<?xml version="1.0" encoding="UTF-8"?>
<svg width="105px" height="120px" viewBox="0 0 105 120" version="1.1" xmlns="http://www.w3.org/2000/svg" xmlns:xlink="http://www.w3.org/1999/xlink">
    <!-- Generator: Sketch 53 (72520) - https://sketchapp.com -->
    <title>logo</title>
    <desc>Created with Sketch.</desc>
    <g id="Welcome" stroke="none" stroke-width="1" fill="none" fill-rule="evenodd">
        <g id="Desktop-HD" transform="translate(-1074.000000, -3120.000000)" fill-rule="nonzero">
            <g id="logo" transform="translate(1073.000000, 3120.000000)">
                <g id="Page-1" transform="translate(1.723817, 0.000000)">
                    <polygon id="Fill-1" fill="#14315D" points="51.6950668 0.125622406 2.8170995e-05 30.1818258 2.8170995e-05 89.8400975 51.6950668 119.896301 103.390106 89.8400975 103.390106 30.1818258"></polygon>
                    <polygon id="Fill-2" fill="#F74D7B" points="25.8583371 74.9192802 25.8583371 45.1025866 13.0401129 37.7062052 13.0401129 82.3156616 51.6950808 104.790125 51.6950808 89.9410902"></polygon>
                    <polygon id="Fill-3" fill="#26ABE8" points="77.5318389 74.9192802 77.5318389 45.1025866 90.3500631 37.7062052 90.3500631 82.3156616 51.6950953 104.790125 51.6950953 89.9410902"></polygon>
                    <polygon id="Fill-4" fill="#FFFFFF" points="77.5318389 45.1025584 90.3500631 37.7061766 51.6950953 15.2317132 13.040127 37.7061766 25.8583511 45.1025584 35.3787379 39.5672548 61.2125241 54.5873679 74.030748 47.1909865 48.1485081 32.1427372 51.6950953 30.0807482"></polygon>
                </g>
            </g>
        </g>
    </g>
</svg>