<?xml version="1.0" encoding="UTF-8"?>
<svg width="140px" height="18px" viewBox="0 0 140 18" version="1.1" xmlns="http://www.w3.org/2000/svg" xmlns:xlink="http://www.w3.org/1999/xlink">
    <!-- Generator: Sketch 53 (72520) - https://sketchapp.com -->
    <title>5a9e9cc59cbfbc000183b086_thisdot-publication</title>
    <desc>Created with Sketch.</desc>
    <g id="Welcome" stroke="none" stroke-width="1" fill="none" fill-rule="evenodd">
        <g id="Desktop-HD" transform="translate(-436.000000, -3370.000000)" fill-rule="nonzero">
            <g id="5a9e9cc59cbfbc000183b086_thisdot-publication" transform="translate(436.000000, 3370.000000)">
                <polygon id="Path" fill="#626D8E" points="4.47 3.71 0 3.71 0 0.795 12.385 0.795 12.385 3.71 7.915 3.71 7.915 17.535 4.47 17.535"></polygon>
                <polygon id="Path" fill="#626D8E" points="20 0.795 23.455 0.795 23.455 8.25 29.455 8.25 29.455 0.795 32.895 0.795 32.895 17.535 29.45 17.535 29.45 11.175 23.45 11.175 23.45 17.535 20 17.535"></polygon>
                <polygon id="Path" fill="#626D8E" points="45.29 0.795 45.29 17.535 41.85 17.535 41.85 0.795"></polygon>
                <path d="M53.42,13.08 L56.92,13.08 C57.04,14.275 57.875,14.85 59.05,14.85 C60.225,14.85 61,14.155 61,13.08 C61,12.005 60.33,11.38 58.055,10.45 C54.72,9.075 53.555,7.5 53.555,5.04 C53.555,2.29 55.555,0.495 58.79,0.495 C61.75,0.5 64,2.27 64,5.185 L60.5,5.185 C60.5255006,4.70808116 60.3418341,4.24373899 59.9969925,3.91330578 C59.6521509,3.58287257 59.1803971,3.4191797 58.705,3.465 C57.58,3.465 57.005,4.16 57.005,4.995 C57.005,5.995 57.7,6.585 60.04,7.59 C63.385,9.025 64.46,10.53 64.46,12.875 C64.46,15.825 62.355,17.81 58.985,17.81 C55.615,17.81 53.61,15.76 53.42,13.08 Z" id="Path" fill="#626D8E"></path>
                <path d="M81.305,17.535 L75.715,17.535 L75.715,0.795 L81.31,0.795 C86.735,0.795 90.395,3.855 90.395,9.165 C90.395,14.475 86.735,17.535 81.305,17.535 Z M81.33,3.715 L79.155,3.715 L79.155,14.61 L81.33,14.61 C84.465,14.61 86.9,12.795 86.9,9.185 C86.9,5.575 84.465,3.71 81.33,3.71 L81.33,3.715 Z" id="Shape" fill="#626D8E"></path>
                <polygon id="Path" fill="#626D8E" points="132.055 3.71 127.58 3.71 127.58 0.795 139.965 0.795 139.965 3.71 135.5 3.71 135.5 17.535 132.06 17.535"></polygon>
                <circle id="Oval" fill="#F46663" cx="109.015" cy="9.015" r="5.205"></circle>
                <polygon id="Path" fill="#9FACCC" points="117.05 0.645 112.765 0.645 119.19 9.015 112.765 17.38 117.05 17.38 123.48 9.015"></polygon>
                <polygon id="Path" fill="#9FACCC" points="100.98 0.645 105.265 0.645 98.835 9.015 105.265 17.38 100.98 17.38 94.555 9.015"></polygon>
            </g>
        </g>
    </g>
</svg>