<?xml version="1.0" encoding="UTF-8"?>
<svg width="160px" height="25px" viewBox="0 0 160 25" version="1.1" xmlns="http://www.w3.org/2000/svg" xmlns:xlink="http://www.w3.org/1999/xlink">
    <!-- Generator: Sketch 53 (72520) - https://sketchapp.com -->
    <title>logo-web</title>
    <desc>Created with Sketch.</desc>
    <g id="Welcome" stroke="none" stroke-width="1" fill="none" fill-rule="evenodd">
        <g id="Desktop-HD" transform="translate(-401.000000, -2288.000000)" fill-rule="nonzero">
            <g id="logo-web" transform="translate(401.000000, 2288.000000)">
                <g id="Group">
                    <ellipse id="Oval" fill="#633A84" cx="3.69230769" cy="4.0625" rx="3.07692308" ry="3.125"></ellipse>
                    <ellipse id="Oval" fill="#EE558E" cx="12.1538462" cy="4.0625" rx="3.07692308" ry="3.125"></ellipse>
                    <ellipse id="Oval" fill="#F49521" cx="20.3076923" cy="4.0625" rx="3.07692308" ry="3.125"></ellipse>
                    <ellipse id="Oval" fill="#FAD00A" cx="3.69230769" cy="12.5" rx="3.07692308" ry="3.125"></ellipse>
                    <ellipse id="Oval" fill="#3FA060" cx="12.1538462" cy="12.5" rx="3.07692308" ry="3.125"></ellipse>
                    <ellipse id="Oval" fill="#84B54B" cx="20.3076923" cy="12.5" rx="3.07692308" ry="3.125"></ellipse>
                    <ellipse id="Oval" fill="#1AC0E2" cx="3.69230769" cy="20.9375" rx="3.07692308" ry="3.125"></ellipse>
                    <ellipse id="Oval" fill="#80D2EF" cx="12.1538462" cy="20.9375" rx="3.07692308" ry="3.125"></ellipse>
                    <ellipse id="Oval" fill="#A29098" cx="20.3076923" cy="20.9375" rx="3.07692308" ry="3.125"></ellipse>
                </g>
                <g id="Group" transform="translate(30.769231, 0.000000)" fill="#0E2032">
                    <path d="M3.84615385,15.46875 C3.84615385,19.0625 6.15384615,21.5625 10.1538462,21.5625 C14.1538462,21.5625 16.4615385,19.0625 16.4615385,15.46875 L16.4615385,0.46875 L19.2307692,0.46875 L19.2307692,15.625 C19.2307692,20.625 15.8461538,24.21875 10,24.21875 C4.15384615,24.21875 0.769230769,20.625 0.769230769,15.625 L0.769230769,0.46875 L3.84615385,0.46875 L3.84615385,15.46875 Z" id="Path"></path>
                    <polygon id="Path" points="23.8461538 23.90625 23.8461538 0.46875 26.7692308 0.46875 26.7692308 23.90625"></polygon>
                    <polygon id="Path" points="37.8461538 23.90625 37.8461538 0.46875 53.5384615 0.46875 53.5384615 5.3125 43.6923077 5.3125 43.6923077 10.625 52.6153846 10.625 52.6153846 15.15625 43.6923077 15.15625 43.6923077 23.90625"></polygon>
                    <path d="M54.6153846,18.59375 C54.6153846,15.15625 57.2307692,13.28125 61.8461538,13.125 L66,12.8125 L66,11.875 C66,10.46875 64.9230769,9.53125 63.3846154,9.53125 C61.8461538,9.53125 60.7692308,10.3125 60.6153846,11.40625 L55.5384615,11.40625 C55.6923077,7.8125 58.7692308,5.3125 63.6923077,5.3125 C68.4615385,5.46875 71.5384615,7.8125 71.5384615,11.5625 L71.5384615,23.90625 L66.1538462,23.90625 L66.1538462,21.25 L66,21.25 C65.0769231,23.125 62.9230769,24.0625 60.7692308,24.0625 C57.3846154,24.21875 54.6153846,21.875 54.6153846,18.59375 Z M66.1538462,17.34375 L66.1538462,16.09375 L62.9230769,16.25 C61.2307692,16.40625 60.4615385,17.03125 60.4615385,18.125 C60.4615385,19.21875 61.3846154,20 62.9230769,20 C64.6153846,20.15625 66.1538462,19.0625 66.1538462,17.34375 Z" id="Shape"></path>
                    <path d="M86.1538462,12.8125 C86,10.9375 84.7692308,9.6875 83.0769231,9.6875 C80.9230769,9.6875 79.6923077,11.5625 79.6923077,14.6875 C79.6923077,17.96875 80.9230769,19.6875 83.0769231,19.6875 C84.7692308,19.6875 86,18.59375 86.1538462,16.71875 L91.3846154,16.71875 C91.2307692,21.25 88,24.0625 83.0769231,24.0625 C77.5384615,24.0625 74,20.46875 74,14.6875 C74,8.90625 77.3846154,5.3125 82.9230769,5.3125 C87.8461538,5.3125 91.0769231,8.28125 91.2307692,12.8125 L86.1538462,12.8125 Z" id="Path"></path>
                    <path d="M110.461538,18.125 C109.846154,21.875 106.615385,24.21875 102,24.21875 C96.3076923,24.21875 92.9230769,20.625 92.9230769,14.84375 C92.9230769,9.0625 96.3076923,5.3125 101.692308,5.3125 C107.076923,5.3125 110.461538,8.90625 110.461538,14.375 L110.461538,15.9375 L98.4615385,15.9375 L98.4615385,16.25 C98.4615385,18.4375 99.8461538,20 102,20 C103.538462,20 104.769231,19.21875 105.230769,17.96875 L110.461538,18.125 L110.461538,18.125 Z M98.6153846,12.8125 L105.230769,12.8125 C105.076923,10.78125 103.846154,9.53125 102,9.53125 C100,9.53125 98.6153846,10.78125 98.6153846,12.8125 Z" id="Shape"></path>
                    <path d="M120.307692,5.46875 C125.076923,5.46875 128.153846,7.8125 128.153846,11.5625 L122.923077,11.5625 C122.923077,10.3125 121.846154,9.375 120.153846,9.375 C118.769231,9.375 117.846154,10 117.846154,10.9375 C117.846154,11.71875 118.461538,12.1875 119.846154,12.5 L123.538462,13.28125 C127.076923,14.0625 128.615385,15.46875 128.615385,18.28125 C128.615385,22.03125 125.230769,24.375 120.307692,24.375 C115.230769,24.375 112.153846,22.03125 112,18.28125 L117.538462,18.28125 C117.692308,19.6875 118.769231,20.46875 120.461538,20.46875 C122,20.46875 123.076923,19.84375 123.076923,18.90625 C123.076923,18.125 122.461538,17.8125 121.076923,17.5 L117.846154,16.5625 C114.307692,15.78125 112.461538,13.90625 112.461538,11.25 C112.461538,7.65625 115.538462,5.46875 120.307692,5.46875 Z" id="Path"></path>
                </g>
            </g>
        </g>
    </g>
</svg>