<?xml version="1.0" encoding="UTF-8"?>
<svg width="77px" height="120px" viewBox="0 0 77 120" version="1.1" xmlns="http://www.w3.org/2000/svg" xmlns:xlink="http://www.w3.org/1999/xlink">
    <!-- Generator: Sketch 53 (72520) - https://sketchapp.com -->
    <title>Alfa-Bank_corporate_logo_en</title>
    <desc>Created with Sketch.</desc>
    <g id="Welcome" stroke="none" stroke-width="1" fill="none" fill-rule="evenodd">
        <g id="Desktop-HD" transform="translate(-712.000000, -733.000000)" fill="#EE3424" fill-rule="nonzero">
            <g id="Alfa-Bank_corporate_logo_en" transform="translate(712.000000, 733.000000)">
                <path d="M38.8706744,0.586567164 C46.9601512,0.586567164 49.5020465,6.38238806 51.6267093,12.1773134 C52.5292209,14.6328358 73.5403721,72.1808955 74.1662209,73.9074985 C74.3426047,74.3848119 74.2271047,75.1809313 73.4839651,75.4639164 C72.7399302,75.7433194 61.8220465,79.9925731 61.2194767,80.2200358 C60.6160116,80.4457075 59.9364419,80.1098866 59.7143953,79.5098866 C59.4905581,78.9134687 54.9645698,66.3671642 54.4542209,64.9647761 C52.9491395,64.9647761 24.8271279,64.9647761 23.3247326,64.9647761 C22.8116977,66.3671642 18.2391512,78.9385433 18.0287442,79.5098866 C17.8210233,80.0874985 17.1638372,80.4716776 16.5263488,80.2200358 C15.8861744,79.966603 4.91904651,75.7164537 4.27081395,75.4639164 C3.64406977,75.2239164 3.35487209,74.5092896 3.57960465,73.9074985 C4.34960465,71.7492537 25.0411163,15.1289552 26.100314,12.1773134 C28.1488721,6.47462687 30.7838837,0.586567164 38.8706744,0.586567164 Z M1.91425581,103.550185 C1.26154651,103.550185 0.735081395,104.093767 0.735081395,104.760931 L0.735081395,118.206304 C0.735081395,118.877946 1.26244186,119.413469 1.91425581,119.413469 L75.8279884,119.413469 C76.4753256,119.413469 76.997314,118.877946 76.997314,118.206304 L76.997314,104.760931 C76.997314,104.094663 76.4753256,103.550185 75.8279884,103.550185 L1.91425581,103.550185 L1.91425581,103.550185 Z M38.8088953,19.3773134 L28.2804884,50.9892537 L49.5020465,50.9892537 L38.9378256,19.3773134 L38.8088953,19.3773134 L38.8088953,19.3773134 Z" id="path3364"></path>
            </g>
        </g>
    </g>
</svg>