<?xml version="1.0" encoding="UTF-8"?>
<svg width="120px" height="120px" viewBox="0 0 120 120" version="1.1" xmlns="http://www.w3.org/2000/svg" xmlns:xlink="http://www.w3.org/1999/xlink">
    <!-- Generator: Sketch 53 (72520) - https://sketchapp.com -->
    <title>KDpgvguMpGfqaHPjicRK</title>
    <desc>Created with Sketch.</desc>
    <defs>
        <linearGradient x1="62.1023273%" y1="0%" x2="108.19718%" y2="37.8635764%" id="linearGradient-1">
            <stop stop-color="#4285EB" offset="0%"></stop>
            <stop stop-color="#2EC7FF" offset="100%"></stop>
        </linearGradient>
        <linearGradient x1="69.644116%" y1="0%" x2="54.0428975%" y2="108.456714%" id="linearGradient-2">
            <stop stop-color="#29CDFF" offset="0%"></stop>
            <stop stop-color="#148EFF" offset="37.8600687%"></stop>
            <stop stop-color="#0A60FF" offset="100%"></stop>
        </linearGradient>
        <linearGradient x1="69.6908165%" y1="-12.9743587%" x2="16.7228981%" y2="117.391248%" id="linearGradient-3">
            <stop stop-color="#FA816E" offset="0%"></stop>
            <stop stop-color="#F74A5C" offset="41.472606%"></stop>
            <stop stop-color="#F51D2C" offset="100%"></stop>
        </linearGradient>
        <linearGradient x1="68.1279872%" y1="-35.6905737%" x2="30.4400914%" y2="114.942679%" id="linearGradient-4">
            <stop stop-color="#FA8E7D" offset="0%"></stop>
            <stop stop-color="#F74A5C" offset="51.2635191%"></stop>
            <stop stop-color="#F51D2C" offset="100%"></stop>
        </linearGradient>
    </defs>
    <g id="Welcome" stroke="none" stroke-width="1" fill="none" fill-rule="evenodd">
        <g id="Desktop-HD" transform="translate(-136.000000, -176.000000)" fill-rule="nonzero">
            <g id="Ant.Design" transform="translate(76.000000, 116.000000)">
                <g id="KDpgvguMpGfqaHPjicRK" transform="translate(60.000000, 60.000000)">
                    <g id="Group-25">
                        <g id="2">
                            <path d="M54.9528518,2.50591694 L2.50797926,54.9076637 C-0.311544363,57.7248688 -0.311544363,62.275131 2.50797926,65.0923362 L54.9528518,117.494083 C57.7723754,120.311288 62.3263824,120.311288 65.145906,117.494083 L87.1352922,95.5227792 C89.6603814,92.9997666 89.6603814,88.9091544 87.1352922,86.3861418 C84.610203,83.8631286 80.5162242,83.8631286 77.991135,86.3861418 L61.321158,103.042411 C60.619383,103.743609 59.5542965,103.743609 58.8525215,103.042411 L16.9715448,61.1958732 C16.2697699,60.4946754 16.2697699,59.430465 16.9715448,58.7292671 L58.8525215,16.8827294 C59.5542965,16.1815315 60.619383,16.1815315 61.321158,16.8827294 L77.991135,33.5389988 C80.5162242,36.0620117 84.610203,36.0620117 87.1352922,33.5389988 C89.6603814,31.015986 89.6603814,26.9253739 87.1352922,24.4023611 L65.14833,2.43344755 C62.3172294,-0.322792108 57.7615571,-0.300478744 54.9528518,2.50591694 Z" id="Shape" fill="url(#linearGradient-1)"></path>
                            <path d="M54.9528518,2.50591694 L2.50797926,54.9076637 C-0.311544363,57.7248688 -0.311544363,62.275131 2.50797926,65.0923362 L54.9528518,117.494083 C57.7723754,120.311288 62.3263824,120.311288 65.145906,117.494083 L87.1352922,95.5227792 C89.6603814,92.9997666 89.6603814,88.9091544 87.1352922,86.3861418 C84.610203,83.8631286 80.5162242,83.8631286 77.991135,86.3861418 L61.321158,103.042411 C60.619383,103.743609 59.5542965,103.743609 58.8525215,103.042411 L16.9715448,61.1958732 C16.2697699,60.4946754 16.2697699,59.430465 16.9715448,58.7292671 L58.8525215,16.8827294 C60.5999184,15.3763102 63.4509852,12.3250944 67.6377912,11.6114692 C70.749351,11.0811157 74.1511314,12.2484143 77.8431324,15.1133654 C75.3747978,12.6470575 71.143197,8.42041824 65.14833,2.43344755 C62.3172294,-0.322792108 57.7615571,-0.300478744 54.9528518,2.50591694 Z" id="Shape" fill="url(#linearGradient-2)"></path>
                        </g>
                        <path d="M92.2113798,81.5127474 C94.736469,84.03576 98.8304472,84.03576 101.355536,81.5127474 L117.575986,65.3056356 C120.39551,62.4884304 120.39551,57.938168 117.576316,55.1212916 L101.214466,38.8308695 C98.6833992,36.3108515 94.5881208,36.3144855 92.061537,38.8389916 C89.5364478,41.3620044 89.5364478,45.4526164 92.061537,47.9756293 L103.112421,59.0174259 C103.814196,59.7186238 103.814196,60.7828344 103.112421,61.4840322 L92.2113798,72.3761094 C89.68629,74.899122 89.68629,78.9897342 92.2113798,81.5127474 Z" id="Shape" fill="url(#linearGradient-3)"></path>
                    </g>
                    <ellipse id="Combined-Shape" fill="url(#linearGradient-4)" cx="60.3116034" cy="60.2620086" rx="14.1601156" ry="14.1484716"></ellipse>
                </g>
            </g>
        </g>
    </g>
</svg>