<?xml version="1.0" encoding="UTF-8"?>
<svg width="107px" height="117px" viewBox="0 0 107 117" version="1.1" xmlns="http://www.w3.org/2000/svg" xmlns:xlink="http://www.w3.org/1999/xlink">
    <!-- Generator: Sketch 53 (72520) - https://sketchapp.com -->
    <title>backpack-logo-white_240c2a1f8f5613d118e97f2839a81900</title>
    <desc>Created with Sketch.</desc>
    <g id="Welcome" stroke="none" stroke-width="1" fill="none" fill-rule="evenodd">
        <g id="Desktop-HD" transform="translate(-1004.000000, -442.000000)">
            <g id="backpack-logo-white_240c2a1f8f5613d118e97f2839a81900" transform="translate(1004.000000, 440.000000)">
                <path d="M8.79069767,115.25 L97.9534884,115.25 C98.2929386,115.227648 98.6255746,115.352148 98.8661268,115.591587 C99.106679,115.831025 99.2317587,116.162121 99.2093023,116.5 L99.2093023,117.25 C99.2317587,117.587879 99.106679,117.918975 98.8661268,118.158413 C98.6255746,118.397852 98.2929386,118.522352 97.9534884,118.5 L8.79069767,118.5 C8.45124744,118.522352 8.11861147,118.397852 7.87805924,118.158413 C7.63750701,117.918975 7.51242733,117.587879 7.53488372,117.25 L7.53488372,116.5 C7.51242733,116.162121 7.63750701,115.831025 7.87805924,115.591587 C8.11861147,115.352148 8.45124744,115.227648 8.79069767,115.25 L8.79069767,115.25 Z" id="Path" fill="#005466" fill-rule="nonzero" opacity="0.2"></path>
                <path d="M15.3209302,56.5 L6.78139535,58.25 L6.02790698,58.75 L2.00930233,67.75 C1.81721661,68.1774087 1.91800267,68.679006 2.26046512,69 C2.45332216,69.018229 2.63242547,69.107366 2.7627907,69.25 L15.3209302,70.5 L16.5767442,57.5 C16.5402833,56.9634661 16.1111224,56.5362921 15.572093,56.5 L15.3209302,56.5 Z" id="Path" fill="#FD5250" fill-rule="nonzero"></path>
                <path d="M16.5767442,72.25 L2.51162791,70.75 C1.22102801,70.4460823 0.294883582,69.3193685 0.251162791,68 C0.217930113,67.7251872 0.310084859,67.4500029 0.502325581,67.25 L4.52093023,58.5 C4.84639793,57.7592153 5.49381778,57.2068531 6.27906977,57 L15.0697674,55.25 L15.0697674,55.25 C15.7372315,55.1032452 16.4359558,55.2336155 17.0047071,55.6110276 C17.5734583,55.9884398 17.9631001,56.5802876 18.0837209,57.25 L18.0837209,58 L16.5767442,72.25 Z M3.76744186,68 L14.0651163,69 L15.0697674,58.25 L7.28372093,60 L3.76744186,68 Z" id="Shape" fill="#990300" fill-rule="nonzero"></path>
                <path d="M15.3209302,70.75 L12.055814,100.5 L4.77209302,99.75 C2.76236132,99.5399287 1.302152,97.7510682 1.50697674,95.75 L3.51627907,69.25 L15.3209302,70.75 Z" id="Path" fill="#FD5250" fill-rule="nonzero"></path>
                <path d="M13.5627907,102 L4.77209302,101 C2.04533034,100.764483 -0.0365640543,98.4740949 1.1154272e-15,95.75 L2.00930233,67.75 L17.0790698,69.25 L13.5627907,102 Z M4.77209302,71 L3.01395349,95.75 C2.98266528,96.9101203 3.86210939,97.8949145 5.02325581,98 L10.8,98.5 L13.5627907,72 L4.77209302,71 Z" id="Shape" fill="#990300" fill-rule="nonzero"></path>
                <path d="M91.172093,56.5 L99.7116279,58.25 L100.465116,58.75 L104.483721,67.5 C104.675807,67.9274087 104.575021,68.429006 104.232558,68.75 C104.039701,68.768229 103.860598,68.857366 103.730233,69 L91.172093,70.25 L89.9162791,57.25 C89.9601695,56.9719846 90.1256394,56.7276476 90.3680835,56.5828546 C90.6105276,56.4380616 90.90499,56.4077167 91.172093,56.5 Z" id="Path" fill="#FD5250" fill-rule="nonzero"></path>
                <path d="M89.9162791,72.25 L88.4093023,57.75 C88.3392523,57.0862785 88.5387199,56.4222301 88.9632919,55.9057112 C89.3878639,55.3891923 90.0022917,55.063085 90.6697674,55 L91.4232558,55 L99.9627907,56.75 C100.748043,56.9568531 101.395463,57.5092153 101.72093,58.25 L105.739535,67 C106.272312,68.2431194 105.716077,69.6826348 104.483721,70.25 C104.232558,70.25 103.981395,70.5 103.730233,70.5 L89.9162791,72.25 Z M91.4232558,58.25 L92.6790698,69 L102.976744,68 L99.4604651,60 L91.4232558,58.25 Z" id="Shape" fill="#990300" fill-rule="nonzero"></path>
                <path d="M91.4232558,70.75 L94.6883721,100.5 L101.972093,99.75 C103.981825,99.5399287 105.442034,97.7510682 105.237209,95.75 L103.227907,69.25 L91.4232558,70.75 Z" id="Path" fill="#FD5250" fill-rule="nonzero"></path>
                <path d="M93.1813953,102 L89.6651163,69.25 L104.734884,67.75 L106.744186,95.75 C106.927117,98.4821957 104.950029,100.887449 102.223256,101.25 L93.1813953,102 Z M92.9302326,72 L95.6930233,98.75 L101.469767,98.25 C102.630914,98.1449145 103.510358,97.1601203 103.47907,96 L101.72093,71.25 L92.9302326,72 Z" id="Shape" fill="#990300" fill-rule="nonzero"></path>
                <path d="M53.2465116,4 C47.9754032,4 43.7023256,8.25329488 43.7023256,13.5 C43.7023256,18.7467051 47.9754032,23 53.2465116,23 C58.51762,23 62.7906977,18.7467051 62.7906977,13.5 L62.7906977,13.5 C62.7906977,8.25329488 58.51762,4 53.2465116,4 L53.2465116,4 Z M53.2465116,18.5 C50.472244,18.5 48.2232558,16.2614237 48.2232558,13.5 C48.2232558,10.7385763 50.472244,8.5 53.2465116,8.5 C56.0207792,8.5 58.2697674,10.7385763 58.2697674,13.5 C58.2697674,14.8260824 57.7405331,16.097852 56.7984899,17.0355339 C55.8564467,17.9732158 54.5787619,18.5 53.2465116,18.5 L53.2465116,18.5 Z" id="Shape" fill="#FD5250" fill-rule="nonzero"></path>
                <path d="M53.2465116,24.25 C47.1658567,24.1957142 42.2498871,19.3025037 42.1953488,13.25 C42.1953488,7.17486775 47.143123,2.25 53.2465116,2.25 C59.3499003,2.25 64.2976744,7.17486775 64.2976744,13.25 L64.2976744,13.25 C64.2431361,19.3025037 59.3271665,24.1957142 53.2465116,24.25 Z M53.2465116,5.5 C51.10667,5.47286375 49.0464961,6.30700169 47.5332768,7.81321535 C46.0200575,9.31942901 45.1820399,11.3700651 45.2093023,13.5 C45.2093023,17.918278 48.8076835,21.5 53.2465116,21.5 C57.6853398,21.5 61.2837209,17.918278 61.2837209,13.5 C61.3109834,11.3700651 60.4729657,9.31942901 58.9597464,7.81321535 C57.4465271,6.30700169 55.3863532,5.47286375 53.2465116,5.5 L53.2465116,5.5 Z M53.2465116,20 C49.6680429,19.9334051 46.7831838,17.0619017 46.7162791,13.5 C46.716279,11.1777736 47.9609343,9.03194792 49.9813953,7.87083471 C52.0018563,6.7097215 54.4911669,6.7097215 56.511628,7.87083471 C58.532089,9.03194792 59.7767443,11.1777736 59.7767442,13.5 C59.7098395,17.0619017 56.8249803,19.9334051 53.2465116,20 L53.2465116,20 Z M53.2465116,10 C52.3077165,9.97930343 51.4012052,10.3414023 50.737214,11.0023195 C50.0732228,11.6632367 49.7094397,12.5655512 49.7302326,13.5 C49.7302326,15.4329966 51.3045243,17 53.2465116,17 C55.1884989,17 56.7627907,15.4329966 56.7627907,13.5 L56.7627907,13.5 C56.7835835,12.5655512 56.4198004,11.6632367 55.7558092,11.0023195 C55.091818,10.3414023 54.1853068,9.97930343 53.2465116,10 L53.2465116,10 Z" id="Shape" fill="#990300" fill-rule="nonzero"></path>
                <path d="M88.6604651,38.25 L94.9395349,106.75 C95.1471898,109.185281 94.2215218,111.580875 92.427907,113.25 L92.427907,113.25 C90.9669408,114.523567 89.0954552,115.233214 87.1534884,115.25 L19.5906977,115.25 C17.6487309,115.233214 15.7772452,114.523567 14.3162791,113.25 L14.3162791,113.25 C12.5226643,111.580875 11.5969963,109.185281 11.8046512,106.75 L18.0837209,38.25 L88.6604651,38.25 Z" id="Path" fill="#FD5250" fill-rule="nonzero"></path>
                <path d="M87.1534884,116.75 L19.5906977,116.75 C17.1239886,116.756663 14.7563805,115.784252 13.0121474,114.048094 C11.2679143,112.311936 10.2909805,109.955289 10.2976744,107.5 L10.2976744,106.75 L16.827907,36.75 L89.9162791,36.75 L96.1953488,106.5 C96.5311673,111.58253 92.7493857,116.011086 87.655814,116.5 L86.9023256,116.5 L87.1534884,116.75 Z M19.5906977,39.75 L13.3116279,106.75 C13.1589765,108.411809 13.685775,110.064707 14.7729304,111.335024 C15.8600857,112.605341 17.4157995,113.385814 19.0883721,113.5 L87.1534884,113.5 C88.8229087,113.513456 90.427881,112.859297 91.6083782,111.684265 C92.7888753,110.509233 93.4460764,108.911692 93.4325581,107.25 L93.4325581,106.75 L87.1534884,39.75 L19.5906977,39.75 Z" id="Shape" fill="#990300" fill-rule="nonzero"></path>
                <path d="M16.827907,59.75 L19.5906977,65.75 C20.604644,68.1722051 22.9823442,69.75 25.6186047,69.75 L31.8976744,69.75 C33.3101854,70.5011129 35.0060937,70.5011129 36.4186047,69.75 L70.0744186,69.75 C71.4869296,70.5011129 73.1828379,70.5011129 74.5953488,69.75 L81.1255814,69.75 C83.7618418,69.75 86.1395421,68.1722051 87.1534884,65.75 L89.9162791,59.75 L16.827907,59.75 Z" id="Path" fill="#990300" fill-rule="nonzero" opacity="0.2"></path>
                <path d="M93.4325581,27 L89.4139535,56 C88.6112866,61.7370479 83.6798163,66.0054299 77.8604651,66 L28.8837209,66 C23.0643697,66.0054299 18.1328995,61.7370479 17.3302326,56 L13.3116279,27 C12.7927173,24.0090385 13.5155976,20.9365186 15.3147641,18.4858995 C17.1139307,16.0352804 19.8353016,14.4164346 22.855814,14 C23.3581395,14 23.8604651,13.75 24.6139535,13.75 L81.8790698,13.75 C88.1970507,13.7698138 93.3892687,18.7180713 93.6837209,25 C93.6837209,25.75 93.4325581,26.5 93.4325581,27 Z" id="Path" fill="#FD5250" fill-rule="nonzero"></path>
                <path d="M77.8604651,67.5 L28.8837209,67.5 C22.3333038,67.4833636 16.7803194,62.7001438 15.8232558,56.25 L11.8046512,27 C10.8525765,19.8252979 15.9037281,13.2333373 23.1069767,12.25 L81.8790698,12.25 C85.3511336,12.2231039 88.688837,13.5841043 91.1440312,16.0279319 C93.5992255,18.4717595 94.9665561,21.7940105 94.9395349,25.25 L94.9395349,27 L90.9209302,56.25 C89.9638666,62.7001438 84.4108822,67.4833636 77.8604651,67.5 Z M24.6139535,15.25 C19.0654183,15.25 14.5674419,19.7271525 14.5674419,25.25 L14.5674419,26.75 L18.8372093,55.75 C19.5883812,60.6803806 23.8740945,64.3063718 28.8837209,64.25 L77.8604651,64.25 C82.8700916,64.3063718 87.1558049,60.6803806 87.9069767,55.75 L91.9255814,26.75 C92.651896,21.2538967 88.8778054,16.1714135 83.3860465,15.25 L24.6139535,15.25 Z" id="Shape" fill="#990300" fill-rule="nonzero"></path>
                <path d="M24.6139535,59.75 C24.4075618,59.7744352 24.2013106,59.7033111 24.0543409,59.5570218 C23.9073712,59.4107325 23.8359162,59.2054362 23.8604651,59 L23.8604651,57.5 C23.867997,57.1083611 24.0525414,56.740981 24.3627907,56.5 C24.6139535,56.25 25.1162791,56.75 25.3674419,57 L25.3674419,58.5 C25.3919908,58.7054362 25.3205358,58.9107325 25.1735661,59.0570218 C25.0265964,59.2033111 24.8203452,59.2744352 24.6139535,59.25 L24.6139535,59.75 Z M24.1116279,55.25 C23.9052362,55.2744352 23.698985,55.2033111 23.5520153,55.0570218 C23.4050456,54.9107325 23.3335906,54.7054362 23.3581395,54.5 L23.3581395,53 C23.3581396,52.5857865 23.6954878,52.25 24.1116279,52.25 C24.527768,52.25 24.8651163,52.5857865 24.8651163,53 L24.8651163,54.5 C24.8896652,54.7054362 24.8182102,54.9107325 24.6712405,55.0570218 C24.5242708,55.2033111 24.3180196,55.2744352 24.1116279,55.25 L24.1116279,55.25 Z M23.6093023,50.75 C23.1069767,51 22.855814,50.75 22.6046512,50.25 L22.6046512,48.5 C22.6121831,48.1083611 22.7967275,47.740981 23.1069767,47.5 C23.3581395,47.25 23.8604651,47.75 24.1116279,48 L24.1116279,48 L24.1116279,50 C24.1361768,50.2054362 24.0647218,50.4107325 23.9177521,50.5570218 C23.7707824,50.7033111 23.5645313,50.7744352 23.3581395,50.75 L23.6093023,50.75 Z M23.1069767,46.25 C22.900585,46.2744352 22.6943339,46.2033111 22.5473642,46.0570218 C22.4003945,45.9107325 22.3289395,45.7054362 22.3534884,45.5 L22.3534884,44 C22.3610203,43.6083611 22.5455647,43.240981 22.855814,43 C23.1069767,42.75 23.6093023,43.25 23.8604651,43.5 L23.8604651,43.5 L23.8604651,45 C23.885014,45.2054362 23.813559,45.4107325 23.6665893,45.5570218 C23.5196196,45.7033111 23.3133685,45.7744352 23.1069767,45.75 L23.1069767,46.25 Z M22.6046512,41.75 C22.3982594,41.7744352 22.1920083,41.7033111 22.0450386,41.5570218 C21.8980689,41.4107325 21.8266139,41.2054362 21.8511628,41 L21.8511628,41 L21.8511628,39.5 C21.8586947,39.1083611 22.0432391,38.740981 22.3534884,38.5 C22.6046512,38.25 23.1069767,38.75 23.3581395,39 L23.3581395,39 L23.3581395,40.5 C23.3826884,40.7054362 23.3112335,40.9107325 23.1642637,41.0570218 C23.017294,41.2033111 22.8110429,41.2744352 22.6046512,41.25 L22.6046512,41.25 L22.6046512,41.75 Z M22.1023256,37.25 C21.8959339,37.2744352 21.6896827,37.2033111 21.542713,37.0570218 C21.3957433,36.9107325 21.3242883,36.7054362 21.3488372,36.5 L21.3488372,36.5 L21.3488372,35 C21.3563691,34.6083611 21.5409135,34.240981 21.8511628,34 C22.1023256,33.75 22.6046512,34.25 22.855814,34.5 L22.855814,36 C22.8803629,36.2054362 22.8089079,36.4107325 22.6619382,36.5570218 C22.5149684,36.7033111 22.3087173,36.7744352 22.1023256,36.75 L22.1023256,36.75 L22.1023256,37.25 Z M21.6,32.75 C21.3936083,32.7744352 21.1873571,32.7033111 21.0403874,32.5570218 C20.8934177,32.4107325 20.8219627,32.2054362 20.8465116,32 L20.8465116,32 L20.8465116,30.5 C20.8540435,30.1083611 21.0385879,29.740981 21.3488372,29.5 C21.6,29.25 22.1023256,29.75 22.3534884,30 L22.3534884,30 L22.3534884,31.5 C22.3780373,31.7054362 22.3065823,31.9107325 22.1596126,32.0570218 C22.0126429,32.2033111 21.8063917,32.2744352 21.6,32.25 L21.6,32.25 L21.6,32.75 Z M21.0976744,28.25 C20.8912827,28.2744352 20.6850316,28.2033111 20.5380618,28.0570218 C20.3910921,27.9107325 20.3196371,27.7054362 20.344186,27.5 L20.344186,27.5 L20.344186,26.25 C20.3517179,25.8583611 20.5362623,25.490981 20.8465116,25.25 C21.0976744,25 21.6,25.5 21.8511628,25.75 L21.8511628,27.5 C21.8757117,27.7054362 21.8042567,27.9107325 21.657287,28.0570218 C21.5103173,28.2033111 21.3040661,28.2744352 21.0976744,28.25 L21.0976744,28.25 Z M19.8418605,24 C19.6354687,24.0244352 19.4292176,23.9533111 19.2822479,23.8070218 C19.1352782,23.6607325 19.0638232,23.4554362 19.0883721,23.25 L19.0883721,23.25 L19.0883721,21.75 C19.0883721,21.25 19.3395349,21 19.5906977,21 C19.8418605,21 20.344186,21.25 20.344186,21.5 L20.344186,23 C20.3687349,23.2054362 20.29728,23.4107325 20.1503103,23.5570218 C20.0033405,23.7033111 19.7970894,23.7744352 19.5906977,23.75 L19.5906977,23.75 L19.8418605,24 Z" id="Shape" fill="#C72120" fill-rule="nonzero"></path>
                <path d="M82.1302326,59.75 L82.1302326,59.75 C81.9238408,59.7744352 81.7175897,59.7033111 81.57062,59.5570218 C81.4236503,59.4107325 81.3521953,59.2054362 81.3767442,59 L81.3767442,57.5 C81.3767442,57 81.8790698,56.75 82.1302326,57 C82.3813953,57.25 82.8837209,57.5 82.6325581,58 L82.6325581,59.5 C82.8837209,59.5 82.3813953,59.75 82.1302326,59.75 Z M82.6325581,55.25 L82.6325581,55.25 C82.4261664,55.2744352 82.2199153,55.2033111 82.0729456,55.0570218 C81.9259758,54.9107325 81.8545209,54.7054362 81.8790698,54.5 L81.8790698,53 C81.8790698,52.5 82.3813953,52.25 82.6325581,52.5 C82.8837209,52.75 83.3860465,53 83.1348837,53.5 L83.1348837,55 C83.3860465,55 82.8837209,55.25 82.6325581,55.25 L82.6325581,55.25 Z M83.1348837,50.75 L83.1348837,50.75 C82.928492,50.7744352 82.7222409,50.7033111 82.5752711,50.5570218 C82.4283014,50.4107325 82.3568465,50.2054362 82.3813953,50 L82.3813953,48.5 C82.3813953,48 82.8837209,47.75 83.1348837,48 C83.3860465,48.25 83.8883721,48.5 83.6372093,49 L83.6372093,50 C83.8883721,50.5 83.6372093,50.75 83.1348837,50.75 L83.1348837,50.75 Z M83.6372093,46.25 L83.6372093,46.25 C83.4308176,46.2744352 83.2245664,46.2033111 83.0775967,46.0570218 C82.930627,45.9107325 82.859172,45.7054362 82.8837209,45.5 L82.8837209,44 C82.8837209,43.5 83.3860465,43.25 83.6372093,43.5 C83.8883721,43.75 84.3906977,44 84.1395349,44.5 L84.1395349,46 C84.3906977,46 84.1395349,46.25 83.6372093,46.25 L83.6372093,46.25 Z M84.1395349,41.75 L84.1395349,41.75 C83.9331432,41.7744352 83.726892,41.7033111 83.5799223,41.5570218 C83.4329526,41.4107325 83.3614976,41.2054362 83.3860465,41 L83.3860465,39.5 C83.3860465,39 83.8883721,38.75 84.1395349,39 C84.3906977,39.25 84.8930233,39.5 84.6418605,39.75 L84.6418605,41.25 C84.8930233,41.5 84.6418605,41.75 84.1395349,41.75 L84.1395349,41.75 Z M84.6418605,37.25 L84.6418605,37.25 C84.4354687,37.2744352 84.2292176,37.2033111 84.0822479,37.0570218 C83.9352782,36.9107325 83.8638232,36.7054362 83.8883721,36.5 L83.8883721,35 C83.8883721,34.5 84.3906977,34.25 84.6418605,34.5 C84.8930233,34.75 85.3953488,35 85.144186,35.25 L85.144186,36.75 C85.144186,37 85.144186,37 84.8930233,37.25 L84.6418605,37.25 Z M85.144186,32.75 L85.144186,32.75 C84.9377943,32.7744352 84.7315432,32.7033111 84.5845735,32.5570218 C84.4376038,32.4107325 84.3661488,32.2054362 84.3906977,32 L84.3906977,30.5 C84.3906977,30 84.8930233,29.75 85.144186,30 C85.3953488,30.25 85.8976744,30.5 85.6465116,30.75 L85.6465116,32.25 C85.6465116,32.5 85.6465116,32.5 85.3953488,32.75 L85.144186,32.75 Z M85.6465116,28.25 L85.6465116,28.25 C85.4401199,28.2744352 85.2338688,28.2033111 85.086899,28.0570218 C84.9399293,27.9107325 84.8684744,27.7054362 84.8930233,27.5 L84.8930233,26 C84.8930233,25.5 85.3953488,25.25 85.6465116,25.5 C85.8976744,25.75 86.4,26 86.1488372,26.25 L86.1488372,27.75 C86.265123,27.8399891 86.3331429,27.9783865 86.3331429,28.125 C86.3331429,28.2716135 86.265123,28.4100109 86.1488372,28.5 L85.6465116,28.25 Z M86.1488372,23.75 L86.1488372,23.75 C85.9424455,23.7744352 85.7361943,23.7033111 85.5892246,23.5570218 C85.4422549,23.4107325 85.3707999,23.2054362 85.3953488,23 L85.3953488,21.5 C85.3953488,21 85.8976744,20.75 86.1488372,21 C86.4,21.25 86.9023256,21.5 86.6511628,21.75 L86.6511628,23.25 C86.7674486,23.3399891 86.8354685,23.4783865 86.8354685,23.625 C86.8354685,23.7716135 86.7674486,23.9100109 86.6511628,24 L86.1488372,23.75 Z" id="Shape" fill="#C72120" fill-rule="nonzero"></path>
                <path d="M28.1302326,18.5 L78.6139535,18.5 C80.4059449,18.526827 81.852118,19.9663048 81.8790698,21.75 L81.8790698,24 C81.852118,25.7836952 80.4059449,27.223173 78.6139535,27.25 L28.1302326,27.25 C26.3382411,27.223173 24.8920681,25.7836952 24.8651163,24 L24.8651163,21.75 C24.8920681,19.9663048 26.3382411,18.526827 28.1302326,18.5 Z" id="Path" fill="#FD5250" fill-rule="nonzero"></path>
                <ellipse id="Oval" fill="#FD5250" fill-rule="nonzero" cx="34.4093023" cy="65.5" rx="2.26046512" ry="2.25"></ellipse>
                <ellipse id="Oval" fill="#FD5250" fill-rule="nonzero" cx="72.3348837" cy="65.5" rx="2.26046512" ry="2.25"></ellipse>
                <path d="M30.3906883,14.5 L30.3906977,65.5 C30.3883743,66.5394319 30.8195887,67.5331958 31.5814218,68.2441077 C32.3432549,68.9550197 33.3673567,69.3192982 34.4093023,69.25 C36.554524,69.3063221 38.3461159,67.6344808 38.427907,65.5 L38.427907,14.5 L30.3906883,14.5 Z M34.1581395,67 C33.4645726,67 32.9023256,66.4403559 32.9023256,65.75 C32.9023256,65.0596441 33.4645726,64.5 34.1581395,64.5 C34.8517064,64.5 35.4139535,65.0596441 35.4139535,65.75 C35.4139535,66.25 34.6604651,66.75 34.1581395,67 Z M34.1581395,60.75 C33.4645726,60.75 32.9023256,60.1903559 32.9023256,59.5 C32.9023256,58.8096441 33.4645726,58.25 34.1581395,58.25 C34.8517064,58.25 35.4139535,58.8096441 35.4139535,59.5 C35.4139535,60 34.6604651,60.5 34.1581395,60.75 Z M34.1581395,54.5 C33.4645726,54.5 32.9023256,53.9403559 32.9023256,53.25 C32.9023256,52.5596441 33.4645726,52 34.1581395,52 C34.8517064,52 35.4139535,52.5596441 35.4139535,53.25 C35.4364099,53.5878787 35.3113302,53.9189747 35.070778,54.1584133 C34.8302257,54.3978518 34.4975898,54.5223524 34.1581395,54.5 L34.1581395,54.5 Z M34.1581395,48.25 C33.4645726,48.25 32.9023256,47.6903559 32.9023256,47 C32.9023256,46.3096441 33.4645726,45.75 34.1581395,45.75 C34.8517064,45.75 35.4139535,46.3096441 35.4139535,47 C35.4364099,47.3378787 35.3113302,47.6689747 35.070778,47.9084133 C34.8302257,48.1478518 34.4975898,48.2723524 34.1581395,48.25 L34.1581395,48.25 Z" id="Shape" fill="#990300" fill-rule="nonzero"></path>
                <path d="M68.5674419,14.5 L68.5674419,65.5 C68.5467053,66.5007468 68.9369685,67.4666135 69.6480458,68.1743988 C70.3591232,68.8821842 71.3294823,69.2706406 72.3348837,69.25 C74.4801054,69.3063221 76.2716973,67.6344808 76.3534884,65.5 L76.3534884,14.5 L68.5674419,14.5 Z M72.3348837,67 C71.6413168,67 71.0790698,66.4403559 71.0790698,65.75 C71.0790698,65.0596441 71.6413168,64.5 72.3348837,64.5 C73.0284506,64.5 73.5906977,65.0596441 73.5906977,65.75 C73.5906977,66.25 72.8372093,66.75 72.3348837,67 Z M72.3348837,60.75 C71.6413168,60.75 71.0790698,60.1903559 71.0790698,59.5 C71.0790698,58.8096441 71.6413168,58.25 72.3348837,58.25 C73.0284506,58.25 73.5906977,58.8096441 73.5906977,59.5 C73.5906977,60 72.8372093,60.5 72.3348837,60.75 Z M72.3348837,54.5 C71.6413168,54.5 71.0790698,53.9403559 71.0790698,53.25 C71.0790698,52.5596441 71.6413168,52 72.3348837,52 C73.0284506,52 73.5906977,52.5596441 73.5906977,53.25 C73.6131541,53.5878787 73.4880744,53.9189747 73.2475222,54.1584133 C73.0069699,54.3978518 72.674334,54.5223524 72.3348837,54.5 Z M72.3348837,48.25 C71.6413168,48.25 71.0790698,47.6903559 71.0790698,47 C71.0790698,46.3096441 71.6413168,45.75 72.3348837,45.75 C73.0284506,45.75 73.5906977,46.3096441 73.5906977,47 C73.6131541,47.3378787 73.4880744,47.6689747 73.2475222,47.9084133 C73.0069699,48.1478518 72.674334,48.2723524 72.3348837,48.25 Z" id="Shape" fill="#990300" fill-rule="nonzero"></path>
                <g id="Group" transform="translate(25.116279, 35.000000)" fill-rule="nonzero">
                    <path d="M7.28372093,3 L11.0511628,3 C13.3815412,3.06537912 15.255247,4.93041035 15.3209302,7.25 L15.3209302,11 C15.255247,13.3195896 13.3815412,15.1846209 11.0511628,15.25 L7.28372093,15.25 C4.95334249,15.1846209 3.07963669,13.3195896 3.01395349,11 L3.01395349,7.25 C3.07963669,4.93041035 4.95334249,3.06537912 7.28372093,3 L7.28372093,3 Z" id="Path" fill="#FDD345"></path>
                    <path d="M13.0604651,16 L5.02325581,16 C4.21554302,16.028236 3.43233947,15.721242 2.86084815,15.1523965 C2.28935683,14.583551 1.980935,13.8039734 2.00930233,13 L2.00930233,13 L2.00930233,5 C2.22350128,3.48360835 3.48696918,2.33079138 5.02325581,2.25 L13.0604651,2.25 C14.5967518,2.33079138 15.8602197,3.48360835 16.0744186,5 L16.0744186,13 C16.1027859,13.8039734 15.7943641,14.583551 15.2228728,15.1523965 C14.6513815,15.721242 13.8681779,16.028236 13.0604651,16 Z M5.02325581,3.75 C4.21711424,3.8096781 3.57623474,4.44759056 3.51627907,5.25 L3.51627907,5.25 L3.51627907,13.25 C3.57623474,14.0524094 4.21711424,14.6903219 5.02325581,14.75 L13.0604651,14.75 C13.8666067,14.6903219 14.5074862,14.0524094 14.5674419,13.25 L14.5674419,13.25 L14.5674419,5 C14.5074862,4.19759056 13.8666067,3.5596781 13.0604651,3.5 L13.0604651,3.5 L5.02325581,3.75 Z" id="Shape" fill="#990300"></path>
                </g>
                <path d="M33.9069767,35.75 L34.6604651,35.75 C34.8668568,35.7255648 35.073108,35.7966889 35.2200777,35.9429782 C35.3670474,36.0892675 35.4385024,36.2945638 35.4139535,36.5 L35.4139535,40.5 C35.4385024,40.7054362 35.3670474,40.9107325 35.2200777,41.0570218 C35.073108,41.2033111 34.8668568,41.2744352 34.6604651,41.25 L33.9069767,41.25 C33.700585,41.2744352 33.4943339,41.2033111 33.3473642,41.0570218 C33.2003945,40.9107325 33.1289395,40.7054362 33.1534884,40.5 L33.1534884,36.5 C33.1289395,36.2945638 33.2003945,36.0892675 33.3473642,35.9429782 C33.4943339,35.7966889 33.700585,35.7255648 33.9069767,35.75 L33.9069767,35.75 Z" id="Path" fill="#FDD345" fill-rule="nonzero"></path>
                <path d="M34.1581395,42 C33.0800808,41.9274158 32.221759,41.0730678 32.1488372,40 L32.1488372,40 L32.1488372,37 C31.8020538,35.9644661 32.3643009,34.845178 33.4046512,34.5 C34.4450015,34.1548221 35.5694956,34.7144661 35.9162791,35.75 C36.1663308,36.2190259 36.1663308,36.7809741 35.9162791,37.25 L35.9162791,40 C35.8729929,40.9941851 35.1423638,41.8253241 34.1581395,42 L34.1581395,42 Z M34.1581395,36.5 L33.655814,37 L33.655814,40 L34.1581395,40.5 L34.6604651,40 L34.6604651,37 L34.1581395,36.5 Z" id="Shape" fill="#990300" fill-rule="nonzero"></path>
                <g id="Group" transform="translate(62.790698, 35.000000)" fill-rule="nonzero">
                    <path d="M7.78604651,3 L11.5534884,3 C13.8838668,3.06537912 15.7575726,4.93041035 15.8232558,7.25 L15.8232558,11 C15.7575726,13.3195896 13.8838668,15.1846209 11.5534884,15.25 L7.78604651,15.25 C5.45566808,15.1846209 3.58196228,13.3195896 3.51627907,11 L3.51627907,7.25 C3.58196228,4.93041035 5.45566808,3.06537912 7.78604651,3 Z" id="Path" fill="#FDD345"></path>
                    <path d="M13.5627907,16 L5.5255814,16 C4.7178686,16.028236 3.93466505,15.721242 3.36317373,15.1523965 C2.79168241,14.583551 2.48326059,13.8039734 2.51162791,13 L2.51162791,13 L2.51162791,5 C2.48326059,4.19602662 2.79168241,3.41644901 3.36317373,2.84760348 C3.93466505,2.27875795 4.7178686,1.97176401 5.5255814,2 L13.5627907,2 C14.3705035,1.97176401 15.153707,2.27875795 15.7251984,2.84760348 C16.2966897,3.41644901 16.6051115,4.19602662 16.5767442,5 L16.5767442,13 C16.6051115,13.8039734 16.2966897,14.583551 15.7251984,15.1523965 C15.153707,15.721242 14.3705035,16.028236 13.5627907,16 Z M5.5255814,3.75 C4.71943982,3.8096781 4.07856032,4.44759056 4.01860465,5.25 L4.01860465,5.25 L4.01860465,13.25 C4.07856032,14.0524094 4.71943982,14.6903219 5.5255814,14.75 L13.5627907,14.75 C14.3689323,14.6903219 15.0098118,14.0524094 15.0697674,13.25 L15.0697674,13.25 L15.0697674,5 C15.0098118,4.19759056 14.3689323,3.5596781 13.5627907,3.5 L13.5627907,3.5 L5.5255814,3.75 Z" id="Shape" fill="#990300"></path>
                </g>
                <path d="M72.0837209,35.75 L72.8372093,35.75 C73.043601,35.7255648 73.2498522,35.7966889 73.3968219,35.9429782 C73.5437916,36.0892675 73.6152466,36.2945638 73.5906977,36.5 L73.5906977,40.5 C73.6152466,40.7054362 73.5437916,40.9107325 73.3968219,41.0570218 C73.2498522,41.2033111 73.043601,41.2744352 72.8372093,41.25 L72.0837209,41.25 C71.8773292,41.2744352 71.6710781,41.2033111 71.5241083,41.0570218 C71.3771386,40.9107325 71.3056837,40.7054362 71.3302326,40.5 L71.3302326,36.5 C71.3056837,36.2945638 71.3771386,36.0892675 71.5241083,35.9429782 C71.6710781,35.7966889 71.8773292,35.7255648 72.0837209,35.75 L72.0837209,35.75 Z" id="Path" fill="#FDD345" fill-rule="nonzero"></path>
                <path d="M72.3348837,42 C71.256825,41.9274158 70.3985032,41.0730678 70.3255814,40 L70.3255814,37 C69.9787979,35.9644661 70.541045,34.845178 71.5813953,34.5 C72.6217457,34.154822 73.7462398,34.7144661 74.0930233,35.75 C74.343075,36.2190259 74.343075,36.7809741 74.0930233,37.25 L74.0930233,40 C74.0497371,40.9941851 73.319108,41.8253241 72.3348837,42 Z M72.3348837,36.5 L71.8325581,37 L71.8325581,40 L72.3348837,40.5 L72.8372093,40 L72.8372093,37 L72.3348837,36.5 Z" id="Shape" fill="#990300" fill-rule="nonzero"></path>
                <path d="M8.53953488,60.5 L12.055814,60.5 C12.5948433,60.5362921 13.0240042,60.9634661 13.0604651,61.5 L13.0604651,62.5 C13.0240042,63.0365339 12.5948433,63.4637079 12.055814,63.5 L8.53953488,63.5 C8.0005055,63.4637079 7.57134462,63.0365339 7.53488372,62.5 L7.53488372,61.5 C7.57134462,60.9634661 8.0005055,60.5362921 8.53953488,60.5 L8.53953488,60.5 Z" id="Path" fill="#FD5250" fill-rule="nonzero"></path>
                <path d="M94.4372093,60.5 L97.9534884,60.5 C98.4925178,60.5362921 98.9216786,60.9634661 98.9581395,61.5 L98.9581395,62.5 C98.9216786,63.0365339 98.4925178,63.4637079 97.9534884,63.5 L94.4372093,63.5 C93.8981799,63.4637079 93.469019,63.0365339 93.4325581,62.5 L93.4325581,61.5 C93.469019,60.9634661 93.8981799,60.5362921 94.4372093,60.5 L94.4372093,60.5 Z" id="Path" fill="#FD5250" fill-rule="nonzero"></path>
                <path d="M16.827907,106 L16.827907,106 C16.6215153,106.024435 16.4152641,105.953311 16.2682944,105.807022 C16.1213247,105.660732 16.0498697,105.455436 16.0744186,105.25 L16.0744186,103.75 C16.0498697,103.544564 16.1213247,103.339268 16.2682944,103.192978 C16.4152641,103.046689 16.6215153,102.975565 16.827907,103 C17.0342987,102.975565 17.2405498,103.046689 17.3875196,103.192978 C17.5344893,103.339268 17.6059442,103.544564 17.5813953,103.75 L17.5813953,103.75 L17.5813953,105.25 C17.6059442,105.455436 17.5344893,105.660732 17.3875196,105.807022 C17.2405498,105.953311 17.0342987,106.024435 16.827907,106 L16.827907,106 Z M17.0790698,101.5 L17.0790698,101.5 C16.872678,101.524435 16.6664269,101.453311 16.5194572,101.307022 C16.3724875,101.160732 16.3010325,100.955436 16.3255814,100.75 L16.3255814,99.25 C16.3010325,99.0445638 16.3724875,98.8392675 16.5194572,98.6929782 C16.6664269,98.5466889 16.872678,98.4755648 17.0790698,98.5 C17.2854615,98.4755648 17.4917126,98.5466889 17.6386823,98.6929782 C17.7856521,98.8392675 17.857107,99.0445638 17.8325581,99.25 L17.8325581,100.75 C17.857107,100.955436 17.7856521,101.160732 17.6386823,101.307022 C17.4917126,101.453311 17.2854615,101.524435 17.0790698,101.5 Z M17.3302326,97 L17.3302326,97 C17.1238408,97.0244352 16.9175897,96.9533111 16.77062,96.8070218 C16.6236503,96.6607325 16.5521953,96.4554362 16.5767442,96.25 L16.5767442,94.75 C16.5521953,94.5445638 16.6236503,94.3392675 16.77062,94.1929782 C16.9175897,94.0466889 17.1238408,93.9755648 17.3302326,94 C17.5366243,93.9755648 17.7428754,94.0466889 17.8898451,94.1929782 C18.0368149,94.3392675 18.1082698,94.5445638 18.0837209,94.75 L18.0837209,96.25 C18.1082698,96.4554362 18.0368149,96.6607325 17.8898451,96.8070218 C17.7428754,96.9533111 17.5366243,97.0244352 17.3302326,97 L17.3302326,97 Z M17.8325581,92.5 L17.8325581,92.5 C17.0790698,92.5 16.827907,92.25 16.827907,91.75 L16.827907,90 C16.8033581,89.7945638 16.8748131,89.5892675 17.0217828,89.4429782 C17.1687525,89.2966889 17.3750036,89.2255648 17.5813953,89.25 C17.7877871,89.2255648 17.9940382,89.2966889 18.1410079,89.4429782 C18.2879776,89.5892675 18.3594326,89.7945638 18.3348837,90 L18.3348837,91.5 C18.5860465,92 18.3348837,92.25 17.8325581,92.5 L17.8325581,92.5 Z M18.0837209,88 L18.0837209,88 C17.8773292,88.0244352 17.6710781,87.9533111 17.5241083,87.8070218 C17.3771386,87.6607325 17.3056837,87.4554362 17.3302326,87.25 L17.3302326,85.75 C17.3056837,85.5445638 17.3771386,85.3392675 17.5241083,85.1929782 C17.6710781,85.0466889 17.8773292,84.9755648 18.0837209,85 C18.2901127,84.9755648 18.4963638,85.0466889 18.6433335,85.1929782 C18.7903032,85.3392675 18.8617582,85.5445638 18.8372093,85.75 L18.8372093,87.25 C18.8617582,87.4554362 18.7903032,87.6607325 18.6433335,87.8070218 C18.4963638,87.9533111 18.2901127,88.0244352 18.0837209,88 L18.0837209,88 Z M18.3348837,83.5 L18.3348837,83.5 C18.128492,83.5244352 17.9222409,83.4533111 17.7752711,83.3070218 C17.6283014,83.1607325 17.5568465,82.9554362 17.5813953,82.75 L17.5813953,81 C17.5568465,80.7945638 17.6283014,80.5892675 17.7752711,80.4429782 C17.9222409,80.2966889 18.128492,80.2255648 18.3348837,80.25 C18.5412754,80.2255648 18.7475266,80.2966889 18.8944963,80.4429782 C19.041466,80.5892675 19.112921,80.7945638 19.0883721,81 L19.0883721,82.5 C19.3395349,83 19.0883721,83.25 18.5860465,83.5 L18.3348837,83.5 Z M18.5860465,79 L18.5860465,79 C18.3796548,79.0244352 18.1734036,78.9533111 18.0264339,78.8070218 C17.8794642,78.6607325 17.8080092,78.4554362 17.8325581,78.25 L17.8325581,76.75 C17.8080092,76.5445638 17.8794642,76.3392675 18.0264339,76.1929782 C18.1734036,76.0466889 18.3796548,75.9755648 18.5860465,76 C18.7924382,75.9755648 18.9986894,76.0466889 19.1456591,76.1929782 C19.2926288,76.3392675 19.3640838,76.5445638 19.3395349,76.75 L19.3395349,78.25 C19.3395349,78.5 19.0883721,79 18.8372093,79 L18.5860465,79 Z M18.8372093,74.5 L18.8372093,74.5 C18.6308176,74.5244352 18.4245664,74.4533111 18.2775967,74.3070218 C18.130627,74.1607325 18.059172,73.9554362 18.0837209,73.75 L18.0837209,72.25 C18.059172,72.0445638 18.130627,71.8392675 18.2775967,71.6929782 C18.4245664,71.5466889 18.6308176,71.4755648 18.8372093,71.5 C19.043601,71.4755648 19.2498522,71.5466889 19.3968219,71.6929782 C19.5437916,71.8392675 19.6152466,72.0445638 19.5906977,72.25 L19.5906977,73.75 C19.5906977,74 19.3395349,74.5 19.0883721,74.5 L18.8372093,74.5 Z M19.3395349,70 L19.3395349,70 C19.1331432,70.0244352 18.926892,69.9533111 18.7799223,69.8070218 C18.6329526,69.6607325 18.5614976,69.4554362 18.5860465,69.25 L18.5860465,67.5 C18.5860465,67.0857864 18.9233947,66.75 19.3395349,66.75 C19.755675,66.75 20.0930233,67.0857864 20.0930233,67.5 L20.0930233,67.5 L20.0930233,69 C20.344186,69.5 20.0930233,69.75 19.5906977,70 L19.3395349,70 Z" id="Shape" fill="#C72120" fill-rule="nonzero"></path>
                <path d="M89.6651163,106 C89.4587246,106.024435 89.2524734,105.953311 89.1055037,105.807022 C88.958534,105.660732 88.887079,105.455436 88.9116279,105.25 L88.9116279,103.75 C88.9116279,103.335786 89.2489761,103 89.6651163,103 C90.0812564,103 90.4186047,103.335786 90.4186047,103.75 L90.4186047,105 C90.4431535,105.205436 90.3716986,105.410732 90.2247289,105.557022 C90.0777591,105.703311 89.871508,105.774435 89.6651163,105.75 L89.6651163,106 Z M89.4139535,101.5 C89.2075618,101.524435 89.0013106,101.453311 88.8543409,101.307022 C88.7073712,101.160732 88.6359162,100.955436 88.6604651,100.75 L88.6604651,99.25 C88.6604651,98.8357864 88.9978134,98.5 89.4139535,98.5 C89.8300936,98.5 90.1674419,98.8357864 90.1674419,99.25 L90.1674419,100.75 C90.1919908,100.955436 90.1205358,101.160732 89.9735661,101.307022 C89.8265964,101.453311 89.6203452,101.524435 89.4139535,101.5 Z M89.1627907,97 C88.956399,97.0244352 88.7501478,96.9533111 88.6031781,96.8070218 C88.4562084,96.6607325 88.3847534,96.4554362 88.4093023,96.25 L88.4093023,94.75 C88.4093023,94.3357864 88.7466506,94 89.1627907,94 C89.5789308,94 89.9162791,94.3357864 89.9162791,94.75 L89.9162791,94.75 L89.9162791,96.25 C89.940828,96.4554362 89.869373,96.6607325 89.7224033,96.8070218 C89.5754336,96.9533111 89.3691824,97.0244352 89.1627907,97 L89.1627907,97 Z M88.6604651,92.5 C88.4540734,92.5244352 88.2478222,92.4533111 88.1008525,92.3070218 C87.9538828,92.1607325 87.8824278,91.9554362 87.9069767,91.75 L87.9069767,90.25 C87.9069767,89.8357864 88.244325,89.5 88.6604651,89.5 C89.0766053,89.5 89.4139535,89.8357864 89.4139535,90.25 L89.4139535,91.75 C89.4385024,91.9554362 89.3670474,92.1607325 89.2200777,92.3070218 C89.073108,92.4533111 88.8668568,92.5244352 88.6604651,92.5 L88.6604651,92.5 Z M88.4093023,88 C88.2029106,88.0244352 87.9966595,87.9533111 87.8496897,87.8070218 C87.70272,87.6607325 87.6312651,87.4554362 87.655814,87.25 L87.655814,85.75 C87.655814,85.3357864 87.9931622,85 88.4093023,85 C88.8254425,85 89.1627907,85.3357864 89.1627907,85.75 L89.1627907,87.25 C89.1873396,87.4554362 89.1158846,87.6607325 88.9689149,87.8070218 C88.8219452,87.9533111 88.6156941,88.0244352 88.4093023,88 Z M87.9069767,83.5 C87.700585,83.5244352 87.4943339,83.4533111 87.3473642,83.3070218 C87.2003945,83.1607325 87.1289395,82.9554362 87.1534884,82.75 L87.1534884,81.25 C87.1534884,80.8357864 87.4908366,80.5 87.9069767,80.5 C88.3231169,80.5 88.6604651,80.8357864 88.6604651,81.25 L88.6604651,82.5 C88.685014,82.7054362 88.613559,82.9107325 88.4665893,83.0570218 C88.3196196,83.2033111 88.1133685,83.2744352 87.9069767,83.25 L87.9069767,83.5 Z M87.655814,79 C87.4494222,79.0244352 87.2431711,78.9533111 87.0962014,78.8070218 C86.9492317,78.6607325 86.8777767,78.4554362 86.9023256,78.25 L86.9023256,76.75 C86.9023256,76.3357864 87.2396738,76 87.655814,76 C88.0719541,76 88.4093023,76.3357864 88.4093023,76.75 L88.4093023,78.25 C88.4338512,78.4554362 88.3623962,78.6607325 88.2154265,78.8070218 C88.0684568,78.9533111 87.8622057,79.0244352 87.655814,79 L87.655814,79 Z M87.4046512,74.5 C87.1982594,74.5244352 86.9920083,74.4533111 86.8450386,74.3070218 C86.6980689,74.1607325 86.6266139,73.9554362 86.6511628,73.75 L86.6511628,72.25 C86.6511628,71.8357864 86.988511,71.5 87.4046512,71.5 C87.8207913,71.5 88.1581395,71.8357864 88.1581395,72.25 L88.1581395,73.75 C88.1826884,73.9554362 88.1112335,74.1607325 87.9642637,74.3070218 C87.817294,74.4533111 87.6110429,74.5244352 87.4046512,74.5 Z M86.9023256,70 C86.6959339,70.0244352 86.4896827,69.9533111 86.342713,69.8070218 C86.1957433,69.6607325 86.1242883,69.4554362 86.1488372,69.25 L86.1488372,67.75 C86.1488372,67.3357864 86.4861854,67 86.9023256,67 C87.3184657,67 87.655814,67.3357864 87.655814,67.75 L87.655814,69.25 C87.6803629,69.4554362 87.6089079,69.6607325 87.4619382,69.8070218 C87.3149684,69.9533111 87.1087173,70.0244352 86.9023256,70 Z" id="Shape" fill="#C72120" fill-rule="nonzero"></path>
                <polygon id="Path" points="52.744186 108 53.7488372 108 86.9023256 108 92.427907 97.25 87.1534884 39.75 19.5906977 39.75 14.3162791 97.25 19.8418605 108"></polygon>
                <path d="M14.3162791,110.75 C15.5306402,112.454394 17.4916085,113.476813 19.5906977,113.5 L87.1534884,113.5 C89.2525776,113.476813 91.2135459,112.454394 92.427907,110.75 C93.140659,109.539919 93.4893584,108.151579 93.4325581,106.75 L92.6790698,97.5 L89.1627907,104 C87.9334674,106.466477 85.3986194,108.019161 82.6325581,108 L24.3627907,108 C21.5967295,108.019161 19.0618815,106.466477 17.8325581,104 L14.3162791,97.25 L13.5627907,106.5 C13.2967768,107.960776 13.5640103,109.468089 14.3162791,110.75 Z" id="Path" fill="#990300" fill-rule="nonzero" opacity="0.2"></path>
                <path d="M30.8930233,86 L34.1581395,108.25 C34.4093023,109.5 34.9116279,110.25 35.4139535,110.25 L71.3302326,110.25 C71.8325581,110.25 72.5860465,109.5 72.5860465,108.25 L75.8511628,86 C76.1023256,84.25 75.3488372,82.75 74.5953488,82.75 L32.1488372,82.75 C31.3953488,82.75 30.6418605,84.25 30.8930233,86 Z" id="Path" fill="#FD5250" fill-rule="nonzero"></path>
                <path d="M71.3302326,111.5 L35.4139535,111.5 C33.9069767,111.5 32.9023256,110.25 32.6511628,108.25 L29.3860465,86 C29.0817409,84.5052821 29.448722,82.9528329 30.3906977,81.75 C30.8098028,81.1858675 31.4477783,80.8229978 32.1488372,80.75 L74.344186,80.75 C75.0452449,80.8229978 75.6832204,81.1858675 76.1023256,81.75 C77.0443012,82.9528329 77.4112824,84.5052821 77.1069767,86 L73.8418605,108.25 C73.8418605,110.25 72.5860465,111.5 71.3302326,111.5 Z M35.9162791,108.5 L71.0790698,108.5 L71.0790698,107.75 L74.344186,85.5 C74.3837736,84.9871308 74.2975805,84.4723668 74.0930233,84 L32.6511628,84 C32.4466055,84.4723668 32.3604125,84.9871308 32.4,85.5 L35.6651163,107.75 L35.9162791,108.5 Z" id="Shape" fill="#990300" fill-rule="nonzero"></path>
                <path d="M78.6139535,88.75 L75.0976744,77 C74.9155868,76.3396644 74.273107,75.9133275 73.5906977,76 L33.4046512,76 C32.7222418,75.9133275 32.0797621,76.3396644 31.8976744,77 L28.3813953,88.75 C28.1302326,89.5 28.8837209,90.25 29.6372093,90.5 L77.1069767,90.5 C77.9131183,90.4403219 78.5539978,89.8024094 78.6139535,89 L78.6139535,88.75 Z" id="Path" fill="#FD5250" fill-rule="nonzero"></path>
                <path d="M77.1069767,92 L29.6372093,92 C28.695323,92.0096686 27.8013059,91.5876056 27.212883,90.8554821 C26.62446,90.1233586 26.4070236,89.1625368 26.6232558,88.25 L30.1395349,76.5 C30.646508,75.2888974 31.8353582,74.5 33.1534884,74.5 L73.3395349,74.5 C74.6576651,74.5 75.8465152,75.2888974 76.3534884,76.5 L79.8697674,88.5 C80.0736315,89.3664247 79.8904142,90.2782696 79.3674419,91 C78.8168305,91.6724839 77.9774281,92.0438245 77.1069767,92 L77.1069767,92 Z M29.6372093,89 L77.1069767,89 L73.5906977,77.25 L33.4046512,77.25 L29.6372093,89 Z" id="Shape" fill="#990300" fill-rule="nonzero"></path>
                <path d="M37.9255814,78.75 L67.8139535,78.75 C68.6200951,78.8096781 69.2609746,79.4475906 69.3209302,80.25 L69.3209302,81.5 C69.2609746,82.3024094 68.6200951,82.9403219 67.8139535,83 L37.9255814,83 C37.1194398,82.9403219 36.4785603,82.3024094 36.4186047,81.5 L36.4186047,80.25 C36.4785603,79.4475906 37.1194398,78.8096781 37.9255814,78.75 L37.9255814,78.75 Z" id="Path" fill="#FD5250" fill-rule="nonzero"></path>
                <ellipse id="Oval" fill="#FDD345" fill-rule="nonzero" cx="53.2465116" cy="86.5" rx="1.00465116" ry="1"></ellipse>
                <polygon id="Path" fill="#990300" fill-rule="nonzero" opacity="0.2" points="73.3395349 92 72.8372093 95.25 33.655814 95.25 33.4046512 92"></polygon>
            </g>
        </g>
    </g>
</svg>