<?xml version="1.0" encoding="UTF-8"?>
<svg width="120px" height="110px" viewBox="0 0 120 110" version="1.1" xmlns="http://www.w3.org/2000/svg" xmlns:xlink="http://www.w3.org/1999/xlink">
    <!-- Generator: Sketch 53 (72520) - https://sketchapp.com -->
    <title>bolt-logo</title>
    <desc>Created with Sketch.</desc>
    <g id="Welcome" stroke="none" stroke-width="1" fill="none" fill-rule="evenodd">
        <g id="Desktop-HD" transform="translate(-401.000000, -949.000000)" fill-rule="nonzero">
            <g id="bolt-logo" transform="translate(401.000000, 949.000000)">
                <path d="M44.0909091,29.6153846 L75.9090909,29.6153846 C76.4945455,29.6153846 76.969697,30.0892308 76.969697,30.6730769 L76.969697,49.7115385 C76.969697,50.2956858 76.4948475,50.7692308 75.9090909,50.7692308 L44.0909091,50.7692308 C43.5051525,50.7692308 43.030303,50.2956858 43.030303,49.7115385 L43.030303,30.6730769 C43.030303,30.0892308 43.5054545,29.6153846 44.0909091,29.6153846 Z" id="Path" fill="#FFCC4C"></path>
                <path d="M0.646666667,47.5967582 L10.7430303,30.1442308 C10.9325386,29.8168944 11.2828015,29.6152862 11.6618182,29.6153846 L33.4848485,29.6153846 C34.070303,29.6153846 34.5454545,30.0892308 34.5454545,30.6730769 L34.5454545,49.7115385 C34.5454545,50.2956858 34.070605,50.7692308 33.4848485,50.7692308 L2.48363636,50.7692308 C1.72599737,50.769087 1.02595574,50.365972 0.647090442,49.7116663 C0.268225148,49.0573607 0.268063617,48.2512149 0.646666667,47.5967582 Z" id="Path" fill="#FF6633"></path>
                <path d="M85.4545455,49.7115385 L85.4545455,30.6730769 C85.4545455,30.0892308 85.929697,29.6153846 86.5151515,29.6153846 L108.338182,29.6153846 C108.717199,29.6152862 109.067461,29.8168944 109.25697,30.1442308 L119.353939,47.5967582 C119.732651,48.2514019 119.732374,49.0578051 119.353213,49.7121898 C118.974051,50.3665745 118.273613,50.7695188 117.515758,50.7692308 L86.5151515,50.7692308 C85.929395,50.7692308 85.4545455,50.2956858 85.4545455,49.7115385 Z" id="Path" fill="#E1E2EB"></path>
                <path d="M51.5151515,1.05769231 L51.5151515,20.0961538 C51.5151515,20.6803012 51.040302,21.1538462 50.4545455,21.1538462 L17.7806061,21.1538462 C17.4016387,21.1539445 17.0514136,20.9523884 16.8618872,20.6251192 C16.6723608,20.2978501 16.6723345,19.8946014 16.8618182,19.5673077 L25.7327273,4.23318681 C27.2480694,1.61375259 30.0500071,-7.25398863e-05 33.0824242,0 L50.4545455,0 C51.04,0 51.5151515,0.473846154 51.5151515,1.05769231 Z" id="Path" fill="#FF6633"></path>
                <path d="M61.0606061,0 L86.9175758,0 C89.9499929,-7.25398863e-05 92.7519306,1.61375259 94.2672727,4.23318681 L103.138182,19.5673077 C103.327666,19.8946014 103.327639,20.2978501 103.138113,20.6251192 C102.948586,20.9523884 102.598361,21.1539445 102.219394,21.1538462 L61.0606061,21.1538462 C60.4748495,21.1538462 60,20.6803012 60,20.0961538 L60,1.05769231 C60,0.473846154 60.4751515,0 61.0606061,0 Z" id="Path" fill="#FFCC4C"></path>
                <path d="M25.7333333,105.766813 L16.8618182,90.4326923 C16.6723345,90.1053986 16.6723608,89.7021499 16.8618872,89.3748808 C17.0514136,89.0476116 17.4016387,88.8460555 17.7806061,88.8461538 L58.9393939,88.8461538 C59.5248485,88.8461538 60,89.32 60,89.9038462 L60,108.942308 C60,109.526455 59.5251505,110 58.9393939,110 L33.0824242,110 C30.0500071,110.000073 27.2480694,108.386247 25.7327273,105.766813 L25.7333333,105.766813 Z" id="Path" fill="#6C79D9"></path>
                <path d="M69.5454545,88.8461538 L102.219394,88.8461538 C102.598361,88.8460555 102.948586,89.0476116 103.138113,89.3748808 C103.327639,89.7021499 103.327666,90.1053986 103.138182,90.4326923 L94.2672727,105.766813 C92.7519306,108.386247 89.9499929,110.000073 86.9175758,110 L69.5454545,110 C68.959698,110 68.4848485,109.526455 68.4848485,108.942308 L68.4848485,89.9038462 C68.4848485,89.32 68.96,88.8461538 69.5454545,88.8461538 L69.5454545,88.8461538 Z" id="Path" fill="#12B3B3"></path>
                <path d="M43.030303,60.2884615 L43.030303,79.3269231 C43.030303,79.9110704 42.5554535,80.3846154 41.969697,80.3846154 L11.6618182,80.3846154 C11.2828015,80.3847138 10.9325386,80.1831056 10.7430303,79.8557692 L0.646060606,62.4032418 C0.267349298,61.7485981 0.267626367,60.9421949 0.64678744,60.2878102 C1.02594851,59.6334255 1.72638691,59.2304812 2.48424242,59.2307692 L41.969697,59.2307692 C42.5551515,59.2307692 43.030303,59.7046154 43.030303,60.2884615 Z" id="Path" fill="#6C79D9"></path>
                <path d="M52.5757576,59.2307692 L117.516364,59.2307692 C118.274003,59.230913 118.974044,59.634028 119.35291,60.2883337 C119.731775,60.9426393 119.731936,61.7487851 119.353333,62.4032418 L109.25697,79.8557692 C109.067461,80.1831056 108.717199,80.3847138 108.338182,80.3846154 L52.5757576,80.3846154 C51.990001,80.3846154 51.5151515,79.9110704 51.5151515,79.3269231 L51.5151515,60.2884615 C51.5151515,59.7046154 51.990303,59.2307692 52.5757576,59.2307692 Z" id="Path" fill="#12B3B3"></path>
            </g>
        </g>
    </g>
</svg>