<?xml version="1.0" encoding="UTF-8"?>
<svg width="124px" height="87px" viewBox="0 0 124 87" version="1.1" xmlns="http://www.w3.org/2000/svg" xmlns:xlink="http://www.w3.org/1999/xlink">
    <!-- Generator: Sketch 53 (72520) - https://sketchapp.com -->
    <title>logo</title>
    <desc>Created with Sketch.</desc>
    <g id="Welcome" stroke="none" stroke-width="1" fill="none" fill-rule="evenodd">
        <g id="Desktop-HD" transform="translate(-316.000000, -4353.000000)" stroke="#0084FF" stroke-width="3">
            <g id="logo" transform="translate(318.000000, 4355.000000)">
                <path d="M61.3333334,53.2999527 C55.7467244,47.5056475 49.2955372,40.0000001 42.2269129,40.0000001 C35.1059855,40.0000001 29.3333335,45.3725831 29.3333335,52.0000001 C29.3333335,58.6274171 35.1059855,64.0000001 42.2269129,64.0000001 C48.6401596,64.0000001 51.7760384,60.0342622 53.5715858,58.1249264" id="Oval-1"></path>
                <path d="M58.6666666,50.7000475 C64.2532756,56.4943525 70.7044628,64.0000001 77.7730871,64.0000001 C84.8940145,64.0000001 90.6666665,58.6274171 90.6666665,52.0000001 C90.6666665,45.3725831 84.8940145,40.0000001 77.7730871,40.0000001 C71.3598404,40.0000001 68.2239616,43.965738 66.4284142,45.8750735" id="Oval-1-Copy"></path>
                <path d="M120,59.2722161 C120,49.4998533 113.986485,41.1261627 105.444001,37.5914495 C105.483946,36.885402 105.546527,36.1838285 105.546527,35.4643576 C105.546527,15.8793628 89.5671505,0 69.8497991,0 C55.6324459,0 43.3914881,8.27480801 37.6504876,20.2234804 C34.8623187,18.0784913 31.3737791,16.7876498 27.5821001,16.7876498 C18.4861542,16.7876498 11.1122864,24.1134545 11.1122864,33.1484495 C11.1122864,34.8437695 11.371042,36.4853975 11.8574847,38.0232215 C4.76900258,42.2147648 0,49.8730115 0,58.665051 C0,71.8056824 10.6262876,82.4639607 23.8037363,82.6662 L96.3658094,82.6662016 C109.41854,82.7471853 120,72.2374541 120,59.2722161 L120,59.2722161 Z" id="Path"></path>
            </g>
        </g>
    </g>
</svg>