<?xml version="1.0" encoding="UTF-8"?>
<svg width="119px" height="95px" viewBox="0 0 119 95" version="1.1" xmlns="http://www.w3.org/2000/svg" xmlns:xlink="http://www.w3.org/1999/xlink">
    <!-- Generator: Sketch 53 (72520) - https://sketchapp.com -->
    <title>icZeplin</title>
    <desc>Created with Sketch.</desc>
    <g id="Welcome" stroke="none" stroke-width="1" fill="none" fill-rule="evenodd">
        <g id="Desktop-HD" transform="translate(-534.000000, -4302.000000)" fill-rule="nonzero">
            <g id="icZeplin" transform="translate(533.000000, 4302.000000)">
                <path d="M20.1147595,65.0834355 L13.9400479,67.3391422 L13.6085146,85.7084237 L34.9832803,77.8999668 C27.6519862,75.437289 22.2982273,71.1044839 20.1147595,65.0834355" id="Path" fill="#FDBD39"></path>
                <path d="M23.3461501,45.6547684 L1.92194951,53.4813439 L13.9400479,67.3391422 L20.1147595,65.0834355 C17.9376795,59.0799482 19.2802677,52.2935943 23.3461501,45.6547684" id="Path" fill="#F69833"></path>
                <path d="M59.3992649,19.1488728 C32.1175831,29.1151955 14.5292398,49.6808101 20.1147595,65.0834355 L118.910632,28.992058 C113.325113,13.589363 86.681016,9.18248046 59.3992649,19.1488728" id="Path" fill="#FECF33"></path>
                <path d="M79.6260574,74.9266208 C106.907809,64.9602283 124.529201,44.4858344 118.910632,28.992058 L20.1147595,65.0834355 C25.7332591,80.5772815 52.3443757,84.8929434 79.6260574,74.9266208" id="Path" fill="#EE6723"></path>
                <path d="M118.910632,28.992058 L20.1147595,65.0834355 C22.049317,70.4182039 29.4265743,73.0464586 39.7777027,73.0464586 C49.8692282,73.0464586 62.7872919,70.5502611 76.2549022,65.6302713 C103.536723,55.6639487 122.731215,39.5277952 118.910632,28.992058" id="Path" fill="#F69833"></path>
                <path d="M99.247689,21.0289652 C89.1560941,21.0289652 76.2381,23.5252324 62.7703507,28.4451525 C35.488669,38.4115448 16.2941077,54.5476287 20.1147595,65.0834355 L118.910632,28.992058 C116.976075,23.65722 109.598817,21.0289652 99.247689,21.0289652" id="Path" fill="#FDBD39"></path>
                <path d="M93.7915194,86.6811183 L93.7908252,86.6811183 C90.8840941,86.6811183 86.5957546,84.0555118 81.0448115,78.8773306 C74.477745,72.7510544 66.9551683,63.7780538 59.8625087,53.6113804 C52.7701269,43.445125 46.9422234,33.2812389 43.4524104,24.9918702 C39.6501578,15.9585206 39.1080401,10.4042374 41.8410547,8.48316885 C42.440314,8.06239719 43.1626747,7.84922388 43.9879322,7.84922388 C46.2110449,7.84922388 50.5427093,9.50436586 58.552692,17.3898968 L58.7278666,17.5622334 L58.7041906,17.8073235 C58.6494094,18.3738111 58.5989331,18.945386 58.5539418,19.5063684 L58.4646535,20.6203192 L57.6788329,19.8286023 C49.0483448,11.1337932 45.2492166,10.1951059 44.0162601,10.1951059 C43.6646612,10.1951059 43.3846458,10.266605 43.1839206,10.4077217 C41.9984548,11.2406935 41.9221501,15.3204641 45.6084529,24.0772948 C49.0359862,32.2189263 54.7791144,42.2290824 61.7799167,52.2636986 C68.7809969,62.2992903 76.1884568,71.1396759 82.6381153,77.1564039 C89.5930932,83.6442871 92.7272109,84.3448532 93.7519438,84.3448532 C94.1057644,84.3448532 94.3932783,84.2688244 94.6065012,84.1188574 C95.8570932,83.2401708 95.8585513,78.869665 91.7476776,69.4443942 L91.5589641,69.0117061 L91.9720788,68.7855708 C92.3852628,68.5593661 92.7848386,68.3366455 93.1595579,68.1236117 L93.6544625,67.8423539 L93.882613,68.365078 C96.7974673,75.0436257 99.5221501,83.5318818 95.9493671,86.0434104 C95.3469832,86.4665514 94.6210816,86.6811183 93.7915194,86.6811183 L93.7915194,86.6811183 Z M93.7908252,85.6509317 L93.7915629,85.6509317 L93.7910711,86.1659902 L93.7908252,85.6509317 Z" id="Shape" fill="#EE6723"></path>
                <path d="M80.2883603,74.6450146 L80.2468405,75.158331 C79.5571125,83.6927199 77.7410738,93.953053 73.0060151,94.3683195 C72.9107557,94.3768212 72.8119552,94.3812116 72.7131549,94.3812116 C69.4964837,94.3812116 66.4532514,89.772445 63.6681635,80.6827182 C61.033047,72.0833111 58.988233,60.5372481 57.9103853,48.1715235 C56.8324684,35.8083775 56.8486458,24.0814062 57.9558628,15.1510544 C59.1627132,5.41971714 61.4603256,0.337704433 64.7844759,0.0459936 C64.8827209,0.0369342492 64.9845763,0.0322652066 65.085182,0.0322652066 C67.4186902,0.0322652066 70.9355117,2.67452711 74.5357894,14.9817144 L72.184993,15.4354481 C70.9829331,11.3227154 69.6729081,7.97772718 68.3723951,5.67923247 C67.1693632,3.55321371 65.9996583,2.38239816 65.0785165,2.38239816 C65.0482446,2.38239816 65.0177644,2.38365254 64.9877007,2.38623096 C63.5468675,2.51278302 61.4485224,6.00780787 60.2786786,15.4412321 C59.1911799,24.2113731 59.1780574,35.762593 60.2417412,47.9670612 C61.3060497,60.1733412 63.3174673,71.5468585 65.9053015,79.9921873 C67.0642446,83.7746024 68.3354577,86.8918526 69.5814673,89.0071395 C70.7304818,90.9577554 71.8424201,92.0320542 72.7124607,92.0320542 C72.7423853,92.0320542 72.7721713,92.0306604 72.8018878,92.0281517 C74.1805108,91.907314 76.7785513,88.2703361 77.8720208,75.4742233 L80.2883603,74.6450146" id="Path" fill="#EE6723"></path>
            </g>
        </g>
    </g>
</svg>