<?xml version="1.0" encoding="UTF-8"?>
<svg width="120px" height="55px" viewBox="0 0 120 55" version="1.1" xmlns="http://www.w3.org/2000/svg" xmlns:xlink="http://www.w3.org/1999/xlink">
    <!-- Generator: Sketch 53 (72520) - https://sketchapp.com -->
    <title>logo</title>
    <desc>Created with Sketch.</desc>
    <g id="Welcome" stroke="none" stroke-width="1" fill="none" fill-rule="evenodd">
        <g id="Desktop-HD" transform="translate(-421.000000, -1894.000000)" fill="#000000" fill-rule="nonzero">
            <g id="logo" transform="translate(421.000000, 1894.000000)">
                <path d="M3.22580645,51.7639535 L106.451613,51.7639535 L106.451613,13.5901163 L3.22580645,13.5901163 L3.22580645,51.7639535 Z M120,1.61930233 L120,44.6472093 L116.774194,44.6472093 L116.774194,3.23604651 L10.3225806,3.23604651 L10.3225806,0 L120,0 L120,1.61802326 L120,1.61930233 Z M114.83871,6.79569767 L114.83871,49.8236047 L111.612903,49.8236047 L111.612903,8.41244186 L5.16129032,8.41244186 L5.16129032,5.17639535 L114.83871,5.17639535 L114.83871,6.79569767 Z M0,10.3515116 L109.677419,10.3515116 L109.677419,55 L0,55 L0,10.3527907 L0,10.3515116 Z M13.5135484,42.7081395 L20.9922581,42.7081395 C25.3277419,42.7081395 27.6825806,40.9148837 27.6825806,37.3002326 L27.6825806,37.1646512 C27.6825806,34.4734884 26.1922581,33.0613953 23.7264516,32.5983721 C25.8116129,32.027907 26.9780645,30.615814 26.9780645,28.4669767 L26.9780645,28.2495349 C26.9780645,25.0160465 24.8103226,23.2777907 20.72,23.2777907 L13.5096774,23.2777907 L13.5096774,42.7068605 L13.5135484,42.7081395 Z M17.8748387,31.2131395 L17.8748387,26.3782558 L20.0425806,26.3782558 C21.8322581,26.3782558 22.7522581,26.9487209 22.7522581,28.6332558 L22.7522581,28.7969767 C22.7522581,30.5109302 21.9393548,31.2144186 20.0709677,31.2144186 L17.8774194,31.2144186 L17.8748387,31.2131395 Z M17.8748387,39.6127907 L17.8748387,34.0961628 L20.1793548,34.0961628 C22.3174194,34.0961628 23.2374194,34.8840698 23.2374194,36.759186 L23.2374194,36.922907 C23.2374194,38.6880233 22.2903226,39.6127907 20.3393548,39.6127907 L17.8748387,39.6127907 L17.8748387,39.6127907 Z M41.5329032,23.2790698 L41.5329032,35.3189535 C41.5329032,38.2531395 40.6116129,39.4209302 38.3625806,39.4209302 C36.0619355,39.4209302 35.2219355,38.1712791 35.2219355,35.4263953 L35.2219355,23.2790698 L30.7483871,23.2790698 L30.7483871,35.6169767 C30.7483871,40.5081395 33.5122581,43.01 38.3354839,43.01 C43.2387097,43.01 46.0580645,40.5081395 46.0580645,35.5351163 L46.0580645,23.2765116 L41.5329032,23.2765116 L41.5329032,23.2790698 Z M50.0154839,42.7106977 L54.4593548,42.7106977 L54.4593548,35.1002326 L56.6529032,35.1002326 L60.556129,42.7106977 L65.3006452,42.7106977 L60.883871,34.339186 C62.8619355,33.6331395 64.3251613,32.2466279 64.3251613,29.4480233 L64.3251613,29.0131395 C64.3251613,25.099186 61.7522581,23.2803488 57.1458065,23.2803488 L50.0193548,23.2803488 L50.0193548,42.7094186 L50.0154839,42.7106977 Z M54.4593548,32.1110465 L54.4593548,26.7031395 L56.9793548,26.7031395 C58.9019355,26.7031395 59.96,27.3554651 59.96,29.1487209 L59.96,29.5580233 C59.96,31.3487209 58.9277419,32.1110465 56.9793548,32.1110465 L54.4567742,32.1110465 L54.4593548,32.1110465 Z M81.2593548,36.9484884 C81.2593548,32.980814 78.7380645,31.7043023 74.756129,30.8345349 C72.1535484,30.2359302 71.5045161,29.6373256 71.5045161,28.360814 C71.5045161,27.0817442 72.3690323,26.3232558 73.9690323,26.3232558 C75.5948387,26.3232558 76.4335484,27.2748837 76.6529032,28.6895349 L80.8245161,28.1983721 C80.4696774,25.264186 78.3019355,23.007907 74.0206452,23.007907 C69.8206452,23.007907 67.2464516,25.317907 67.2464516,28.6869767 C67.2464516,32.1660465 69.1174194,33.7968605 73.4529032,34.7216279 C75.9716129,35.3189535 76.8929032,35.8344186 76.8929032,37.3846512 C76.8929032,38.7698837 75.8348387,39.6946512 74.1290323,39.6946512 C71.9870968,39.6946512 71.2309677,38.445 70.9870968,36.7873256 L66.7329032,37.2772093 C67.083871,40.4825581 69.4941935,43.01 74.1006452,43.01 C78.6270968,43.01 81.2554839,40.4262791 81.2554839,36.9497674 L81.2593548,36.9484884 Z M87.6812903,42.7094186 L92.1793548,42.7094186 L92.1793548,26.7837209 L97.0270968,26.7837209 L97.0270968,23.2790698 L82.8580645,23.2790698 L82.8580645,26.7837209 L87.6812903,26.7837209 L87.6812903,42.7081395 L87.6812903,42.7094186 Z" id="Shape"></path>
            </g>
        </g>
    </g>
</svg>