<?xml version="1.0" encoding="UTF-8"?>
<svg width="120px" height="120px" viewBox="0 0 120 120" version="1.1" xmlns="http://www.w3.org/2000/svg" xmlns:xlink="http://www.w3.org/1999/xlink">
    <!-- Generator: Sketch 53 (72520) - https://sketchapp.com -->
    <title>smashing-magazine</title>
    <desc>Created with Sketch.</desc>
    <g id="Welcome" stroke="none" stroke-width="1" fill="none" fill-rule="evenodd">
        <g id="Desktop-HD" transform="translate(-699.000000, -1390.000000)" fill="#D33A2C" fill-rule="nonzero">
            <g id="logo" transform="translate(411.000000, 1390.000000)">
                <g id="smashing-magazine" transform="translate(288.000000, -0.000000)">
                    <path d="M70.592381,77.2761905 C68.4193651,75.3184127 65.7707937,73.7590476 63.112381,72.4965079 C56.7368254,69.4657143 50.1825397,66.8273016 43.7955556,63.8326984 C26.044127,55.5098413 14.6898413,36.5907937 27.6044444,14.0444444 L8.7015873,18.3530159 C2.67619048,19.7244444 -1.09301587,25.7238095 0.283809524,31.7488889 L18.3492063,111.035238 C19.7260317,117.060317 25.72,120.830159 31.7552381,119.457778 L39.628254,117.66254 C39.628254,117.61619 39.628254,117.573968 39.628254,117.532063 C34.4247619,115.22381 29.5355556,113.051111 24.2847619,110.72127 C27.3787302,103.372381 30.3050794,96.4257143 33.4044444,89.0546032 C35.3726984,90.2269841 36.7596825,91.1006349 38.1838095,91.9025397 C46.5492063,96.5825397 55.4063492,98.7555556 64.995873,97.1473016 C69.4349206,96.4101587 73.267619,94.7860317 74.5342857,89.8866667 C75.8219048,84.8885714 74.2780952,80.5952381 70.592381,77.2761905 Z" id="Path"></path>
                    <path d="M119.459048,87.9920635 L101.388889,8.70539683 C100.012063,2.68 94.0180952,-1.08920635 87.987619,0.282539683 L76.7111111,2.85301587 C76.7212698,2.85809524 76.7212698,2.86349206 76.7212698,2.86349206 C82.2073016,4.64888889 86.9612698,6.05142857 91.5203175,7.87333333 C92.7298413,8.35492063 95.5460317,9.4752381 95.5460317,9.4752381 C95.5460317,9.4752381 89.9444444,24.012381 87.567619,30.9069841 C78.6060317,23.7457143 70.1260317,21.8088889 60.3520635,23.2533333 C56.1596825,23.8711111 52.0657143,26.7349206 50.8355556,31.0952381 C49.5533333,35.6650794 51.1447619,39.2406349 54.955873,41.7063492 C57.7561905,43.5120635 60.7660317,45.0571429 63.8231746,46.3809524 C69.8015873,48.9777778 75.9784127,51.1079365 81.8834921,53.8355556 C96.4368254,60.5568254 103.933016,71.831746 102.634603,88.0911111 C102.25746,92.7930159 100.875873,98.3733333 99.64,103.864762 C99.6720635,103.900952 99.692381,103.933016 99.7126984,103.96381 L111.029841,101.388889 C117.062222,100.016508 120.831111,94.0171429 119.459048,87.9920635 Z" id="Path"></path>
                </g>
            </g>
        </g>
    </g>
</svg>