<?xml version="1.0" encoding="UTF-8"?>
<svg width="18px" height="16px" viewBox="0 0 18 16" version="1.1" xmlns="http://www.w3.org/2000/svg" xmlns:xlink="http://www.w3.org/1999/xlink">
    <!-- Generator: Sketch 52.6 (67491) - http://www.bohemiancoding.com/sketch -->
    <title>Shape</title>
    <desc>Created with Sketch.</desc>
    <g id="Welcome" stroke="none" stroke-width="1" fill="none" fill-rule="evenodd">
        <g id="Desktop" transform="translate(-533.000000, -316.000000)" fill="#FFFFFF" fill-rule="nonzero">
            <g id="round-favorite_border-24px" transform="translate(533.000000, 316.000000)">
                <path d="M15.7136842,1.67578947 C13.4905263,0.16 10.7452632,0.867368421 9.26315789,2.60210526 C7.78105263,0.867368421 5.03578947,0.151578947 2.81263158,1.67578947 C1.63368421,2.48421053 0.892631579,3.84842105 0.842105263,5.28842105 C0.724210526,8.55578947 3.62105263,11.1747368 8.04210526,15.1915789 L8.12631579,15.2673684 C8.76631579,15.8484211 9.75157895,15.8484211 10.3915789,15.2589474 L10.4842105,15.1747368 C14.9052632,11.1663158 17.7936842,8.54736842 17.6842105,5.28 C17.6336842,3.84842105 16.8926316,2.48421053 15.7136842,1.67578947 Z M9.34736842,13.9368421 L9.26315789,14.0210526 L9.17894737,13.9368421 C5.17052632,10.3073684 2.52631579,7.90736842 2.52631579,5.47368421 C2.52631579,3.78947368 3.78947368,2.52631579 5.47368421,2.52631579 C6.77052632,2.52631579 8.03368421,3.36 8.48,4.51368421 L10.0547368,4.51368421 C10.4926316,3.36 11.7557895,2.52631579 13.0526316,2.52631579 C14.7368421,2.52631579 16,3.78947368 16,5.47368421 C16,7.90736842 13.3557895,10.3073684 9.34736842,13.9368421 Z" id="Shape"></path>
            </g>
        </g>
    </g>
</svg>