<?xml version="1.0" encoding="UTF-8"?>
<svg width="15px" height="12px" viewBox="0 0 15 12" version="1.1" xmlns="http://www.w3.org/2000/svg" xmlns:xlink="http://www.w3.org/1999/xlink">
    <!-- Generator: Sketch 52.6 (67491) - http://www.bohemiancoding.com/sketch -->
    <title>Path</title>
    <desc>Created with Sketch.</desc>
    <g id="Welcome" stroke="none" stroke-width="1" fill="none" fill-rule="evenodd">
        <g id="Desktop" transform="translate(-1244.000000, -34.000000)" fill="#FFFFFF">
            <g id="Button" transform="translate(1207.000000, 20.000000)">
                <g id="Logo__x2014__FIXED" transform="translate(37.000000, 14.000000)">
                    <path d="M4.65089024,12 C10.248366,12 13.3089926,7.38219895 13.3089926,3.38010471 C13.3089926,3.24816754 13.3089926,3.11623037 13.302682,2.99057592 C13.8958756,2.56335079 14.4133423,2.02931937 14.8235294,1.41989529 C14.2808204,1.65863874 13.6939373,1.82198953 13.0755015,1.8973822 C13.7065585,1.52041885 14.1861618,0.929842932 14.4133423,0.219895288 C13.8264593,0.565445026 13.1764706,0.816753927 12.4823079,0.954973822 C11.9269777,0.364397906 11.1381564,0 10.2609872,0 C8.58237548,0 7.21929231,1.35706806 7.21929231,3.02827225 C7.21929231,3.26701571 7.2445346,3.49947644 7.30132973,3.71937173 C4.77079108,3.59371728 2.53053865,2.38743455 1.02862294,0.552879581 C0.769889565,0.99895288 0.61843588,1.52041885 0.61843588,2.07329843 C0.61843588,3.12251309 1.15483435,4.05235602 1.97520847,4.59267016 C1.47667343,4.58010471 1.00969123,4.44188482 0.599504169,4.21570681 C0.599504169,4.22827225 0.599504169,4.2408377 0.599504169,4.25340314 C0.599504169,5.72356021 1.64705882,6.94240838 3.04169484,7.22513089 C2.78927203,7.29424084 2.51791751,7.33193717 2.24025242,7.33193717 C2.04462475,7.33193717 1.85530764,7.31308901 1.66599053,7.27539267 C2.05093532,8.48167539 3.17421681,9.35497382 4.50574713,9.38010471 C3.46450304,10.1905759 2.15190444,10.6743455 0.725715574,10.6743455 C0.479603336,10.6743455 0.239801668,10.6617801 0,10.6303665 C1.33153031,11.4973822 2.93441515,12 4.65089024,12" id="Path"></path>
                </g>
            </g>
        </g>
    </g>
</svg>