<?xml version="1.0" encoding="UTF-8"?>
<svg width="140px" height="32px" viewBox="0 0 140 32" version="1.1" xmlns="http://www.w3.org/2000/svg" xmlns:xlink="http://www.w3.org/1999/xlink">
    <!-- Generator: Sketch 53 (72520) - https://sketchapp.com -->
    <title>logo-dark</title>
    <desc>Created with Sketch.</desc>
    <g id="Welcome" stroke="none" stroke-width="1" fill="none" fill-rule="evenodd">
        <g id="Desktop-HD" transform="translate(-667.000000, -4492.000000)" fill-rule="nonzero">
            <g id="logo-dark" transform="translate(667.000000, 4492.000000)">
                <path d="M11.9771863,0 C5.85551331,0 0,11.3117871 0,19.9619772 C0,26.5893536 5.34980989,31.9391635 11.9771863,31.9391635 C18.6045627,31.9391635 23.9543726,26.5893536 23.9543726,19.9619772 C23.9543726,11.3117871 18.0988593,0 11.9771863,0 Z M11.9771863,25.9505703 C8.67680608,25.9505703 5.98859316,23.2623574 5.98859316,19.9619772 C5.98859316,15.5171103 9.02281369,9.98098859 11.9771863,9.98098859 C14.9315589,9.98098859 17.9657795,15.5171103 17.9657795,19.9619772 C17.9657795,23.2623574 15.2775665,25.9505703 11.9771863,25.9505703 Z" id="Shape" fill="#00BC87"></path>
                <g id="Group" transform="translate(33.269962, 4.524715)" fill="#6B6B6B">
                    <path d="M12.1368821,21.1330798 L9.66159696,21.1330798 L9.4486692,19.6958175 C8.4904943,20.8669202 7.10646388,21.4258555 5.32319392,21.4258555 C3.6730038,21.4258555 2.39543726,21 1.43726236,20.121673 C0.479087452,19.243346 0.0266159696,18.1254753 0.0266159696,16.7148289 C0.0266159696,15.3041825 0.505703422,14.1596958 1.4904943,13.2813688 C2.47528517,12.3764259 3.77946768,11.9239544 5.40304183,11.9239544 C6.97338403,11.9239544 8.17110266,12.3764259 9.04942966,13.2547529 L9.04942966,11.9771863 C9.04942966,10.7262357 8.73003802,9.79467681 8.11787072,9.15589354 C7.50570342,8.51711027 6.62737643,8.19771863 5.5095057,8.19771863 C4.81749049,8.19771863 4.15209125,8.27756654 3.51330798,8.43726236 C2.87452471,8.59695817 2.42205323,8.75665399 2.15589354,8.91634981 L1.70342205,9.15589354 L0.904942966,6.7338403 C1.03802281,6.62737643 1.25095057,6.52091255 1.4904943,6.36121673 C1.73003802,6.22813688 2.31558935,6.0418251 3.19391635,5.80228137 C4.07224335,5.56273764 5.03041825,5.45627376 6.01520913,5.45627376 C7.93155894,5.45627376 9.42205323,5.98859316 10.513308,7.07984791 C11.6045627,8.17110266 12.1368821,9.7148289 12.1368821,11.7376426 L12.1368821,21.1330798 L12.1368821,21.1330798 Z M8.35741445,18.418251 C8.91634981,17.9391635 9.20912548,17.3269962 9.20912548,16.581749 C9.20912548,15.8365019 8.91634981,15.2243346 8.35741445,14.7452471 C7.79847909,14.2661597 7.02661597,14.026616 6.09505703,14.026616 C5.19011407,14.026616 4.47148289,14.2661597 3.91254753,14.7452471 C3.35361217,15.2243346 3.0608365,15.8365019 3.0608365,16.581749 C3.0608365,17.3269962 3.35361217,17.9391635 3.91254753,18.418251 C4.47148289,18.8973384 5.19011407,19.1368821 6.09505703,19.1368821 C7.02661597,19.1368821 7.77186312,18.8973384 8.35741445,18.418251 Z" id="Shape"></path>
                    <polygon id="Path" points="14.2927757 5.74904943 17.5931559 5.74904943 20.973384 16.7148289 24.3536122 5.74904943 27.4676806 5.74904943 22.2775665 21.1064639 19.4296578 21.1064639"></polygon>
                    <path d="M29.4904943,11.5513308 C29.4904943,9.68821293 30.0760456,8.19771863 31.2205323,7.10646388 C32.365019,5.98859316 33.8555133,5.45627376 35.6653992,5.45627376 C37.5019011,5.45627376 38.9923954,5.98859316 40.1102662,7.07984791 C41.2281369,8.17110266 41.7870722,9.63498099 41.7870722,11.4714829 L41.7870722,15.3041825 C41.7870722,17.1939163 41.2015209,18.6577947 40.0570342,19.7756654 C38.9125475,20.8669202 37.4220532,21.4258555 35.5855513,21.4258555 C33.7490494,21.4258555 32.2851711,20.8935361 31.1673004,19.8288973 C30.0494297,18.7642586 29.5171103,17.3003802 29.5171103,15.4106464 L29.5171103,11.5513308 L29.4904943,11.5513308 Z M32.5513308,15.3041825 C32.5513308,16.3688213 32.8441065,17.1939163 33.4030418,17.7794677 C33.9619772,18.391635 34.7072243,18.6844106 35.6387833,18.6844106 C36.5703422,18.6844106 37.2889734,18.391635 37.8479087,17.7794677 C38.4068441,17.1673004 38.6996198,16.3422053 38.6996198,15.3041825 L38.6996198,11.5513308 C38.6996198,10.513308 38.4068441,9.68821293 37.8479087,9.07604563 C37.2889734,8.46387833 36.5437262,8.17110266 35.6387833,8.17110266 C34.7072243,8.17110266 33.9619772,8.46387833 33.4030418,9.07604563 C32.8441065,9.68821293 32.5513308,10.513308 32.5513308,11.5513308 L32.5513308,15.3041825 L32.5513308,15.3041825 Z" id="Shape"></path>
                    <path d="M54.6159696,15.2243346 L57.5703422,15.2243346 L57.5703422,15.5437262 C57.5703422,17.3269962 57.0114068,18.7376426 55.9201521,19.8022814 C54.8022814,20.8669202 53.365019,21.3992395 51.608365,21.3992395 C49.8250951,21.3992395 48.4144487,20.8669202 47.3231939,19.8288973 C46.2319392,18.7908745 45.6996198,17.3536122 45.6996198,15.5171103 L45.6996198,11.418251 C45.6996198,9.60836502 46.2585551,8.14448669 47.3764259,7.07984791 C48.4942966,6.01520913 49.9315589,5.45627376 51.6882129,5.45627376 C53.4448669,5.45627376 54.8555133,5.98859316 55.9467681,7.02661597 C57.0380228,8.06463878 57.5703422,9.47528517 57.5703422,11.2851711 L57.5703422,11.5513308 L54.6159696,11.5513308 L54.6159696,11.365019 C54.6159696,10.4068441 54.3498099,9.63498099 53.8174905,9.04942966 C53.2851711,8.46387833 52.5931559,8.17110266 51.7148289,8.17110266 C50.8098859,8.17110266 50.0912548,8.46387833 49.5855513,9.04942966 C49.0532319,9.63498099 48.7870722,10.4068441 48.7870722,11.418251 L48.7870722,15.4638783 C48.7870722,16.4752852 49.0532319,17.2471483 49.5855513,17.8326996 C50.1178707,18.418251 50.8365019,18.7110266 51.7148289,18.7110266 C52.5931559,18.7110266 53.2851711,18.418251 53.8174905,17.8593156 C54.3498099,17.3003802 54.6159696,16.5285171 54.6159696,15.5703422 L54.6159696,15.2243346 Z" id="Path"></path>
                    <path d="M61.5361217,11.5513308 C61.5361217,9.68821293 62.121673,8.19771863 63.2661597,7.10646388 C64.4106464,5.98859316 65.9011407,5.45627376 67.7110266,5.45627376 C69.5475285,5.45627376 71.0380228,5.98859316 72.1558935,7.07984791 C73.2737643,8.17110266 73.8326996,9.63498099 73.8326996,11.4714829 L73.8326996,15.3041825 C73.8326996,17.1939163 73.2471483,18.6577947 72.1026616,19.7756654 C70.9581749,20.8669202 69.4676806,21.4258555 67.6311787,21.4258555 C65.7946768,21.4258555 64.3307985,20.8935361 63.2129278,19.8288973 C62.095057,18.7642586 61.5627376,17.3003802 61.5627376,15.4106464 L61.5627376,11.5513308 L61.5361217,11.5513308 Z M64.5969582,15.3041825 C64.5969582,16.3688213 64.8897338,17.1939163 65.4486692,17.7794677 C66.0076046,18.391635 66.7528517,18.6844106 67.6844106,18.6844106 C68.6159696,18.6844106 69.3346008,18.391635 69.8935361,17.7794677 C70.4524715,17.1673004 70.7452471,16.3422053 70.7452471,15.3041825 L70.7452471,11.5513308 C70.7452471,10.513308 70.4524715,9.68821293 69.8935361,9.07604563 C69.3346008,8.46387833 68.5893536,8.17110266 67.6844106,8.17110266 C66.7528517,8.17110266 66.0076046,8.46387833 65.4486692,9.07604563 C64.8897338,9.68821293 64.5969582,10.513308 64.5969582,11.5513308 L64.5969582,15.3041825 Z" id="Shape"></path>
                    <path d="M90.0684411,21.1330798 L87.3802281,21.1330798 L87.2205323,19.3231939 C86.3155894,20.7338403 84.9315589,21.4258555 83.095057,21.4258555 C81.4448669,21.4258555 80.1406844,20.9201521 79.2091255,19.9353612 C78.2775665,18.9505703 77.7984791,17.5665399 77.7984791,15.78327 L77.7984791,11.2053232 C77.7984791,9.39543726 78.2775665,8.01140684 79.2623574,6.97338403 C80.2205323,5.96197719 81.5513308,5.45627376 83.2015209,5.45627376 C84.851711,5.45627376 86.1292776,6.0418251 87.0076046,7.18631179 L87.0076046,0.133079848 L90.095057,0.133079848 L90.095057,21.1330798 L90.0684411,21.1330798 Z M86.9809886,11.5513308 C86.9809886,10.513308 86.6882129,9.68821293 86.1292776,9.07604563 C85.5703422,8.46387833 84.8250951,8.17110266 83.9201521,8.17110266 C82.9885932,8.17110266 82.243346,8.46387833 81.6844106,9.07604563 C81.1254753,9.68821293 80.8326996,10.513308 80.8326996,11.5513308 L80.8326996,15.3041825 C80.8326996,16.3688213 81.1254753,17.1939163 81.6844106,17.7794677 C82.243346,18.391635 82.9885932,18.6844106 83.9201521,18.6844106 C84.851711,18.6844106 85.5703422,18.391635 86.1292776,17.7794677 C86.6882129,17.1673004 86.9809886,16.3422053 86.9809886,15.3041825 L86.9809886,11.5513308 Z" id="Shape"></path>
                    <path d="M106.410646,16.2623574 C106.38403,16.3954373 106.357414,16.581749 106.330798,16.8212928 C106.304183,17.0608365 106.144487,17.460076 105.904943,18.0456274 C105.665399,18.6311787 105.346008,19.1634981 104.973384,19.6159696 C104.574144,20.0684411 103.988593,20.4942966 103.190114,20.8669202 C102.391635,21.2395437 101.460076,21.4258555 100.395437,21.4258555 C98.5589354,21.4258555 97.095057,20.8935361 95.9771863,19.8288973 C94.8593156,18.7642586 94.3269962,17.3003802 94.3269962,15.4106464 L94.3269962,11.5513308 C94.3269962,9.68821293 94.9125475,8.19771863 96.0570342,7.10646388 C97.2015209,5.98859316 98.6920152,5.45627376 100.501901,5.45627376 C102.311787,5.45627376 103.749049,5.98859316 104.840304,7.07984791 C105.931559,8.17110266 106.490494,9.63498099 106.490494,11.4714829 L106.490494,13.6806084 L97.3878327,13.6806084 L97.3878327,15.3041825 C97.3878327,16.3688213 97.6806084,17.1939163 98.2395437,17.7794677 C98.7984791,18.391635 99.5437262,18.6844106 100.475285,18.6844106 C101.007605,18.6844106 101.486692,18.5779468 101.885932,18.365019 C102.285171,18.1520913 102.604563,17.9125475 102.790875,17.5931559 C102.977186,17.3003802 103.136882,17.0076046 103.269962,16.7148289 C103.403042,16.4220532 103.48289,16.1825095 103.48289,15.9429658 L103.509506,15.6501901 L106.410646,16.2623574 Z M97.3612167,11.6577947 L103.509506,11.6577947 L103.509506,11.2585551 C103.509506,10.2205323 103.21673,9.39543726 102.657795,8.78326996 C102.098859,8.17110266 101.353612,7.878327 100.448669,7.878327 C99.5171103,7.878327 98.7718631,8.17110266 98.2129278,8.78326996 C97.6539924,9.39543726 97.3612167,10.2205323 97.3612167,11.2585551 L97.3612167,11.6577947 Z" id="Shape"></path>
                </g>
            </g>
        </g>
    </g>
</svg>