<?xml version="1.0" encoding="UTF-8"?>
<svg width="140px" height="35px" viewBox="0 0 140 35" version="1.1" xmlns="http://www.w3.org/2000/svg" xmlns:xlink="http://www.w3.org/1999/xlink">
    <!-- Generator: Sketch 53 (72520) - https://sketchapp.com -->
    <title>Shape</title>
    <desc>Created with Sketch.</desc>
    <g id="Welcome" stroke="none" stroke-width="1" fill="none" fill-rule="evenodd">
        <g id="Desktop-HD" transform="translate(-47.000000, -4433.000000)" fill="#333333" fill-rule="nonzero">
            <g id="logo" transform="translate(47.000000, 4433.000000)">
                <path d="M123.882834,32.4809287 L123.882834,19.0845771 C123.882834,17.1666367 124.378599,15.5895628 125.380536,14.3782364 C126.406849,13.1374384 127.840973,12.5140962 129.629398,12.5140962 C131.206602,12.5140962 132.388098,12.9834284 133.111824,13.949097 C133.793937,14.8592428 134.12448,16.095897 134.12448,17.6451078 L134.12448,32.4809287 L138.695828,32.4809287 L138.695828,17.2271973 C138.695828,14.5727311 138.105572,12.5228465 136.943067,11.0580077 C135.813579,9.63477417 134.032151,8.91542287 131.540752,8.91542287 C129.967907,8.91542287 128.66761,9.24266589 127.628053,9.88892691 C126.576676,10.5425364 125.721718,11.4683017 125.059348,12.6762008 L123.882834,14.8216959 L123.882834,9.49585405 L119.311486,9.49585405 L119.311486,32.4809287 L123.882834,32.4809287 Z M126.966129,8.82417426 C128.217174,8.04643702 129.745957,7.66169153 131.540752,7.66169153 C134.389035,7.66169153 136.536464,8.52883627 137.925121,10.2786423 C139.280761,11.9868432 139.949559,14.3094965 139.949559,17.2271973 L139.949559,33.73466 L132.870749,33.73466 L132.870749,17.6451078 C132.870749,16.346322 132.609688,15.3696208 132.108577,14.7009859 C131.649076,14.0878738 130.843392,13.7678275 129.629398,13.7678275 C128.201878,13.7678275 127.125478,14.235685 126.346615,15.1773191 C125.543374,16.1484249 125.136565,17.4425219 125.136565,19.0845771 L125.136565,33.73466 L118.057754,33.73466 L118.057754,8.24212271 L125.136565,8.24212271 L125.136565,10.3799528 C125.674665,9.76692197 126.284729,9.24777953 126.966129,8.82417426 Z M93.9919266,20.9883914 C93.9919266,22.8291148 94.2328207,24.4900996 94.7123971,25.9729353 C95.1887319,27.4457468 95.8743716,28.7130704 96.7691869,29.7794826 C97.6548206,30.8349521 98.7405377,31.6432572 100.032909,32.2084016 C101.330541,32.7758462 102.822912,33.0613599 104.514627,33.0613599 C106.206342,33.0613599 107.698712,32.7758462 108.996344,32.2084016 C110.288715,31.6432572 111.374433,30.8349521 112.260066,29.7794826 C113.154283,28.7137833 113.83583,27.4473956 114.304628,25.975587 C114.777196,24.49194 115.014572,22.8300324 115.014572,20.9883914 C115.014572,19.1465199 114.777137,17.4804653 114.304354,15.9887272 C113.835698,14.5100063 113.15463,13.2445076 112.261433,12.1873153 C111.375652,11.1389004 110.289458,10.3338504 108.996344,9.76838119 C107.698712,9.20093649 106.206342,8.91542287 104.514627,8.91542287 C102.822912,8.91542287 101.330541,9.20093649 100.032909,9.76838119 C98.7397951,10.3338504 97.6536007,11.1389004 96.7678199,12.1873153 C95.8740235,13.2452172 95.1888656,14.5116503 94.712678,15.9913694 C94.2328825,17.482299 93.9919266,19.1474347 93.9919266,20.9883914 Z M92.7381953,20.9883914 C92.7381953,19.0217005 92.9978272,17.227501 93.5192223,15.6073039 C94.0442248,13.9758963 94.8077376,12.5646337 95.8101355,11.3781905 C96.8205485,10.1822603 98.0628458,9.26151219 99.5305903,8.61967851 C100.993817,7.9798203 102.656666,7.66169153 104.514627,7.66169153 C106.372587,7.66169153 108.035436,7.9798203 109.498663,8.61967851 C110.966407,9.26151219 112.208704,10.1822603 113.219117,11.3781905 C114.222115,12.5653434 114.982133,13.9775403 115.499498,15.6099461 C116.012736,17.2293347 116.268304,19.0226153 116.268304,20.9883914 C116.268304,22.9543979 116.012676,24.7440866 115.499224,26.356088 C114.982001,27.9799278 114.222462,29.3912358 113.220485,30.5853599 C112.209924,31.7897137 110.96715,32.7149457 109.498663,33.3571042 C108.035436,33.9969624 106.372587,34.3150912 104.514627,34.3150912 C102.656666,34.3150912 100.993817,33.9969624 99.5305903,33.3571042 C98.0621032,32.7149457 96.819329,31.7897137 95.8087685,30.5853599 C94.8073894,29.3919487 94.0443585,27.9815766 93.5195027,26.3587397 C92.997889,24.7459269 92.7381953,22.9553156 92.7381953,20.9883914 Z M98.8135709,24.4941957 L98.8135709,17.4593698 C98.8135709,15.8243039 99.3724238,14.5222153 100.487993,13.6080135 C101.568442,12.7225928 102.919128,12.2819237 104.514627,12.2819237 C106.107887,12.2819237 107.456611,12.7133247 108.536543,13.5809693 C109.656502,14.4807715 110.215682,15.7926086 110.215682,17.4593698 L110.215682,24.4941957 C110.215682,26.1759933 109.657018,27.4955965 108.536543,28.3958134 C107.456611,29.2634581 106.107887,29.6948591 104.514627,29.6948591 C102.918016,29.6948591 101.566365,29.2495515 100.485677,28.3552528 C99.3717518,27.4334495 98.8135709,26.1284415 98.8135709,24.4941957 Z M100.067302,24.4941957 C100.067302,25.7698594 100.472373,26.7169018 101.284982,27.3893574 C102.130827,28.0893177 103.198684,28.4411277 104.514627,28.4411277 C105.83392,28.4411277 106.904704,28.0986282 107.751305,27.4184486 C108.557363,26.7708412 108.961951,25.8151771 108.961951,24.4941957 L108.961951,17.4593698 C108.961951,16.1543085 108.557879,15.2063561 107.751305,14.5583342 C106.904704,13.8781546 105.83392,13.5356551 104.514627,13.5356551 C103.197571,13.5356551 102.128749,13.8843645 101.282665,14.5777245 C100.471702,15.2423035 100.067302,16.1845262 100.067302,17.4593698 L100.067302,24.4941957 Z M73.3778159,32.4809287 L73.3778159,27.6203141 L74.5384874,29.5055108 C75.2291362,30.6272833 76.1040029,31.4985286 77.1677915,32.1269387 C78.2196257,32.7482873 79.4748343,33.0613599 80.9447173,33.0613599 C82.4185909,33.0613599 83.6932153,32.7540843 84.7786566,32.1435232 C85.8765307,31.5259686 86.7824632,30.6875888 87.5018087,29.6225931 C88.2322029,28.5412398 88.7753992,27.2712359 89.1300183,25.8091265 C89.4895596,24.326721 89.6698341,22.7200355 89.6698341,20.9883914 C89.6698341,19.2873548 89.4895011,17.683901 89.1295164,16.1771795 C88.7748964,14.6929131 88.2320696,13.4164375 87.5029162,12.3442149 C86.7835151,11.2863336 85.8772186,10.451201 84.7786566,9.83325957 C83.6932153,9.22269851 82.4185909,8.91542287 80.9447173,8.91542287 C79.4599103,8.91542287 78.2014194,9.22844465 77.1579756,9.84891872 C76.1012,10.4773203 75.2295165,11.3488819 74.5384874,12.471272 L73.3778159,14.3564687 L73.3778159,1.39303482 L68.8064682,1.39303482 L68.8064682,32.4809287 L73.3778159,32.4809287 Z M74.6315473,33.73466 L67.5527369,33.73466 L67.5527369,0.139303482 L74.6315473,0.139303482 L74.6315473,10.2876519 C75.19008,9.69245484 75.8188915,9.18654871 76.5171876,8.77131343 C77.7643461,8.02970221 79.2439183,7.66169153 80.9447173,7.66169153 C82.626111,7.66169153 84.1123038,8.01997033 85.3933126,8.74053809 C86.6612011,9.45372555 87.7117473,10.4217811 88.5396408,11.6392014 C89.3577816,12.8422803 89.9602388,14.2589784 90.3489273,15.8858387 C90.7322502,17.4902439 90.9235654,19.1913452 90.9235654,20.9883914 C90.9235654,22.8167429 90.7321917,24.5223516 90.348425,26.104638 C89.9597361,27.7072206 89.3576483,29.1149124 88.5407483,30.3243389 C87.7127992,31.5501231 86.6618885,32.5226704 85.3933126,33.2362446 C84.1123038,33.9568124 82.626111,34.3150912 80.9447173,34.3150912 C79.2593334,34.3150912 77.7840635,33.9471313 76.5301257,33.2063946 C75.8260657,32.7904861 75.1929239,32.2835061 74.6315473,31.6868455 L74.6315473,33.73466 Z M73.3778159,22.7993367 L73.3778159,19.1774461 C73.3778159,17.1472601 73.8390829,15.4957713 74.7766328,14.2401962 C75.7550623,12.9298756 77.3015964,12.2819237 79.3519223,12.2819237 C81.0371783,12.2819237 82.3924907,12.7545577 83.3827693,13.7118071 C84.3758916,14.6718058 84.8709442,15.9656385 84.8709442,17.5522388 L84.8709442,24.4013267 C84.8709442,25.9882243 84.3717861,27.2858725 83.3715007,28.2532619 C82.3743559,29.2176141 81.0226681,29.6948591 79.3519223,29.6948591 C77.3015964,29.6948591 75.7550623,29.0469072 74.7766328,27.7365866 C73.8390829,26.4810115 73.3778159,24.8295227 73.3778159,22.7993367 Z M74.6315473,22.7993367 C74.6315473,24.5767982 75.0197627,25.9667384 75.7812022,26.9864648 C76.501763,27.9514458 77.6705381,28.4411277 79.3519223,28.4411277 C80.7150872,28.4411277 81.7525679,28.0748211 82.4999217,27.3520449 C83.244135,26.6323059 83.6172128,25.6624257 83.6172128,24.4013267 L83.6172128,17.5522388 C83.6172128,16.2908426 83.2476141,15.3248859 82.5114076,14.6132344 C81.7723568,13.8988336 80.730916,13.5356551 79.3519223,13.5356551 C77.6705381,13.5356551 76.501763,14.0253369 75.7812022,14.9903179 C75.0197627,16.0100444 74.6315473,17.3999846 74.6315473,19.1774461 L74.6315473,22.7993367 Z M57.0665016,32.4809287 L57.0665016,12.8855721 L64.5071301,12.8855721 L64.5071301,9.49585405 L52.4951535,9.49585405 L52.4951535,32.4809287 L57.0665016,32.4809287 Z M58.320233,33.73466 L51.2414221,33.73466 L51.2414221,8.24212271 L65.7608614,8.24212271 L65.7608614,14.1393035 L58.320233,14.1393035 L58.320233,33.73466 Z M32.0538336,13.2853619 C32.9147862,12.6130617 34.0138745,12.2819237 35.3294314,12.2819237 C36.6212257,12.2819237 37.6747125,12.6088799 38.4649322,13.2777425 C39.2903911,13.9764324 39.6879884,15.0690245 39.6879884,16.5074627 L39.6879884,18.6622302 L39.1140505,18.7108628 L32.5427075,19.2676675 C30.1679987,19.4866162 28.3846614,20.2531519 27.162918,21.5564208 C25.9371305,22.8640036 25.3300784,24.4054777 25.3300784,26.212272 C25.3300784,27.2471105 25.5008842,28.1718696 25.8398853,28.9907338 C26.179171,29.8102856 26.658278,30.52071 27.2797241,31.1266203 C27.9046323,31.735906 28.6295742,32.2101595 29.4585068,32.5513228 C30.2831065,32.8907029 31.1995163,33.0613599 32.2121039,33.0613599 C33.9283708,33.0613599 35.2877081,32.7030814 36.3039654,32.0001909 C37.347178,31.2786569 38.1853905,30.3017173 38.8218857,29.0605512 L38.9966633,28.7197347 L40.2037965,28.7197347 L40.249305,32.4809287 L48.1730614,32.4809287 L48.1730614,29.1144279 L44.1683196,29.1144279 L44.1683196,16.6003317 C44.1683196,14.0494252 43.4121303,12.1594151 41.9084743,10.8785241 C40.3778388,9.57465036 38.2692035,8.91542287 35.5569736,8.91542287 C34.1878392,8.91542287 32.9261645,9.08189039 31.7706545,9.41349084 C30.6288683,9.7411529 29.6518914,10.2142992 28.8358433,10.8316116 C28.0291551,11.4418437 27.3833975,12.2034734 26.8949819,13.1218696 C26.4975472,13.8691891 26.2527468,14.7255096 26.1628207,15.6948591 L30.7355223,15.6948591 C30.8611887,14.6879209 31.3009651,13.8732615 32.0538336,13.2853619 Z M37.0171406,33.0313182 C35.7731346,33.8917302 34.1668688,34.3150912 32.2121039,34.3150912 C31.0402759,34.3150912 29.9619193,34.114276 28.9813423,33.7107004 C28.0050981,33.3089081 27.1448455,32.7461349 26.4044939,32.0242919 C25.6606803,31.2990733 25.0855191,30.4462187 24.6814968,29.4702944 C24.2771898,28.4936825 24.0763471,27.4063003 24.0763471,26.212272 C24.0763471,24.0875928 24.8041957,22.2393826 26.2482495,20.6989689 C27.6963474,19.1542412 29.7660187,18.2646299 32.4322267,18.0188222 L38.4342571,17.5102408 L38.4342571,16.5074627 C38.4342571,15.4074692 38.1644042,14.6659171 37.6549424,14.2346953 C37.1102414,13.7736462 36.3434092,13.5356551 35.3294314,13.5356551 C34.2785381,13.5356551 33.4511221,13.7849424 32.8254585,14.2735104 C32.2422624,14.7289162 31.9515552,15.3917778 31.9515552,16.3217247 L31.9515552,16.9485904 L24.8582943,16.9485904 L24.8729074,16.3074409 C24.9053891,14.8823078 25.2090918,13.6218384 25.7880507,12.5331884 C26.3615037,11.4548914 27.1264934,10.552635 28.0794733,9.83173829 C29.0230934,9.11792192 30.1394833,8.57725856 31.4248256,8.20839972 C32.6964441,7.84347923 34.074232,7.66169153 35.5569736,7.66169153 C38.5484955,7.66169153 40.9451498,8.410963 42.7214768,9.92412931 C44.5247834,11.4602784 45.4220509,13.7028969 45.4220509,16.6003317 L45.4220509,27.8606965 L49.4267927,27.8606965 L49.4267927,33.73466 L39.0106513,33.73466 L38.9794517,31.1560643 C38.4167941,31.8900774 37.7624433,32.5158325 37.0171406,33.0313182 Z M30.1289684,26.8855721 L30.1290467,24.786112 C30.1490441,23.5210465 30.817033,22.7219504 32.0195503,22.5928903 L39.6879884,21.9047434 L39.6879884,23.5422885 C39.6879884,25.2126177 39.2140332,26.6548579 38.2657889,27.8450182 C37.2869777,29.0735436 35.933326,29.6948591 34.2599833,29.6948591 C33.128853,29.6948591 32.183518,29.4906479 31.4289638,29.0698838 C30.5797465,28.5963324 30.1289684,27.8422265 30.1289684,26.8855721 Z M32.1425222,23.840528 C31.6047952,23.8982827 31.3929632,24.1516913 31.3826998,24.7960199 L31.3826998,26.8855721 C31.3826998,27.3838725 31.5842026,27.7209664 32.0395669,27.9748924 C32.5895943,28.2816056 33.3280544,28.4411277 34.2599833,28.4411277 C35.559873,28.4411277 36.549882,27.9867214 37.2852302,27.0637712 C38.0511454,26.1024558 38.4342571,24.9366513 38.4342571,23.5422885 L38.4342571,23.27601 L32.1425222,23.840528 Z M19.8545133,13.3694955 C19.3267689,12.3427866 18.6420028,11.5050589 17.7978769,10.8501837 C16.9425811,10.1866428 15.985572,9.70020269 14.9229447,9.3893841 C13.8431097,9.07353223 12.7115698,8.91542287 11.5265174,8.91542287 C9.97416585,8.91542287 8.59043498,9.19197841 7.3698479,9.74228256 C6.15099253,10.2918059 5.10791755,11.081914 4.23524134,12.1171346 C3.35768529,13.158144 2.6800095,14.4313195 2.20349208,15.9415302 C1.72311788,17.4639642 1.48165594,19.1923257 1.48165594,21.1276949 C1.48165594,22.9423514 1.70119955,24.5850999 2.13834121,26.0570226 C2.56977535,27.5097271 3.21641353,28.7491244 4.07782208,29.7806049 C4.93588162,30.8080751 5.9878033,31.6103604 7.23942495,32.1908564 C8.48735891,32.769642 9.95259628,33.0613599 11.6402884,33.0613599 C12.8804825,33.0613599 14.040181,32.8855138 15.1216897,32.5347271 C16.1927842,32.1873182 17.1470851,31.6680007 17.9885229,30.9753805 C18.8232278,30.2883025 19.5009118,29.4320207 20.0236203,28.4013672 C20.4624089,27.5361829 20.7694701,26.5284047 20.9425491,25.3764511 L16.3733147,25.3764511 C16.1324573,26.8441512 15.6279459,27.9224492 14.8323153,28.5948667 C13.9584791,29.3333787 12.787656,29.6948591 11.3444836,29.6948591 C9.87514523,29.6948591 8.65000343,29.2082237 7.70917397,28.2393603 C6.76823802,27.2703874 6.30330016,25.9482197 6.30330016,24.3084577 L6.30330016,17.6451078 C6.30330016,15.8703749 6.79751512,14.5079561 7.80908583,13.6025567 C8.78932458,12.7252006 9.96230296,12.2819237 11.2989752,12.2819237 C12.6148002,12.2819237 13.7321095,12.625258 14.6289305,13.3182241 C15.4601025,13.9604638 15.9744396,15.0009563 16.1971959,16.4145937 L20.7679266,16.4145937 C20.6047339,15.2494504 20.2994116,14.2350299 19.8545133,13.3694955 Z M0.227924603,21.1276949 C0.227924603,19.0696776 0.487050405,17.2148798 1.00786669,15.5642741 C1.53253977,13.9014452 2.28836522,12.481447 3.27666416,11.3090677 C4.26984299,10.1308997 5.46424346,9.2261657 6.8545512,8.59934266 C8.2431272,7.97330039 9.80224543,7.66169153 11.5265174,7.66169153 C12.8292716,7.66169153 14.0793158,7.83635941 15.2749137,8.18607193 C16.4877193,8.54081777 17.5861539,9.09914333 18.5663739,9.85960072 C19.5577639,10.6287238 20.3595917,11.6096622 20.9695637,12.796342 C21.5776051,13.9792659 21.9511409,15.3767681 22.0945019,16.9858285 L22.1553096,17.6683251 L15.0765977,17.6683251 L15.0211537,17.1026028 C14.884789,15.7112059 14.4864196,14.7925043 13.8623617,14.3103 C13.1967188,13.7959632 12.3496005,13.5356551 11.2989752,13.5356551 C10.2691972,13.5356551 9.39431665,13.8662786 8.64522638,14.5367468 C7.92746807,15.1791715 7.5570315,16.2003663 7.5570315,17.6451078 L7.5570315,24.3084577 C7.5570315,25.6405182 7.91123718,26.647791 8.60861296,27.3659464 C9.30609517,28.0842115 10.2046589,28.4411277 11.3444836,28.4411277 C12.5104744,28.4411277 13.3950949,28.1680097 14.0230444,27.6373058 C14.6318117,27.1228135 15.0384556,26.1445495 15.2041685,24.6791462 L15.2670911,24.1227197 L22.344826,24.1227197 L22.2758976,24.8119644 C22.1168523,26.4023249 21.7400984,27.7886928 21.14177,28.9684504 C20.5419316,30.1511855 19.7557757,31.1445259 18.7853038,31.9433591 C17.8215648,32.7366502 16.7280068,33.3317494 15.5084988,33.7272961 C14.299405,34.1194651 13.0092575,34.3150912 11.6402884,34.3150912 C9.77830522,34.3150912 8.13383091,33.9876886 6.71192359,33.3282149 C5.29370386,32.6704516 4.09298078,31.7546777 3.11552442,30.5842376 C2.14141706,29.4178077 1.4152313,28.0259433 0.936492267,26.4139559 C0.46346076,24.8211866 0.227924603,23.0587729 0.227924603,21.1276949 Z" id="Shape"></path>
            </g>
        </g>
    </g>
</svg>