<?xml version="1.0" encoding="UTF-8"?>
<svg width="140px" height="29px" viewBox="0 0 140 29" version="1.1" xmlns="http://www.w3.org/2000/svg" xmlns:xlink="http://www.w3.org/1999/xlink">
    <!-- Generator: Sketch 53 (72520) - https://sketchapp.com -->
    <title>44e01805165bfde4e6e4322c540abf81</title>
    <desc>Created with Sketch.</desc>
    <g id="Welcome" stroke="none" stroke-width="1" fill="none" fill-rule="evenodd">
        <g id="Desktop-HD" transform="translate(-156.000000, -2725.000000)" fill="#1F4056">
            <g id="44e01805165bfde4e6e4322c540abf81" transform="translate(156.000000, 2725.000000)">
                <path d="M5.78568421,19.9022167 C5.52140351,19.1516 5.40350877,18.1984667 5.40350877,16.9282667 C5.40350877,15.6571 5.52140351,14.7049333 5.78568421,13.9538333 C6.49059649,11.8175 8.34105263,10.6333333 10.78,10.6333333 C12.6014737,10.6333333 14.0122807,11.3554333 14.9814737,12.5101167 C15.0267697,12.5588303 15.0493422,12.6239372 15.0437464,12.6897324 C15.0381506,12.7555277 15.0048945,12.8160377 14.952,12.8566667 L13.3653333,14.2428667 C13.2474386,14.3298667 13.1010526,14.3298667 13.0131228,14.1848667 C12.3966316,13.5207667 11.7801404,13.1457 10.7809825,13.1457 C9.69438596,13.1457 8.87157895,13.6652833 8.51887719,14.7049333 C8.34203509,15.3110333 8.28308772,16.0041333 8.28308772,16.9282667 C8.28308772,17.8514333 8.34203509,18.5740167 8.54835088,19.1806 C8.90203509,20.1907667 9.72385965,20.7398333 10.8109474,20.7398333 C11.809614,20.7398333 12.4565614,20.3642833 13.0440702,19.7006667 C13.1324912,19.5846667 13.2798596,19.5846667 13.3967719,19.6716667 L14.9834386,21.0573833 C15.1013333,21.1443833 15.0718596,21.2884167 15.0129123,21.4039333 C14.0432281,22.5301 12.6329123,23.2517167 10.8114386,23.2517167 C8.37298246,23.2227167 6.4925614,22.06755 5.78764912,19.9022167 L5.78568421,19.9022167 Z M60.3129825,19.9022167 C60.0487018,19.1516 59.930807,18.1984667 59.930807,16.9282667 C59.930807,15.6571 60.0487018,14.7049333 60.3129825,13.9538333 C61.0178947,11.8175 62.8688421,10.6333333 65.3072982,10.6333333 C67.1287719,10.6333333 68.5690526,11.3554333 69.5087719,12.5101167 C69.5540679,12.5588303 69.5766404,12.6239372 69.5710446,12.6897324 C69.5654488,12.7555277 69.5321927,12.8160377 69.4792982,12.8566667 L67.8926316,14.2428667 C67.7747368,14.3298667 67.6283509,14.3298667 67.5404211,14.1848667 C66.9239298,13.5207667 66.3074386,13.1457 65.3082807,13.1457 C64.2216842,13.1457 63.3988772,13.6652833 63.0461754,14.7049333 C62.8413333,15.3110333 62.7809123,16.0041333 62.7809123,16.9282667 C62.7809123,17.8514333 62.8413333,18.5740167 63.0461754,19.1806 C63.3998596,20.1907667 64.2221754,20.7398333 65.3087719,20.7398333 C66.3074386,20.7398333 66.954386,20.3642833 67.5418947,19.7006667 C67.6303158,19.5846667 67.7776842,19.5846667 67.8945965,19.6716667 L69.4812632,21.0573833 C69.5991579,21.1443833 69.5696842,21.2884167 69.5107368,21.4039333 C68.5410526,22.5301 67.1307368,23.2517167 65.3092632,23.2517167 C62.870807,23.2227167 61.0198596,22.06755 60.3149474,19.9022167 L60.3129825,19.9022167 Z M124.243368,22.9341667 C124.096982,22.9341667 123.979579,22.8471667 123.979579,22.6741333 L123.979579,15.7441 C123.979579,14.1848667 123.186246,13.1167 121.688,13.1167 C120.219228,13.1167 119.366947,14.1848667 119.366947,15.7441 L119.366947,22.6741333 C119.366947,22.8191333 119.278526,22.9341667 119.102667,22.9341667 L116.781614,22.9341667 C116.634246,22.9341667 116.517333,22.8471667 116.517333,22.6741333 L116.517333,15.7441 C116.517333,14.1848667 115.724,13.1167 114.225263,13.1167 C112.756491,13.1167 111.904211,14.1848667 111.904211,15.7441 L111.904211,22.6741333 C111.904211,22.8191333 111.817263,22.9341667 111.640912,22.9341667 L109.31986,22.9341667 C109.172491,22.9341667 109.054596,22.8471667 109.054596,22.6741333 L109.054596,11.1529167 C109.054596,11.0088833 109.143018,10.8933667 109.31986,10.8933667 L111.640421,10.8933667 C111.787789,10.8933667 111.904702,10.9803667 111.904702,11.1529167 L111.904702,12.0195333 L111.934175,12.0195333 C112.463719,11.2689167 113.520842,10.6333333 115.136982,10.6333333 C116.576281,10.6333333 117.722807,11.2109167 118.457684,12.2215667 L118.487158,12.2215667 C119.426386,11.2114 120.631368,10.6333333 122.364421,10.6333333 C125.185053,10.6333333 126.771719,12.5391167 126.771719,15.109 L126.771719,22.7031333 C126.771719,22.8481333 126.683298,22.9631667 126.506456,22.9631667 L124.244842,22.9341667 L124.243368,22.9341667 Z M130.049684,27.1788 C129.902316,27.1788 129.784421,27.0918 129.784421,26.9187667 L129.784421,24.9264667 C129.784421,24.7814667 129.872842,24.6669167 130.049684,24.6669167 L130.490316,24.6669167 C131.46,24.6669167 131.929614,24.2333667 132.311789,23.2517167 L132.664491,22.24155 L128.227719,10.8928833 C128.170246,10.74885 128.286667,10.6333333 128.434035,10.6333333 L130.93193,10.6333333 C131.079298,10.6333333 131.196211,10.7203333 131.225684,10.8933667 L133.957895,18.7475333 L134.016842,18.7475333 L136.631649,10.8933667 C136.690596,10.7483667 136.779018,10.6333333 136.924912,10.6333333 L139.304912,10.6333333 C139.451298,10.6333333 139.569193,10.7203333 139.510246,10.8933667 L134.927088,23.45375 C133.869474,26.3121833 132.870316,27.2078 130.843509,27.2078 L130.050175,27.1788 L130.049684,27.1788 Z M24.3992982,19.1506333 C24.605614,18.5160167 24.6635789,17.9374667 24.6635789,16.9273 C24.6635789,15.9171333 24.6046316,15.36855 24.3992982,14.7039667 C24.0465965,13.6938 23.2532632,13.1452167 22.137193,13.1452167 C21.0206316,13.1452167 20.1983158,13.7228 19.845614,14.70445 C19.6392982,15.33955 19.5803509,15.8886167 19.5803509,16.9277833 C19.5803509,17.93795 19.6392982,18.5160167 19.845614,19.1511167 C20.1983158,20.1612833 20.9916491,20.7108333 22.137193,20.7108333 C23.2532632,20.7398333 24.0465965,20.1617667 24.3992982,19.1511167 L24.3992982,19.1506333 Z M17.1134035,19.9017333 C16.8491228,19.0646 16.7017544,18.2564667 16.7017544,16.9277833 C16.7017544,15.5995833 16.8196491,14.82045 17.1134035,13.9538333 C17.7888421,11.8465 19.6392982,10.6333333 22.1077193,10.6333333 C24.5461754,10.6333333 26.3971228,11.8465 27.0725614,13.9538333 C27.3378246,14.7909667 27.4842105,15.5995833 27.4842105,16.9277833 C27.4842105,18.25695 27.3663158,19.0351167 27.0725614,19.9017333 C26.3971228,22.0090667 24.5461754,23.2222333 22.1077193,23.2222333 C19.6692632,23.2222333 17.8183158,22.0090667 17.1134035,19.9017333 L17.1134035,19.9017333 Z M76.2818246,10.6333333 C74.2835088,10.6333333 72.9611228,11.0954 71.9919298,11.8175 C71.9035088,11.9045 71.8740351,12.0195333 71.9329825,12.1345667 L72.873193,13.7808 C72.9601404,13.8958333 73.1075088,13.9248333 73.2244211,13.8388 C73.8124211,13.3767333 74.6342456,13.0011833 75.9861053,13.0011833 C77.9549474,13.0011833 78.6308772,13.5773167 78.6893333,14.8765167 L78.6893333,18.8906 C78.6893333,20.2763167 77.7201404,20.9399333 75.9865965,20.9399333 C74.6357193,20.9399333 73.9013333,20.4498333 73.9013333,19.4391833 C73.9013333,18.3130167 74.6941754,17.8224333 76.5156491,17.8224333 L77.0741754,17.8224333 C77.2205614,17.8224333 77.3384561,17.7354333 77.3384561,17.5628833 L77.3384561,15.97465 C77.3384561,15.8306167 77.2500351,15.7146167 77.0741754,15.7146167 L76.0750175,15.7146167 C73.0785263,15.7146167 71.2275789,16.9277833 71.2275789,19.5261833 C71.2275789,22.0380667 73.0785263,23.1937167 75.3111579,23.1937167 C77.0157193,23.1937167 78.1602807,22.6161333 78.7192982,21.8075167 L78.7487719,21.8075167 L78.7487719,22.67365 C78.7487719,22.81865 78.837193,22.9336833 79.0140351,22.9336833 L81.1292632,22.9336833 C81.2766316,22.9336833 81.3945263,22.8466833 81.3945263,22.67365 L81.3945263,14.8484833 C81.333614,11.9045 79.9817544,10.6333333 76.2808421,10.6333333 L76.2818246,10.6333333 Z M46.5350175,15.7151 C46.4760702,15.7151 46.4171228,15.7441 46.4171228,15.8311 L46.4171228,17.7078833 C46.4171228,17.7658833 46.4465965,17.8238833 46.5350175,17.8238833 L52.7637895,17.8238833 C52.9396491,17.8238833 53.0280702,17.7368833 53.0280702,17.56385 C53.0280702,15.6285833 52.9101754,14.79145 52.6164211,13.95335 C51.9404912,11.9040167 50.1190175,10.63285 47.621614,10.63285 C45.2126316,10.63285 43.333193,11.8460167 42.6567719,13.95335 C42.3929825,14.7344167 42.245614,15.6865833 42.245614,16.92875 C42.245614,18.16995 42.4224561,19.0940833 42.6862456,19.8737 C43.3621754,21.9810333 45.1836491,23.2232 47.7395088,23.2232 C49.9721404,23.2232 51.6762105,22.3855833 52.7338246,21.1738667 C52.8222456,21.0578667 52.8222456,20.9128667 52.7043509,20.8268333 L51.2355789,19.5266667 C51.1191579,19.4396667 50.9722807,19.4396667 50.8548772,19.5846667 C50.2378947,20.2482833 49.3861053,20.7398333 48.0047719,20.7398333 C46.6538947,20.7398333 45.6837193,20.1037667 45.3020351,18.9200833 C45.2430877,18.7460833 45.1841404,18.5735333 45.1546667,18.4000167 C45.0533853,17.8278989 45.0045574,17.2479838 45.0087719,16.6672667 C45.0382456,15.9741667 45.0677193,15.5411 45.1561404,14.9925167 L45.1561404,14.9345167 C45.185614,14.7909667 45.2141053,14.67545 45.2435789,14.5599333 C45.5677895,13.5778 46.4780351,13.0007 47.6235789,13.0007 C48.769614,13.0007 49.6513684,13.5768333 49.9741053,14.5589667 C50.0744483,14.8864872 50.1238031,15.2270708 50.1204912,15.5691333 C50.1204912,15.6561333 50.0615439,15.7141333 49.9731228,15.7141333 L46.5369825,15.7141333 L46.5350175,15.7151 Z M39.9034386,5.8 L37.582386,5.8 C37.4350175,5.8 37.3181053,5.887 37.3181053,6.06003333 L37.3181053,17.4077333 C37.2886316,18.1008333 37.2002105,18.5629 37.0823158,18.9669667 C36.7581053,19.9771333 35.9657544,20.4976833 34.8197193,20.4976833 C33.7031579,20.4976833 32.9098246,19.94765 32.5870877,18.9655167 C32.4102456,18.4174167 32.3218246,17.81035 32.3218246,16.7131833 C32.3218246,15.6160167 32.4102456,15.0099167 32.5870877,14.46085 C32.9093333,13.4796833 33.6727018,12.9311 34.7607719,12.9021 L35.7614035,12.9021 C35.8193684,12.9021 35.8488421,12.8441 35.8488421,12.7870667 L35.8488421,10.5057333 C35.8488421,10.4477333 35.8193684,10.4187333 35.7604211,10.3897333 L34.0273684,10.3897333 C32.0005614,10.4187333 30.5312982,11.3718667 29.9143158,13.27765 C29.6205614,14.2017833 29.4736842,15.0389167 29.4736842,16.65615 C29.4736842,18.2729 29.5915789,19.1105167 29.9143158,20.03465 C30.5312982,21.96895 32.0590175,22.9220833 34.1157895,22.9220833 C35.7614035,22.9220833 36.7595789,22.3155 37.3185965,21.5068833 L37.3480702,21.5068833 L37.3480702,22.40105 C37.3480702,22.54605 37.4355088,22.66205 37.6118596,22.66205 L39.9329123,22.66205 C40.0802807,22.66205 40.197193,22.57505 40.197193,22.40105 L40.197193,5.945 C40.1677193,5.887 40.0498246,5.80096667 39.9034386,5.80096667 L39.9034386,5.8 Z M100.570105,15.7151 C100.511158,15.7151 100.452211,15.7441 100.452211,15.8311 L100.452211,17.7078833 C100.452211,17.7658833 100.481684,17.8238833 100.570105,17.8238833 L106.798877,17.8238833 C106.974737,17.8238833 107.063158,17.7368833 107.063158,17.56385 C107.063158,15.6285833 106.945263,14.79145 106.651509,13.95335 C105.975579,11.9040167 104.154105,10.63285 101.656702,10.63285 C99.2477193,10.63285 97.3682807,11.8460167 96.6918596,13.95335 C96.4275789,14.7339333 96.2807018,15.6861 96.2807018,16.9282667 C96.2807018,18.1694667 96.4575439,19.0936 96.7213333,19.8732167 C97.3972632,21.98055 99.2187368,23.2227167 101.774596,23.2227167 C104.007228,23.2227167 105.711298,22.3851 106.768912,21.1733833 C106.857333,21.0573833 106.857333,20.9123833 106.739439,20.82635 L105.27214,19.5261833 C105.154246,19.4391833 105.006877,19.4391833 104.889965,19.5841833 C104.272982,20.2482833 103.421193,20.73935 102.03986,20.73935 C100.688982,20.73935 99.718807,20.1037667 99.3371228,18.9200833 C99.2781754,18.7460833 99.2192281,18.5735333 99.1897544,18.4000167 C99.0884708,17.8280618 99.0396428,17.248307 99.0438596,16.66775 C99.0733333,15.97465 99.102807,15.5415833 99.1912281,14.993 L99.1912281,14.935 C99.2207018,14.7919333 99.249193,14.6764167 99.2786667,14.5609 C99.6028772,13.5787667 100.513123,13.0016667 101.658667,13.0016667 C102.804702,13.0016667 103.686456,13.5782833 104.009193,14.5604167 C104.109536,14.8879372 104.158891,15.2285208 104.155579,15.5705833 C104.155579,15.6575833 104.096632,15.7155833 104.008211,15.7155833 L100.57207,15.7155833 L100.570105,15.7151 Z M93.9385263,5.8 L91.6174737,5.8 C91.4701053,5.8 91.353193,5.887 91.353193,6.06003333 L91.353193,17.4367333 C91.3237193,18.12935 91.2352982,18.5919 91.1174035,18.9959667 C90.793193,20.0061333 90.0008421,20.5552 88.854807,20.5552 C87.7087719,20.5552 86.9449123,20.0061333 86.6221754,18.9959667 C86.4453333,18.4473833 86.3569123,17.8408 86.3569123,16.7436333 C86.3569123,15.6464667 86.4453333,15.0398833 86.6221754,14.4913 C86.9444211,13.5101333 87.7077895,12.9605833 88.7958596,12.9320667 L89.7945263,12.9320667 C89.9409123,12.9320667 90.0583158,12.8450667 90.0583158,12.6720333 L90.0583158,10.6797333 C90.0583158,10.5347333 89.9698947,10.4197 89.7940351,10.4197 L88.0894737,10.4197 C86.0621754,10.4487 84.5639298,11.4018333 83.9469474,13.3071333 C83.653193,14.2312667 83.5063158,15.0688833 83.5063158,16.7146333 C83.5063158,18.3318667 83.6242105,19.198 83.9469474,20.1221333 C84.5639298,22.0564333 86.0916491,23.0095667 88.1484211,23.0095667 C89.7940351,23.0095667 90.7922105,22.4029833 91.3807018,21.59485 L91.409193,21.59485 L91.409193,22.4890167 C91.409193,22.6340167 91.497614,22.7485667 91.6734737,22.7485667 L93.9945263,22.7485667 C94.1418947,22.7485667 94.2597895,22.6615667 94.2597895,22.4885333 L94.2597895,6.03055 C94.2008421,5.88555 94.0829474,5.79951667 93.9365614,5.79951667 L93.9385263,5.8 Z M60.4210526,26.5833333 L60.4210526,28.5166667 C60.4210526,28.8801333 60.5070175,29 60.9122807,29 L68.7719298,29 C69.1487018,29 69.2631579,28.9101 69.2631579,28.5166667 L69.2631579,26.5833333 C69.2631579,26.2198667 69.177193,26.1 68.7719298,26.1 L60.4210526,26.1 C60.5070175,26.1 60.4210526,26.1899 60.4210526,26.5833333 L60.4210526,26.5833333 Z" id="Shape"></path>
                <path d="M3.43368421,26.1 L2.94736842,26.1 C3.00631579,26.071 2.94736842,25.9849667 2.94736842,26.1 L2.94736842,2.9 C2.94736842,3.01503333 3.00631579,2.929 2.94736842,2.9 L55.5087719,2.9 C55.4498246,2.929 55.5087719,3.01503333 55.5087719,2.9 L55.5087719,25.6166667 C55.5087719,25.95645 55.4498246,26.042 55.5087719,26.1 L3.43368421,26.1 Z M58.4561404,0 C58.397193,0.087 58.397193,0.058 58.4561404,0 C58.397193,0.058 58.397193,0.058 58.4561404,0 C58.3382456,0.029 58.2792982,0 57.9649123,0 L0,0 C0.0589473684,0.058 0,0.145 0,0.483333333 L0,29 C0,28.855 0.0294736842,28.913 0,29 L57.9649123,29 C58.2792982,29 58.3382456,28.971 58.4561404,29 C58.4266667,28.884 58.4561404,28.826 58.4561404,28.5166667 L58.4561404,0 Z" id="Shape"></path>
            </g>
        </g>
    </g>
</svg>