<?xml version="1.0" encoding="UTF-8"?>
<svg width="180px" height="29px" viewBox="0 0 180 29" version="1.1" xmlns="http://www.w3.org/2000/svg" xmlns:xlink="http://www.w3.org/1999/xlink">
    <!-- Generator: Sketch 53 (72520) - https://sketchapp.com -->
    <title>frontendmasters.0e71088726</title>
    <desc>Created with Sketch.</desc>
    <defs>
        <linearGradient x1="-0.022232283%" y1="50.0054492%" x2="99.9862231%" y2="50.0054492%" id="linearGradient-1">
            <stop stop-color="#000000" stop-opacity="0" offset="67%"></stop>
            <stop stop-color="#000000" offset="100%"></stop>
        </linearGradient>
        <linearGradient x1="23.6719148%" y1="128.826975%" x2="74.3002481%" y2="15.1973348%" id="linearGradient-2">
            <stop stop-color="#000000" stop-opacity="0" offset="40%"></stop>
            <stop stop-color="#3D3D3D" offset="100%"></stop>
        </linearGradient>
    </defs>
    <g id="Welcome" stroke="none" stroke-width="1" fill="none" fill-rule="evenodd">
        <g id="Desktop-HD" transform="translate(-403.000000, -2904.000000)" fill-rule="nonzero">
            <g id="frontendmasters.0e71088726" transform="translate(403.000000, 2904.000000)">
                <polygon id="Path" fill="#333333" points="8.43178808 9.88211921 1.0807947 9.88211921 1.0807947 16.3708609 6.60397351 16.3708609 6.60397351 17.2847682 1.07483444 17.2847682 1.07483444 25.418543 0 25.418543 0 8.96821192 8.43178808 8.96821192"></polygon>
                <path d="M10.418543,25.418543 L9.33774834,25.418543 L9.33774834,17.0562914 L8.91059603,13.1960265 L9.93377483,13.1960265 L10.3450331,16.6231788 C11.1397351,14.9543046 12.4013245,13.0807947 14.481457,13.0807947 C16.4900662,13.0807947 17.0225166,15.0993377 17.0225166,16.7364238 L15.9476821,16.7364238 C15.9258278,15.6178808 15.8562914,13.994702 14.3940397,13.994702 C13.1602649,13.994702 10.4205298,15.9139073 10.4205298,20.5072848 L10.418543,25.418543 Z" id="Path" fill="#333333"></path>
                <path d="M18.3456954,19.3649007 C18.3456954,14.6582781 20.7675497,13.0807947 22.9609272,13.0807947 C24.9715232,13.0807947 27.6,14.4298013 27.6,19.3649007 C27.6,24.3 24.9953642,25.6708609 22.9609272,25.6708609 C20.9264901,25.6708609 18.3456954,24.3 18.3456954,19.3649007 Z M26.5251656,19.3649007 C26.5251656,17.010596 25.9291391,14.0006623 22.9609272,14.0006623 C19.9927152,14.0006623 19.418543,17.0165563 19.418543,19.3649007 C19.418543,21.713245 20.0145695,24.7569536 22.9609272,24.7569536 C25.9072848,24.7569536 26.5251656,21.7172185 26.5251656,19.3649007 Z" id="Shape" fill="#333333"></path>
                <path d="M30.5701987,25.418543 L29.4953642,25.418543 L29.4953642,19.3649007 C29.4953642,17.3086093 29.4278146,15.2523179 29.0145695,13.1960265 L30.0198675,13.1960265 L30.4549669,16.6688742 L30.5006623,16.6688742 C30.9576159,14.8629139 32.8847682,13.0807947 34.7960265,13.0807947 C36.981457,13.0807947 37.6072848,14.9761589 37.6072848,16.8059603 L37.6072848,25.4205298 L36.5324503,25.4205298 L36.5324503,17.3086093 C36.5324503,15.9178808 36.5324503,13.994702 34.6589404,13.994702 C32.9225166,13.994702 30.5682119,15.7311258 30.5682119,20.4377483 L30.5701987,25.418543 Z" id="Path" fill="#333333"></path>
                <path d="M47.4317881,14.2470199 L42.9993377,14.2470199 L42.9993377,22.4960265 C42.9993377,23.6622517 43.4344371,24.7589404 44.918543,24.7589404 C46.2675497,24.7589404 47.2033113,23.7536424 47.7298013,22.6112583 L48.7569536,22.8615894 C48.0039735,24.4152318 46.6768212,25.6728477 44.8728477,25.6728477 C43.3112583,25.6708609 41.9205298,24.915894 41.9205298,21.8543046 L41.9205298,14.2470199 L39.2066225,14.2470199 L39.2066225,13.3331126 L41.9205298,13.3331126 L41.9205298,9.44900662 L42.9953642,9.44900662 L42.9953642,13.3331126 L47.4278146,13.3331126 L47.4317881,14.2470199 Z" id="Path" fill="#333333"></path>
                <path d="M59.0066225,24.5741722 C57.615894,25.1900662 56.2410596,25.6708609 54.6874172,25.6708609 C51.1450331,25.6708609 49.8437086,22.492053 49.8437086,19.4324503 C49.8437086,16.3728477 51.1927152,13.0748344 54.7569536,13.0748344 C56.7913907,13.0748344 59.189404,14.5370861 59.189404,19.5417219 L50.9264901,19.5417219 C51.1251656,23.7913907 52.8913907,24.7509934 54.7430464,24.7509934 C56.1139073,24.7509934 57.4172185,24.2483444 58.5596026,23.5589404 L59.0066225,24.5741722 Z M58.1145695,18.6337748 C58.2298013,16.5536424 56.9960265,13.994702 54.6178808,13.994702 C52.2397351,13.994702 50.8430464,16.507947 50.9165563,18.6337748 L58.1145695,18.6337748 Z" id="Shape" fill="#333333"></path>
                <path d="M62.0980132,25.418543 L61.0231788,25.418543 L61.0231788,19.3649007 C61.0231788,17.3086093 60.9536424,15.2523179 60.5423841,13.1960265 L61.5476821,13.1960265 L61.986755,16.6688742 L62.0324503,16.6688742 C62.489404,14.8629139 64.4165563,13.0807947 66.3278146,13.0807947 C68.513245,13.0807947 69.1390728,14.9761589 69.1390728,16.8059603 L69.1390728,25.4205298 L68.0642384,25.4205298 L68.0642384,17.3086093 C68.0642384,15.9178808 68.0642384,13.994702 66.1907285,13.994702 C64.4543046,13.994702 62.1,15.7311258 62.1,20.4377483 L62.0980132,25.418543 Z" id="Path" fill="#333333"></path>
                <path d="M79.7821192,21.1688742 C79.7821192,22.6529801 79.897351,24.1152318 80.3304636,25.5397351 L79.3251656,25.6768212 L78.892053,23.6900662 C78.297569,24.9243814 77.0393551,25.700099 75.6695364,25.6768212 C73.6350993,25.6768212 70.9847682,24.0099338 70.9847682,19.3013245 C70.9847682,14.4576159 74.0701987,13.086755 75.7370861,13.086755 C76.8180008,13.0824932 77.8684756,13.4445568 78.7172185,14.1139073 L78.7172185,8.46556291 L79.792053,8.46556291 L79.7821192,21.1688742 Z M78.7072848,15.1827815 C77.9543046,14.5211921 77.0165563,13.9907285 76.0112583,13.9907285 C74.6403974,13.9907285 72.0576159,14.9284768 72.0576159,19.3549669 C72.0576159,23.5271523 74.318543,24.7470199 75.6913907,24.7470199 C77.2231788,24.7470199 78.2046358,23.6264901 78.7072848,22.3251656 L78.7072848,15.1827815 Z" id="Shape" fill="#333333"></path>
                <path d="M135.921854,18.7410596 C135.937748,18.8245033 135.950331,18.907947 135.959603,18.9913907 C135.968874,19.0748344 135.972848,19.1582781 135.971523,19.2417219 C135.968797,19.8370374 135.757949,20.4126525 135.375497,20.8688742 C134.812325,21.6202447 134.201815,22.3349398 133.547682,23.0086093 C133.04602,23.5269839 132.511112,24.0121177 131.946358,24.4609272 C131.548147,24.7803674 131.120383,25.0611082 130.668874,25.2993377 C130.400336,25.4539131 130.101355,25.5481498 129.792715,25.5754967 C129.394201,25.5717291 129.00292,25.4686167 128.654305,25.2754967 C128.286336,25.0832605 127.991749,24.7754109 127.815894,24.3993377 C127.817263,24.1885416 127.842591,23.9785843 127.891391,23.7735099 C127.957229,23.5033818 128.040855,23.2379022 128.141722,22.9788079 C128.258278,22.6701987 128.421192,22.294702 128.630464,21.8523179 C128.839735,21.4099338 129.110596,20.8549669 129.443046,20.1874172 C129.178146,20.1874172 129.002649,20.2536424 128.916556,20.3860927 C128.13245,21.4377483 127.460927,22.2986755 126.901987,22.9688742 C126.343046,23.6390728 125.862914,24.1688742 125.461589,24.5582781 C125.167253,24.8661488 124.833184,25.1334039 124.468212,25.3529801 C124.25489,25.4791075 124.014337,25.5520229 123.766887,25.5655629 C123.015172,25.4946893 122.332787,25.0964495 121.901325,24.4768212 C121.437276,23.7772703 121.20512,22.9494334 121.237748,22.110596 C121.226549,20.8846687 121.460257,19.6688459 121.925166,18.5344371 C122.34612,17.495416 122.930297,16.5302838 123.655629,15.6754967 C124.304424,14.9089355 125.084884,14.2643829 125.960265,13.7721854 C126.683771,13.3444778 127.504217,13.107916 128.344371,13.0847682 C128.857444,13.0697639 129.367145,13.1723838 129.834437,13.3847682 C130.32629,13.6512212 130.763683,14.0077405 131.123841,14.4357616 C131.64028,14.0656675 132.199237,13.7588411 132.788742,13.5218543 C133.126899,13.3786297 133.485687,13.2901065 133.851656,13.2596026 C134.160431,13.255177 134.447559,13.4177311 134.602649,13.6847682 C134.519205,14.002649 134.402649,14.4 134.25298,14.8768212 C134.103311,15.3536424 133.940397,15.8543046 133.764238,16.3788079 C133.589404,16.9086093 133.409934,17.4384106 133.225828,17.9682119 C133.041722,18.4980132 132.871523,18.9986755 132.715232,19.4701987 C132.565563,19.9377483 132.433113,20.3463576 132.317881,20.6960265 C132.234351,20.9407202 132.171221,21.1919092 132.129139,21.4470199 C132.129139,21.6139073 132.237748,21.697351 132.454967,21.697351 C132.578475,21.6784549 132.697192,21.6359599 132.804636,21.5721854 C133.043998,21.4396938 133.270186,21.2846882 133.480132,21.1092715 C133.763576,20.884106 134.10596,20.5794702 134.507285,20.1953642 C134.908609,19.8112583 135.380132,19.3264901 135.921854,18.7410596 Z M130.13245,16.013245 C129.664901,15.5801325 129.222517,15.3629139 128.805298,15.3615894 C128.438411,15.3615894 128.029801,15.5536424 127.57947,15.9377483 C127.08762,16.3685493 126.657719,16.865309 126.301987,17.4139073 C125.89701,18.0288469 125.563717,18.6881004 125.308609,19.3788079 C125.053971,20.0293475 124.919345,20.7206519 124.911258,21.4192053 C124.898977,21.6106159 124.95223,21.8005044 125.062252,21.9576159 C125.150424,22.0762456 125.289945,22.1456373 125.437748,22.1443709 C125.587417,22.1443709 125.841722,21.9688742 126.200662,21.6178808 C126.634913,21.1810113 127.040398,20.7164619 127.41457,20.2271523 C127.864901,19.6509934 128.33245,18.9960265 128.817219,18.2622517 C129.293474,17.5353655 129.732452,16.784727 130.13245,16.013245 L130.13245,16.013245 Z" id="Shape" fill="#C02D28"></path>
                <path d="M137.598675,16.013245 C137.679169,15.5381018 137.831228,15.0779066 138.049669,14.6483444 C138.24995,14.2468142 138.50688,13.8761402 138.812583,13.5476821 C139.085996,13.2533158 139.407883,13.0080365 139.764238,12.8225166 C140.084518,12.652945 140.440922,12.5629922 140.803311,12.5602649 C141.136104,12.5533449 141.458897,12.6742146 141.705298,12.8980132 C141.97061,13.1543631 142.138481,13.4950233 142.180132,13.8615894 C142.051094,14.1138816 141.891628,14.3494115 141.705298,14.5629139 C141.505298,14.797351 141.288079,15.0311258 141.053642,15.2642384 C141.102908,15.6544154 141.212843,16.0344973 141.37947,16.3907285 C141.562252,16.807947 141.754305,17.2543046 141.955629,17.7298013 C142.161328,18.22067 142.341047,18.7220259 142.49404,19.2317881 C142.653592,19.7634684 142.733925,20.3157585 142.73245,20.8708609 C142.720657,21.4765294 142.529102,22.065025 142.182119,22.5615894 C141.800513,23.1358074 141.331239,23.6466459 140.791391,24.0754967 C140.233719,24.52503 139.614086,24.8917238 138.951656,25.1642384 C138.350499,25.4255978 137.703758,25.5660175 137.048344,25.5774834 C136.485333,25.585321 135.92427,25.5096645 135.383444,25.3529801 C134.936391,25.2236207 134.510685,25.0295095 134.119868,24.7768212 C133.79608,24.5713914 133.518659,24.3007367 133.305298,23.9821192 C133.123996,23.7156759 133.023922,23.4023397 133.017219,23.0801325 C133.014526,22.675134 133.078286,22.2724365 133.20596,21.8880795 C133.357043,21.4730172 133.572236,21.0841946 133.843709,20.7357616 C133.976159,20.5688742 134.193377,20.3145695 134.495364,19.9728477 C134.797351,19.6311258 135.128477,19.2430464 135.488742,18.8086093 C135.847682,18.3754967 136.219205,17.9165563 136.603311,17.4317881 C136.960488,16.9772738 137.292764,16.5037313 137.598675,16.013245 L137.598675,16.013245 Z M138.07947,18.1410596 C137.912583,18.3754967 137.7,18.6403974 137.441722,18.9357616 C137.183444,19.2311258 136.903974,19.5443709 136.603311,19.8754967 C136.302649,20.2013245 135.990066,20.5324503 135.665563,20.8688742 C135.34106,21.205298 135.036424,21.5225166 134.751656,21.8205298 C135.11375,22.2990839 135.564273,22.7037452 136.078808,23.0125828 C136.507385,23.2800803 137.000207,23.4269658 137.505298,23.4377483 C137.897161,23.4418339 138.273256,23.2836293 138.544371,23.0006623 C138.835762,22.7092715 138.982119,22.2708609 138.983444,21.6854305 C138.98153,21.3821467 138.94824,21.079875 138.884106,20.7834437 C138.817155,20.4666897 138.733596,20.1536749 138.633775,19.8456954 C138.533113,19.5370861 138.433113,19.2364238 138.333775,18.9437086 C138.234437,18.6509934 138.149669,18.3834437 138.07947,18.1410596 Z" id="Shape" fill="#C02D28"></path>
                <path d="M152.441722,18.7927152 C152.457616,18.8761589 152.470199,18.9596026 152.47947,19.0430464 C152.47947,19.1264901 152.491391,19.2099338 152.491391,19.2933775 C152.500011,19.8906768 152.28776,20.4701227 151.895364,20.9205298 C151.292929,21.7423709 150.623062,22.5125851 149.892715,23.2231788 C149.353324,23.7463166 148.771166,24.2234729 148.152318,24.6496689 C147.722126,24.9506374 147.254632,25.194402 146.761589,25.3748344 C146.44852,25.4906369 146.119515,25.557644 145.786093,25.5735099 C144.60581,25.5764926 143.552165,24.834242 143.157616,23.7218543 L145.436424,16.3708609 L144.834437,16.4900662 C144.739778,16.2074076 144.688859,15.9119458 144.683444,15.6139073 C144.693829,15.2268698 144.791634,14.8471959 144.969536,14.5033113 C145.103227,14.2158555 145.31621,13.9725448 145.583444,13.8019868 L146.25894,13.7264901 L147.309934,10.4463576 C147.710804,10.3459452 148.122506,10.2952331 148.535762,10.2953642 C149.020691,10.2804754 149.501997,10.3834176 149.938411,10.5953642 C150.277848,10.7440056 150.534456,11.0347794 150.639735,11.3900662 L150.043709,13.3430464 L152.427815,13.0927152 C152.403856,13.4558955 152.315036,13.8118478 152.165563,14.1437086 C152.0071,14.5066107 151.791818,14.8419414 151.527815,15.1370861 L149.342384,15.6119205 L147.689404,21.194702 C147.689404,21.7629139 147.864901,22.0463576 148.215894,22.0450331 C148.480795,22.0450331 148.956291,21.8112583 149.642384,21.3437086 C150.328477,20.8761589 151.261589,20.0258278 152.441722,18.7927152 Z" id="Path" fill="#C02D28"></path>
                <path d="M163.080795,18.4668874 C163.115357,18.6482585 163.131994,18.8325899 163.130464,19.0172185 C163.10548,19.3391047 163.033871,19.6556548 162.917881,19.9569536 C162.805996,20.2732278 162.650163,20.5721851 162.454967,20.8450331 C161.286755,22.4145695 160.101987,23.5953642 158.900662,24.3874172 C157.812159,25.1455528 156.521734,25.5607031 155.195364,25.5794702 C153.827152,25.5794702 152.800662,25.2291391 152.115894,24.5284768 C151.431126,23.8278146 151.088742,22.8933775 151.088742,21.7251656 C151.091921,21.2832745 151.142543,20.8430023 151.239735,20.4119205 C151.330753,19.9821187 151.44752,19.5581756 151.589404,19.1423841 C151.894605,18.2645749 152.315535,17.4313995 152.84106,16.6649007 C153.323719,15.9521849 153.900458,15.3079473 154.555629,14.7496689 C155.152298,14.2432408 155.822123,13.8299587 156.542384,13.5238411 C157.194087,13.2408685 157.896158,13.0922107 158.606623,13.086755 C159.64106,13.086755 160.429801,13.307947 160.972848,13.7503311 C161.518608,14.2011705 161.819765,14.8830077 161.78543,15.5900662 C161.780396,15.8680614 161.729375,16.1433055 161.634437,16.4046358 C161.541493,16.6875138 161.407622,16.9552553 161.237086,17.1993377 C161.040523,17.4238324 160.817739,17.6239374 160.57351,17.7953642 C160.14815,18.1087785 159.705027,18.3973394 159.246358,18.6596026 C158.703311,18.9774834 158.068874,19.3086093 157.343046,19.6529801 C156.569405,20.0184052 155.77614,20.340752 154.966887,20.618543 C154.94797,20.7176436 154.935362,20.8178451 154.929139,20.918543 C154.929139,21.0357616 154.917219,21.1609272 154.917219,21.2940397 C154.902509,21.7077509 155.055876,22.109801 155.342384,22.4086093 C155.625828,22.7013245 156.084768,22.8476821 156.719205,22.8476821 C157.437086,22.8476821 158.329801,22.5165563 159.397351,21.8543046 C160.464901,21.192053 161.692715,20.0629139 163.080795,18.4668874 Z M157.748344,15.0874172 C157.589013,15.1143288 157.441138,15.1875754 157.323179,15.2980132 C157.091248,15.4960604 156.890338,15.7277776 156.727152,15.9854305 C156.473099,16.3657036 156.247326,16.7641269 156.051656,17.1774834 C155.789638,17.73506 155.571752,18.3123265 155.4,18.9039735 C156.071576,18.6149731 156.723911,18.2831652 157.35298,17.910596 C157.713651,17.7019507 158.047283,17.449725 158.346358,17.1596026 C158.586452,16.8568523 158.711721,16.4789349 158.7,16.0927152 C158.7,15.4225166 158.382781,15.0874172 157.748344,15.0874172 Z" id="Shape" fill="#C02D28"></path>
                <path d="M173.046358,18.7410596 C173.081952,18.8195711 173.098949,18.9052371 173.096026,18.9913907 L173.096026,19.2417219 C173.094481,19.5327728 173.039252,19.8210411 172.933113,20.092053 C172.826902,20.3717173 172.678858,20.6336406 172.49404,20.8688742 C171.913207,21.6514496 171.282073,22.3954051 170.604636,23.0960265 C170.100972,23.6174349 169.561227,24.1027404 168.989404,24.5483444 C168.593544,24.8647288 168.160539,25.1316034 167.7,25.3430464 C167.413285,25.4798779 167.103112,25.5607926 166.786093,25.581457 C166.304554,25.5820091 165.833929,25.4380531 165.435099,25.1682119 C164.971062,24.8383652 164.600132,24.3942069 164.358278,23.8788079 C164.426051,23.3813031 164.565233,22.8961754 164.771523,22.4384106 C165.015265,21.8766113 165.29122,21.3293441 165.598013,20.7993377 C165.923841,20.2324503 166.266225,19.6695364 166.625166,19.110596 C166.984106,18.5516556 167.315232,18.0218543 167.618543,17.5211921 C167.617257,17.4169841 167.582423,17.3159648 167.519205,17.2331126 C167.411171,17.1133746 167.274424,17.0231212 167.121854,16.9708609 C166.904636,16.8874172 166.670861,16.8039735 166.42053,16.7205298 C166.170199,16.6370861 165.971523,16.5622517 165.824503,16.4960265 C165.427152,17.1304636 164.968212,17.7927152 164.447682,18.4827815 C163.927152,19.1728477 163.388742,19.8490066 162.83245,20.5112583 C162.27351,21.1735099 161.710596,21.7993377 161.143709,22.3887417 C160.638568,22.9228297 160.103959,23.4282543 159.542384,23.902649 C159.41075,23.788629 159.311403,23.642007 159.254305,23.4774834 C159.194382,23.3002716 159.164827,23.1142099 159.166887,22.9271523 C159.16681,22.7107108 159.200322,22.4955681 159.266225,22.289404 C159.33106,22.0852429 159.432737,21.8946821 159.566225,21.7271523 C160.093718,21.320676 160.580144,20.8635283 161.018543,20.3622517 C161.514956,19.8091379 161.979292,19.2280545 162.409272,18.6218543 C162.834437,18.0205298 163.213907,17.4490066 163.547682,16.9072848 C163.881457,16.3655629 164.123179,15.9443709 164.272848,15.6437086 C163.990364,15.2309541 163.841908,14.7411896 163.847682,14.2410596 C163.857122,13.5790811 164.071607,12.9363184 164.461589,12.4013245 C164.813327,11.8828071 165.377682,11.5478351 166.001325,11.4874172 C166.016696,11.7151368 166.067645,11.9390429 166.152318,12.1509934 C166.270699,12.3998556 166.456556,12.6104934 166.688742,12.7589404 C167.074363,13.0130607 167.485141,13.226772 167.91457,13.3966887 C168.444371,13.6218543 169.162252,13.8761589 170.068212,14.1596026 C170.490196,14.2787683 170.89151,14.4616709 171.258278,14.7019868 C171.533775,14.9019868 171.671523,15.2443709 171.671523,15.7291391 C171.503295,16.2413933 171.285023,16.735833 171.019868,17.205298 C170.717881,17.7629139 170.4,18.3192053 170.066225,18.8741722 C169.73245,19.4291391 169.423841,19.9589404 169.140397,20.4635762 C168.900758,20.8671584 168.715701,21.3007397 168.590066,21.7529801 C168.584828,21.8598284 168.631429,21.9626472 168.715232,22.0291391 C168.79275,22.0936777 168.890524,22.1288483 168.991391,22.1284768 C169.181316,22.0934509 169.361122,22.016779 169.517881,21.9039735 C169.838519,21.7043684 170.147621,21.486803 170.443709,21.2523179 C170.866929,20.919817 171.272139,20.5650098 171.657616,20.189404 C172.097351,19.7589404 172.560265,19.2761589 173.046358,18.7410596 Z" id="Path" fill="#C02D28"></path>
                <path d="M174.721192,16.013245 C174.801686,15.5381018 174.953744,15.0779066 175.172185,14.6483444 C175.372467,14.2468142 175.629396,13.8761402 175.935099,13.5476821 C176.208513,13.2533158 176.5304,13.0080365 176.886755,12.8225166 C177.207035,12.652945 177.563438,12.5629922 177.925828,12.5602649 C178.258621,12.5533449 178.581414,12.6742146 178.827815,12.8980132 C179.093126,13.1543631 179.260998,13.4950233 179.302649,13.8615894 C179.173611,14.1138816 179.014145,14.3494115 178.827815,14.5629139 C178.627815,14.797351 178.410596,15.0311258 178.176159,15.2642384 C178.225424,15.6544154 178.33536,16.0344973 178.501987,16.3907285 C178.684768,16.807947 178.876821,17.2543046 179.078146,17.7298013 C179.283845,18.22067 179.463564,18.7220259 179.616556,19.2317881 C179.776109,19.7634684 179.856442,20.3157585 179.854967,20.8708609 C179.843174,21.4765294 179.651619,22.065025 179.304636,22.5615894 C178.92303,23.1358074 178.453756,23.6466459 177.913907,24.0754967 C177.356235,24.52503 176.736603,24.8917238 176.074172,25.1642384 C175.473015,25.4255978 174.826275,25.5660175 174.170861,25.5774834 C173.60785,25.585321 173.046786,25.5096645 172.50596,25.3529801 C172.058908,25.2236207 171.633202,25.0295095 171.242384,24.7768212 C170.918596,24.5713914 170.641175,24.3007367 170.427815,23.9821192 C170.246513,23.7156759 170.146438,23.4023397 170.139735,23.0801325 C170.137042,22.675134 170.200803,22.2724365 170.328477,21.8880795 C170.47956,21.4730172 170.694753,21.0841946 170.966225,20.7357616 C171.098675,20.5688742 171.315894,20.3145695 171.617881,19.9728477 C171.919868,19.6311258 172.250993,19.2430464 172.611258,18.8086093 C172.970199,18.3754967 173.341722,17.9165563 173.725828,17.4317881 C174.083005,16.9772738 174.41528,16.5037313 174.721192,16.013245 L174.721192,16.013245 Z M175.196026,18.1410596 C175.029139,18.3754967 174.816556,18.6403974 174.558278,18.9357616 C174.3,19.2311258 174.02053,19.5443709 173.719868,19.8754967 C173.419205,20.2013245 173.106623,20.5324503 172.782119,20.8688742 C172.457616,21.205298 172.15298,21.5225166 171.868212,21.8205298 C172.230307,22.2990839 172.68083,22.7037452 173.195364,23.0125828 C173.623942,23.2800803 174.116763,23.4269658 174.621854,23.4377483 C175.013717,23.4418339 175.389813,23.2836293 175.660927,23.0006623 C175.952318,22.7092715 176.098675,22.2708609 176.1,21.6854305 C176.098086,21.3821467 176.064796,21.079875 176.000662,20.7834437 C175.933711,20.4666897 175.850152,20.1536749 175.750331,19.8456954 C175.649669,19.5370861 175.549669,19.2364238 175.450331,18.9437086 C175.350993,18.6509934 175.266887,18.3834437 175.198013,18.1410596 L175.196026,18.1410596 Z" id="Shape" fill="#C02D28"></path>
                <path d="M123.808609,4.45231788 C123.236424,5.94768212 122.695364,7.55298013 122.18543,9.26821192 C121.675497,10.9834437 121.238411,12.6708609 120.874172,14.3304636 C120.500662,15.9913907 120.198013,17.5741722 119.966225,19.0788079 C119.75603,20.3492785 119.64048,21.6336054 119.62053,22.9211921 C119.611966,23.366993 119.672964,23.8114033 119.801325,24.2384106 C119.889554,24.5645626 120.080423,24.853653 120.345695,25.0629139 C119.983303,25.5323912 119.497738,25.8920944 118.943046,26.1019868 C118.393402,26.32603 117.806119,26.4433516 117.212583,26.4476821 C116.438762,26.4696301 115.68519,26.1985715 115.102649,25.6887417 C114.52649,25.1854305 114.238411,24.3291391 114.238411,23.1198675 C114.253101,22.5069724 114.308188,21.8957128 114.403311,21.2900662 C114.513245,20.5099338 114.672848,19.6251656 114.882119,18.6357616 C115.091391,17.6463576 115.340397,16.5682119 115.629139,15.4013245 C115.915232,14.2357616 116.223179,13.0596026 116.55298,11.8728477 C116.458368,11.868276 116.363662,11.8796944 116.272848,11.9066225 C116.199421,11.945151 116.137156,12.0019421 116.092053,12.0715232 L108.011921,24.405298 C107.186804,24.7086223 106.31784,24.8757049 105.439073,24.9 C104.956683,24.9118604 104.47887,24.8040112 104.048344,24.5860927 C103.633328,24.3549861 103.325259,23.9706125 103.190066,23.5152318 C103.256291,22.9218543 103.316556,22.2596026 103.370861,21.5284768 C103.425166,20.797351 103.480132,20.0390728 103.535762,19.2536424 C103.590066,18.4735099 103.639735,17.6874172 103.684768,16.8953642 C103.729801,16.1033113 103.762914,15.3337748 103.784106,14.586755 C103.805298,14.1470199 103.816556,13.7403974 103.817881,13.3668874 L103.817881,12.202649 C103.813188,12.0883553 103.785483,11.9761834 103.736424,11.8728477 C103.678332,11.8199572 103.599587,11.7958965 103.521854,11.8072848 C101.740397,15.0178808 100.196026,17.7165563 98.8887417,19.9033113 C97.8215049,21.726558 96.6603398,23.4931736 95.4099338,25.1960265 C94.3980132,26.5364238 93.4854305,27.4986755 92.6721854,28.0827815 C91.8589404,28.6668874 91.0642384,28.9582781 90.2880795,28.9569536 C89.4579354,28.9747319 88.6608068,28.6319666 88.102649,28.0172185 C87.5198675,27.3907285 87.118543,26.5384106 86.8986755,25.4602649 C87.0469945,25.510212 87.2032391,25.5324364 87.3596026,25.5258278 C88.286755,25.5258278 89.1940397,25.1357616 90.081457,24.3556291 C91.0969284,23.4350582 92.0089456,22.4064573 92.8013245,21.2880795 C93.7284768,20.0245033 94.6794702,18.584106 95.6543046,16.9668874 C96.6291391,15.3496689 97.6682119,13.7059603 98.7715232,12.0357616 C99.1937603,11.3557981 99.6974923,10.7299695 100.271523,10.1721854 C100.706784,9.77144837 101.279288,9.5531149 101.870861,9.56225166 C102.260856,9.57065243 102.648418,9.62601842 103.025166,9.72715232 C103.131856,9.74390528 103.240556,9.71340428 103.322956,9.64359269 C103.405357,9.57378111 103.453302,9.47156923 103.454305,9.36357616 C103.300662,7.58211921 102.762252,6.2192053 101.839073,5.27483444 C100.915894,4.33046358 99.607947,3.85761589 97.9152318,3.85629139 C96.5568336,3.84979646 95.218554,4.18453714 94.0231788,4.82980132 C92.8172664,5.47609822 91.7479142,6.34979608 90.8741722,7.40264901 C89.0089621,9.67625121 87.9895067,12.5260923 87.989404,15.4668874 C87.989404,16.4788079 88.297351,17.1410596 88.913245,17.4536424 C88.5565327,17.9466839 88.094311,18.3539277 87.5602649,18.6456954 C87.0446686,18.928783 86.4656804,19.0764352 85.8774834,19.0748344 C85.0506331,19.0955431 84.2494496,18.7867909 83.6503311,18.2165563 C83.0450331,17.6456954 82.7430464,16.7331126 82.7443709,15.4788079 C82.7396792,14.0981166 82.9680521,12.7265356 83.4198675,11.4218543 C83.8725906,10.1206267 84.4937658,8.88428757 85.2675497,7.74437086 C86.0522822,6.58533521 86.9771643,5.52765976 88.0211921,4.59536424 C89.0616865,3.66116167 90.2008569,2.84309076 91.418543,2.15562914 C92.6099998,1.47934807 93.8770196,0.945866056 95.1933775,0.566225166 C96.4651423,0.19550862 97.782599,0.00491209722 99.1072848,0 C102.339073,0 104.768874,1.00066225 106.396689,3.00198675 C108.024503,5.00331126 108.837748,8.12516556 108.836424,12.3675497 C108.836424,12.6761589 108.831126,13.0827815 108.82053,13.5874172 C108.809934,14.092053 108.793377,14.6086093 108.770861,15.1370861 C108.748344,15.6668874 108.72649,16.1562914 108.705298,16.605298 C108.684106,17.0543046 108.662252,17.3788079 108.639735,17.5788079 C108.734356,17.5836114 108.8291,17.5721882 108.919868,17.5450331 C108.98776,17.5097857 109.040665,17.4512377 109.068874,17.3801325 L117.743046,4.71655629 C118.007947,4.27682119 118.249669,4.05695364 118.468212,4.05695364 C118.533775,4.05695364 118.627152,4.05695364 118.748344,4.0410596 C118.843268,4.03488721 118.937217,4.01822955 119.028477,3.99139073 C119.358278,3.61788079 119.864238,3.43112583 120.546358,3.43112583 C121.049186,3.44070109 121.548411,3.51822462 122.030464,3.6615894 C122.654269,3.84881046 123.251767,4.11451319 123.808609,4.45231788 L123.808609,4.45231788 Z" id="Path" fill="#C02D28"></path>
                <g id="Group" opacity="0.4" transform="translate(92.582781, 6.754967)" fill="url(#linearGradient-1)">
                    <path d="M11.2390728,5.44768212 C11.23438,5.33338845 11.2066749,5.22121655 11.1576159,5.11788079 C11.0995236,5.06499036 11.0207794,5.04092964 10.9430464,5.05231788 C9.1615894,8.26291391 7.61721854,10.9615894 6.30993377,13.1483444 C5.24269697,14.9715911 4.08153186,16.7382067 2.83112583,18.4410596 C1.81986755,19.7821192 -0.697350993,15.7966887 0.226490066,14.5331126 C1.15033113,13.2695364 2.1,11.8291391 3.0794702,10.2119205 C4.0589404,8.59470199 5.09403974,6.95364238 6.19470199,5.28278146 C6.61693913,4.60281796 7.12067108,3.97698939 7.69470199,3.4192053 C8.12996326,3.01846824 8.70246634,2.80013476 9.29403974,2.80927152 C9.68403489,2.8176723 10.0715968,2.87303829 10.4483444,2.97417219 C10.5550348,2.99092515 10.6637347,2.96042414 10.7461352,2.89061256 C10.8285358,2.82080098 10.8764806,2.7185891 10.8774834,2.61059603 C10.8264643,1.93564141 10.6971186,1.26891066 10.492053,0.62384106 C10.3986755,0.337748344 10.3211921,0.164900662 10.2933775,0.0834437086 C10.9390728,1.3986755 11.1874172,3.18874172 11.2390728,4.37086093 C11.2470199,4.68278146 11.2390728,5.44768212 11.2390728,5.44768212 Z" id="Path"></path>
                </g>
                <path d="M119.02649,3.99139073 C118.72053,4.52781457 117.208609,9.91192053 116.55298,11.8728477 C116.44143,11.8605085 116.328578,11.8769233 116.225166,11.9205298 C115.231788,12.615894 112.462252,13.1980132 112.025166,13.0370861 C113.046358,11.5927152 116.745695,6.1589404 117.74106,4.71655629 C117.804636,4.61324503 118.104636,4.06291391 118.466225,4.05695364 C118.490066,4.05695364 118.551656,4.05695364 118.702649,4.04503311 C118.812244,4.03914942 118.920852,4.0211592 119.02649,3.99139073 Z" id="Path" fill="url(#linearGradient-2)" opacity="0.41"></path>
            </g>
        </g>
    </g>
</svg>