<?xml version="1.0" encoding="UTF-8"?>
<svg width="109px" height="120px" viewBox="0 0 109 120" version="1.1" xmlns="http://www.w3.org/2000/svg" xmlns:xlink="http://www.w3.org/1999/xlink">
    <!-- Generator: Sketch 53 (72520) - https://sketchapp.com -->
    <title>Auth0-Logo-Light-BG</title>
    <desc>Created with Sketch.</desc>
    <g id="Welcome" stroke="none" stroke-width="1" fill="none" fill-rule="evenodd">
        <g id="Desktop-HD" transform="translate(-1016.000000, -733.000000)" fill="#EB5424" fill-rule="nonzero">
            <g id="Auth0-Logo-Light-BG" transform="translate(1016.000000, 733.000000)">
                <g id="Untitled">
                    <path d="M86.565387,97.0435714 L74.3649205,59.9978571 L106.301904,37.1085714 L66.8245254,37.1085714 L54.6233349,0.0642857143 L54.6197144,0.0542857143 L94.1028859,0.0542857143 L106.306973,37.105 L106.307697,37.1042858 L106.317834,37.0985714 C113.404965,58.5928571 106.105683,83.04 86.565387,97.0435714 L86.565387,97.0435714 L86.565387,97.0435714 Z M22.6783864,97.0435714 L22.6682495,97.0507143 L54.6131979,119.945714 L86.565387,97.0442858 L54.6233349,74.1485714 L22.6783864,97.0435714 L22.6783864,97.0435714 L22.6783864,97.0435714 Z M2.93390446,37.0992858 L2.93390446,37.0992858 C-4.52684371,59.7571429 4.13367734,83.7657143 22.6718698,97.0478571 L22.6747661,97.0364286 L34.8766806,59.9928571 L2.94693761,37.1078571 L42.4149036,37.1078571 L54.6168183,0.0635714286 L54.6197144,0.0535714286 L15.134371,0.0535714286 L2.93390446,37.0992858 L2.93390446,37.0992858 L2.93390446,37.0992858 Z" id="Shape"></path>
                </g>
            </g>
        </g>
    </g>
</svg>