<?xml version="1.0" encoding="UTF-8"?>
<svg width="160px" height="45px" viewBox="0 0 160 45" version="1.1" xmlns="http://www.w3.org/2000/svg" xmlns:xlink="http://www.w3.org/1999/xlink">
    <!-- Generator: Sketch 53 (72520) - https://sketchapp.com -->
    <title>moz-logo-bw-rgb</title>
    <desc>Created with Sketch.</desc>
    <g id="Welcome" stroke="none" stroke-width="1" fill="none" fill-rule="evenodd">
        <g id="Desktop-HD" transform="translate(-130.000000, -984.000000)" fill-rule="nonzero">
            <g id="moz-logo-bw-rgb" transform="translate(130.000000, 984.000000)">
                <rect id="Rectangle" fill="#000000" x="0" y="0" width="160" height="44.9921329"></rect>
                <path d="M152.816,32.2945804 C152.504,32.3811189 152.24,32.4283217 151.976,32.4283217 C151.04,32.4283217 150.6,32.034965 150.6,30.9020979 L150.6,22.3505245 C150.6,17.8583916 146.96,15.6713287 142.656,15.6713287 C139.368,15.6713287 137.6,16.0646853 134.088,17.4571678 L133.304,21.9886364 L137.872,22.4685315 L138.52,20.25 C139.456,19.7701049 140.384,19.6835664 141.584,19.6835664 C144.824,19.6835664 144.872,22.083042 144.872,24.0891608 L144.872,24.7421329 C143.848,24.6083916 142.696,24.5690559 141.584,24.5690559 C137.016,24.5690559 132.264,25.7019231 132.264,30.5480769 C132.264,34.6468531 135.544,36.1809441 138.432,36.1809441 C141.672,36.1809441 143.712,34.2613636 144.864,32.2552448 C145.128,34.6547203 146.592,36.1809441 149.256,36.1809441 C150.496,36.1809441 151.784,35.8347902 152.848,35.2604895 L152.816,32.2945804 Z M140.528,32.1687063 C138.8,32.1687063 138.176,31.1617133 138.176,29.8951049 C138.176,27.7552448 139.952,27.1888112 141.992,27.1888112 C142.92,27.1888112 143.944,27.3225524 144.88,27.4484266 C144.744,30.729021 142.568,32.1687063 140.528,32.1687063 Z M132.84,5.71940559 L124.184,35.7482517 L118.544,35.7482517 L127.2,5.71940559 L132.84,5.71940559 Z M121.216,5.71940559 L112.56,35.7482517 L106.928,35.7482517 L115.584,5.71940559 L121.216,5.71940559 Z M97.184,16.0646853 L103.176,16.0646853 L103.176,23.1293706 L97.184,23.1293706 L97.184,16.0646853 Z M97.184,28.6756993 L103.176,28.6756993 L103.176,35.7482517 L97.184,35.7482517 L97.184,28.6756993 Z M88.464,28.4160839 L92.992,28.8487762 L91.752,35.7482517 L74.264,35.7482517 L73.688,32.7823427 L84.696,20.3444056 L78.44,20.3444056 L77.552,23.3968531 L73.424,22.9562937 L74.136,16.0568182 L91.712,16.0568182 L92.16,19.0227273 L81.056,31.4685315 L87.536,31.4685315 L88.464,28.4160839 Z M59.784,15.6713287 C52.592,15.6713287 49.04,20.4309441 49.04,26.1896853 C49.04,32.4755245 53.304,36.1809441 59.472,36.1809441 C65.864,36.1809441 70.48,32.208042 70.48,25.9222028 C70.48,20.4230769 66.968,15.6713287 59.784,15.6713287 Z M59.648,31.8618881 C56.544,31.8618881 54.944,29.2421329 54.944,25.8356643 C54.944,22.1223776 56.76,19.9903846 59.696,19.9903846 C62.4,19.9903846 64.576,21.7762238 64.576,25.7491259 C64.576,29.5017483 62.624,31.8618881 59.648,31.8618881 Z M43.888,31.4685315 L46.552,31.4685315 L46.552,35.7482517 L38.16,35.7482517 L38.16,24.6634615 C38.16,21.256993 37.008,19.951049 34.744,19.951049 C31.992,19.951049 30.88,21.8706294 30.88,24.6241259 L30.88,31.4685315 L33.544,31.4685315 L33.544,35.7482517 L25.16,35.7482517 L25.16,24.6634615 C25.16,21.256993 24.008,19.951049 21.744,19.951049 C18.992,19.951049 17.88,21.8706294 17.88,24.6241259 L17.88,31.4685315 L21.696,31.4685315 L21.696,35.7482517 L9.496,35.7482517 L9.496,31.4685315 L12.16,31.4685315 L12.16,20.3365385 L9.496,20.3365385 L9.496,16.0568182 L17.88,16.0568182 L17.88,19.0227273 C19.08,16.9300699 21.168,15.6634615 23.96,15.6634615 C26.848,15.6634615 29.504,17.0166084 30.488,19.895979 C31.6,17.2762238 33.864,15.6634615 37.016,15.6634615 C40.608,15.6634615 43.896,17.8033217 43.896,22.4685315 L43.896,31.4685315 L43.888,31.4685315 Z" id="Shape" fill="#FFFFFF"></path>
            </g>
        </g>
    </g>
</svg>