<?xml version="1.0" encoding="UTF-8"?>
<svg width="104px" height="120px" viewBox="0 0 104 120" version="1.1" xmlns="http://www.w3.org/2000/svg" xmlns:xlink="http://www.w3.org/1999/xlink">
    <!-- Generator: Sketch 53 (72520) - https://sketchapp.com -->
    <title>logo-light</title>
    <desc>Created with Sketch.</desc>
    <g id="Welcome" stroke="none" stroke-width="1" fill="none" fill-rule="evenodd">
        <g id="Desktop-HD" transform="translate(-450.000000, -4132.000000)" fill-rule="nonzero">
            <g id="logo-light" transform="translate(450.000000, 4132.000000)">
                <path d="M103.679608,13.3726177 C103.679608,6.01535921 98.219658,0.0502890173 91.4853888,0.0502890173 L12.2238281,0.0502890173 C5.48963326,0.0502890173 0.0297323534,6.01535921 0.0297323534,13.3726177 L0.0297323534,78.9418662 C0.0297323534,86.2989265 17.6837538,99.9676301 24.4179487,99.9676301 L87.2938116,99.9676301 C96.7258513,99.9676301 103.679608,92.2639967 103.679608,82.0657308 L103.679608,13.3726177 Z" id="Path" fill="#42B883" transform="translate(51.854670, 50.008960) scale(-1, 1) rotate(-180.000000) translate(-51.854670, -50.008960) "></path>
                <path d="M97.5824244,20.0331194 C97.5824244,12.6758609 92.1227217,6.71079073 85.3884525,6.71079073 L18.3208637,6.71079073 C11.5866936,6.71079073 6.12677237,12.6758609 6.12677237,20.0331194 L6.12677237,99.9669427 C6.12677237,113.685688 6.06275351,113.289321 21.3693939,113.289321 L85.3884525,113.289321 C92.1227217,113.289321 97.5824244,107.324251 97.5824244,99.9669427 L97.5824244,20.0331194 Z" id="Path" fill="#CCD6DD" transform="translate(51.854596, 60.000647) scale(-1, 1) rotate(-180.000000) translate(-51.854596, -60.000647) "></path>
                <path d="M91.4853888,23.3648968 C91.4853888,17.8461354 87.3914169,13.3731627 82.3399718,13.3731627 L9.175298,13.3731627 C4.12390246,13.3731627 0.0297323534,17.8461354 0.0297323534,23.3648968 L0.0297323534,103.298844 C0.0297323534,108.817506 4.12390246,113.290504 9.175298,113.290504 L82.3399718,113.290504 C87.3914169,113.290504 91.4853888,108.817506 91.4853888,103.298844 L91.4853888,23.3648968 Z" id="Path" fill="#E1E8ED" transform="translate(45.757561, 63.331833) scale(-1, 1) rotate(-180.000000) translate(-45.757561, -63.331833) "></path>
                <path d="M91.485602,33.3564327 C91.485602,25.9991742 86.0256515,20.034104 79.2913823,20.034104 L15.2723485,20.034104 C8.53815359,20.034104 3.07825268,25.9991742 3.07825268,33.3564327 L3.07825268,106.629315 C3.07825268,113.986375 8.53815359,119.951445 15.2723485,119.951445 L79.2913823,119.951445 C86.0256515,119.951445 91.485602,113.986375 91.485602,106.629315 L91.485602,33.3564327 Z" id="Path" fill="#42B883" transform="translate(47.281927, 69.992775) scale(-1, 1) rotate(-180.000000) translate(-47.281927, -69.992775) "></path>
                <path d="M85.3884922,40.0176218 C85.3884922,32.6603633 79.9285417,26.6952931 73.1942725,26.6952931 L15.2723485,26.6952931 C8.53815359,26.6952931 3.07825268,32.6603633 3.07825268,40.0176218 L3.07825268,106.629315 C3.07825268,113.986375 8.53815359,119.951445 15.2723485,119.951445 L74.2156598,119.951445 C80.9496813,119.951445 85.3884922,115.102147 85.3884922,107.745087 L85.3884922,40.0176218 Z" id="Path" fill="#42B883" transform="translate(44.233372, 73.323369) scale(-1, 1) rotate(-180.000000) translate(-44.233372, -73.323369) "></path>
                <path d="M15.2723583,99.9678778 C10.1295011,99.9678778 9.99535581,106.369447 12.2238281,109.127168 C14.760203,112.261189 18.7019454,113.290256 25.753184,113.290256 L30.5150338,113.290256 L30.5150338,119.951445 L22.2260412,119.951445 C10.1295011,119.951445 0.0297323534,111.625021 0.0297323534,102.049546 L0.0297323534,13.3728654 C0.0297323534,6.01560694 5.48963326,0.0505367465 12.2238281,0.0505367465 L18.3208884,0.0505367465 L18.3208884,99.9678778 L15.2723583,99.9678778 Z" id="Path" fill="#42B883" transform="translate(15.272383, 60.000991) scale(-1, 1) rotate(-180.000000) translate(-15.272383, -60.000991) "></path>
                <g id="Group" transform="translate(16.845582, 30.123865)">
                    <polygon id="Path" fill="#F2F2F2" transform="translate(29.132948, 55.156499) rotate(-180.000000) translate(-29.132948, -55.156499) " points="29.132948 34.4087861 52.9149463 75.9042114 5.35094963 75.9042114"></polygon>
                    <polygon id="Path" fill="#42B883" transform="translate(29.101064, 37.689800) rotate(-180.000000) translate(-29.101064, -37.689800) " points="29.1010682 33.2691131 33.9574514 42.1104872 24.2446771 42.1104872"></polygon>
                    <polygon id="Path" fill="#42B883" points="34.1415359 36.1376383 29.2660281 44.6669727 24.3903419 36.1376383 8.15474814 36.1376383 29.2660281 73.0748472 50.3771098 36.1376383"></polygon>
                    <polygon id="Path" fill="#35495E" points="34.1416746 36.1376383 29.2660479 44.6669727 24.3904211 36.1376383 16.5984472 36.1376383 29.2660479 58.299488 41.9336086 36.1376383"></polygon>
                    <rect id="Rectangle" fill="#35495E" x="3.79521057" y="0.0502394715" width="51.7258464" height="23.3856317"></rect>
                    <path d="M41.321123,2.64864575 C41.321123,1.21367465 40.206986,0.0502394715 38.8328324,0.0502394715 L21.4146986,0.0502394715 C20.040545,0.0502394715 18.9264079,1.21367465 18.9264079,2.64864575 L18.9264079,20.8374649 C18.9264079,22.272436 20.040545,23.4358712 21.4146986,23.4358712 L38.8328324,23.4358712 C40.206986,23.4358712 41.321123,22.272436 41.321123,20.8374649 L41.321123,2.64864575 Z" id="Path" fill="#35495E" transform="translate(30.123765, 11.743055) scale(-1, 1) rotate(-180.000000) translate(-30.123765, -11.743055) "></path>
                    <path d="M23.9029893,17.559785 C23.9029893,18.5666802 24.6289521,19.1305365 25.4581784,19.1305365 C26.2874046,19.1305365 27.0133774,18.5666802 27.0133774,17.559785 L27.0133774,10.5304704 C27.0133774,8.67715911 28.2917341,7.33248529 30.1237407,7.33248529 C31.8792486,7.33248529 33.2341288,8.75769586 33.2341288,10.5304704 L33.2341288,17.559785 C33.2341288,18.5666802 33.9606936,19.1305365 34.7892981,19.1305365 C35.619166,19.1305365 36.3239802,18.5666802 36.3239802,17.559785 L36.3239802,10.3693722 C36.3239802,6.98559016 33.3056482,4.42746491 30.1237407,4.42746491 C26.9026424,4.42746491 23.9029893,6.9453094 23.9029893,10.3693722 L23.9029893,17.559785 Z" id="Path" fill="#FFFFFF" transform="translate(30.113485, 11.779001) scale(-1, 1) rotate(-180.000000) translate(-30.113485, -11.779001) "></path>
                    <path d="M22.4244426,2.64874484 C22.4244426,1.21377374 21.3103055,0.0503385632 19.9361519,0.0503385632 L2.51801817,0.0503385632 C1.14386457,0.0503385632 0.0297274979,1.21377374 0.0297274979,2.64874484 L0.0297274979,20.837564 C0.0297274979,22.2725351 1.14386457,23.4359703 2.51801817,23.4359703 L19.9361519,23.4359703 C21.3103055,23.4359703 22.4244426,22.2725351 22.4244426,20.837564 L22.4244426,2.64874484 Z" id="Path" fill="#35495E" transform="translate(11.227085, 11.743154) scale(-1, 1) rotate(-180.000000) translate(-11.227085, -11.743154) "></path>
                    <path d="M5.57710429,16.8140468 C5.48068266,17.0758469 5.44211396,17.2772259 5.44211396,17.5591417 C5.44211396,18.4049386 6.15563336,19.0090509 6.92700743,19.0090509 C7.58329645,19.0090509 7.98765483,18.5660368 8.23833196,18.0223209 L11.2280264,9.64374948 L14.218365,18.0223209 C14.4684228,18.5660368 14.8734104,19.0090509 15.5296945,19.0090509 C16.3010735,19.0090509 17.0139637,18.4049386 17.0139637,17.5591417 C17.0139637,17.2772259 16.9766309,17.0758469 16.8789761,16.8140468 L12.6556895,5.59479738 C12.4043931,4.9503944 12.0771676,4.42746491 11.2280264,4.42746491 C10.3795293,4.42746491 10.0516846,4.9503944 9.80100743,5.59479738 L5.57710429,16.8140468 Z" id="Path" fill="#FFFFFF" transform="translate(11.228039, 11.718258) scale(-1, 1) rotate(-180.000000) translate(-11.228039, -11.718258) "></path>
                    <path d="M59.2568126,2.59840628 C59.2568126,1.16343518 58.1426755,0 56.7685219,0 L39.3503881,0 C37.9762345,0 36.8620974,1.16343518 36.8620974,2.59840628 L36.8620974,20.7872254 C36.8620974,22.2221965 37.9762345,23.3856317 39.3503881,23.3856317 L56.7685219,23.3856317 C58.1426755,23.3856317 59.2568126,22.2221965 59.2568126,20.7872254 L59.2568126,2.59840628 Z" id="Path" fill="#35495E" transform="translate(48.059455, 11.692816) scale(-1, 1) rotate(-180.000000) translate(-48.059455, -11.692816) "></path>
                    <path d="M44.4633196,17.0865233 C44.4633196,18.0934185 44.9454277,18.8385134 45.9674988,18.8385134 L50.7506358,18.8385134 C51.6762758,18.8385134 52.1204542,18.1538396 52.1204542,17.4490006 C52.1204542,16.7643268 51.6576218,16.0588685 50.7506358,16.0588685 L47.3559785,16.0588685 L47.3559785,13.1187694 L50.5198514,13.1187694 C51.4647894,13.1187694 51.9282164,12.4334515 51.9282164,11.7286373 C51.9282164,11.0439387 51.4454913,10.3391245 50.5198514,10.3391245 L47.3559785,10.3391245 L47.3559785,7.27756381 L50.9241949,7.27756381 C51.8504542,7.27756381 52.2933939,6.59288255 52.2933939,5.8880634 C52.2933939,5.20273557 51.8305615,4.49791908 50.9241949,4.49791908 L45.948213,4.49791908 C45.0997036,4.49791908 44.4633196,5.10204605 44.4633196,6.00823928 L44.4633196,17.0865233 Z" id="Path" fill="#FFFFFF" transform="translate(48.378357, 11.668216) scale(-1, 1) rotate(-180.000000) translate(-48.378357, -11.668216) "></path>
                </g>
            </g>
        </g>
    </g>
</svg>